<svg xmlns="http://www.w3.org/2000/svg" xmlns:xlink="http://www.w3.org/1999/xlink" width="59" height="59" viewBox="0 0 59 59"><defs><clipPath id="a"><circle cx="29.5" cy="29.5" r="29.5" transform="translate(1315 9011)" fill="#fff" stroke="#707070" stroke-width="1"/></clipPath></defs><g transform="translate(-1315 -9011)" clip-path="url(#a)"><g transform="translate(1319 9019)"><path d="M34.223,0H16.833a3.19,3.19,0,0,0-3.19,3.19V41.034a3.189,3.189,0,0,0,3.19,3.19h17.39a3.19,3.19,0,0,0,3.191-3.19V3.19A3.19,3.19,0,0,0,34.223,0ZM23.394,1.886h4.268a.278.278,0,0,1,0,.557H23.394a.278.278,0,0,1,0-.557Zm-4.254-.669a.445.445,0,1,1-.445.445A.445.445,0,0,1,19.141,1.217ZM17.123.95a.712.712,0,1,1-.712.712A.712.712,0,0,1,17.123.95ZM26.642,42.6H24.415a1.278,1.278,0,1,1,0-2.555h2.227a1.278,1.278,0,1,1,0,2.555Zm9.42-3.565H14.994V5.183H36.062Z" fill="#f0e275"/></g></g></svg>