<svg xmlns="http://www.w3.org/2000/svg" width="20.839" height="38.884" viewBox="0 0 20.839 38.884"><g transform="translate(-51.807 -271)"><g transform="translate(52 261)"><g transform="translate(0 10)"><g fill="none"><path d="M10.323,0c5.7,0,10.323,4.126,10.323,9.216V21.173c0,5.09-4.622,9.216-10.323,9.216S0,26.263,0,21.173V9.216C0,4.126,4.622,0,10.323,0Z" stroke="none"/><path d="M 10.32283496856689 2.999994277954102 C 6.285004615783691 2.999994277954102 2.999994277954102 5.788604736328125 2.999994277954102 9.216274261474609 L 2.999994277954102 21.17253494262695 C 2.999994277954102 24.60019493103027 6.285004615783691 27.3888053894043 10.32283496856689 27.3888053894043 C 14.36065483093262 27.3888053894043 17.64566421508789 24.60019493103027 17.64566421508789 21.17253494262695 L 17.64566421508789 9.216274261474609 C 17.64566421508789 5.788604736328125 14.36065483093262 2.999994277954102 10.32283496856689 2.999994277954102 M 10.32283496856689 -5.7220458984375e-06 C 16.02397537231445 -5.7220458984375e-06 20.64566421508789 4.126264572143555 20.64566421508789 9.216274261474609 L 20.64566421508789 21.17253494262695 C 20.64566421508789 26.26254463195801 16.02397537231445 30.3888053894043 10.32283496856689 30.3888053894043 C 4.621694564819336 30.3888053894043 -5.7220458984375e-06 26.26254463195801 -5.7220458984375e-06 21.17253494262695 L -5.7220458984375e-06 9.216274261474609 C -5.7220458984375e-06 4.126264572143555 4.621694564819336 -5.7220458984375e-06 10.32283496856689 -5.7220458984375e-06 Z" stroke="none" fill="#67b1c3"/></g><circle cx="1.858" cy="1.858" r="1.858" transform="translate(8.464 7.012)" fill="#67b1c3"/><path d="M-1372.425,1060.069l8.541,6.063,7.885-6.063" transform="translate(1374.323 -1029.113)" fill="none" stroke="#67b1c3" stroke-linecap="round" stroke-width="3"/></g></g></g></svg>