<svg xmlns="http://www.w3.org/2000/svg" width="58.392" height="58.392" viewBox="0 0 58.392 58.392">
  <g id="love" transform="translate(0)">
    <path id="Path_60" data-name="Path 60" d="M52.746,0H16.31A10.866,10.866,0,0,0,5.332,10.75v23.4A10.866,10.866,0,0,0,16.31,44.9h5.229a.446.446,0,0,1,.45.441V56.883a1.543,1.543,0,0,0,2.66,1.032L37.017,45.038a.455.455,0,0,1,.328-.139h15.4a10.866,10.866,0,0,0,10.978-10.75V10.75A10.866,10.866,0,0,0,52.746,0Z" transform="translate(-5.332)" fill="#ec5569"/>
    <path id="Path_61" data-name="Path 61" d="M26.319,51.824a.448.448,0,0,0-.43-.464H20.9c-5.79,0-10.484-5.067-10.484-11.318V15.406a12.177,12.177,0,0,1,.386-3.053,10.731,10.731,0,0,0-5.466,9.339v23.4A10.789,10.789,0,0,0,16.161,55.835h5.158a.443.443,0,0,1,.444.441v11.54a1.519,1.519,0,0,0,2.623,1.032l1.932-2.039V51.824Z" transform="translate(-5.332 -10.934)" fill="#e63950"/>
    <path id="Path_62" data-name="Path 62" d="M158.539,106.439h0a7.041,7.041,0,0,0-9.957,0l-1.553,1.553a.948.948,0,0,1-1.341,0l-1.528-1.528a7.04,7.04,0,0,0-9.957,0h0a7.04,7.04,0,0,0,0,9.957l11.486,11.486a.948.948,0,0,0,1.341,0L158.539,116.4A7.04,7.04,0,0,0,158.539,106.439Z" transform="translate(-117.175 -92.533)" fill="#ec5569"/>
    <path id="Path_63" data-name="Path 63" d="M158.539,106.439h0a7.041,7.041,0,0,0-9.957,0l-1.553,1.553a.948.948,0,0,1-1.341,0l-1.528-1.528a7.04,7.04,0,0,0-9.957,0h0a7.04,7.04,0,0,0,0,9.957l11.486,11.486a.948.948,0,0,0,1.341,0L158.539,116.4A7.04,7.04,0,0,0,158.539,106.439Z" transform="translate(-117.175 -92.533)" fill="#fff5f5"/>
    <path id="Path_64" data-name="Path 64" d="M137.887,116.624a7.041,7.041,0,0,1,0-9.957h0a7,7,0,0,1,3.137-1.816,7.035,7.035,0,0,0-6.82,1.816h0a7.04,7.04,0,0,0,0,9.957L145.69,128.11a.948.948,0,0,0,1.341,0l1.171-1.171Z" transform="translate(-117.294 -92.737)" fill="#dce6eb"/>
  </g>
</svg>
