<svg xmlns="http://www.w3.org/2000/svg" width="53.526" height="58.392" viewBox="0 0 53.526 58.392">
  <g id="shield" transform="translate(0)">
    <path id="Path_56" data-name="Path 56" d="M50.487,58.392h0A40.8,40.8,0,0,0,77.25,20.2V9.89A9.941,9.941,0,0,1,67.259,0H33.716a9.941,9.941,0,0,1-9.992,9.89V20.2A40.8,40.8,0,0,0,50.487,58.392Z" transform="translate(-23.724)" fill="#ffdb0c"/>
    <path id="Path_57" data-name="Path 57" d="M256,58.392h0A40.8,40.8,0,0,0,282.859,20.2V9.89A9.959,9.959,0,0,1,272.831,0H256V58.392Z" transform="translate(-229.332)" fill="#fbbf00"/>
    <path id="Path_58" data-name="Path 58" d="M155.544,183.43l-8.9-8.9,4.906-4.906,4,4,11.481-11.481,4.906,4.906Z" transform="translate(-132.522 -143.79)" fill="#f1f1f2"/>
    <path id="Path_59" data-name="Path 59" d="M256,179.688v-9.812l7.74-7.74,4.906,4.906Z" transform="translate(-229.266 -143.754)" fill="#e6e6e6"/>
  </g>
</svg>
