<svg xmlns="http://www.w3.org/2000/svg" width="49.633" height="58.392" viewBox="0 0 49.633 58.392">
  <g id="student" transform="translate(0 0)">
    <path id="Path_35" data-name="Path 35" d="M365.841,13.48a2.515,2.515,0,0,0-1.617-2.348V.9a.9.9,0,0,0-1.8,0V11.132a2.513,2.513,0,0,0,0,4.7v2.8a.9.9,0,0,0,1.8,0v-2.8A2.515,2.515,0,0,0,365.841,13.48Zm0,0" transform="translate(-317.885 0)" fill="#ffd664"/>
    <path id="Path_36" data-name="Path 36" d="M367.112,96.66a2.513,2.513,0,0,1-3.432,3.433,2.515,2.515,0,1,0,3.432-3.433Zm0,0" transform="translate(-320.421 -85.66)" fill="#f9c646"/>
    <path id="Path_37" data-name="Path 37" d="M58.537,0H13.726a.906.906,0,0,0-.913.9.906.906,0,0,0,.913.9h7.793V13.241H50.744V1.8h7.793A.906.906,0,0,0,59.45.9a.906.906,0,0,0-.913-.9Zm0,0" transform="translate(-11.315 0)" fill="#636363"/>
    <path id="Path_38" data-name="Path 38" d="M17.517,342.871,7.127,345.714A9.609,9.609,0,0,0,0,354.95v6.523a1.178,1.178,0,0,0,1.187,1.169h47.26a1.178,1.178,0,0,0,1.187-1.169V354.95a9.609,9.609,0,0,0-7.127-9.236l-10.391-2.843Zm0,0" transform="translate(0 -304.25)" fill="#ddf5ff"/>
    <path id="Path_39" data-name="Path 39" d="M183.319,416.672l1.438,7.19-3.715,3.954-3.715-3.954,1.438-7.19Zm0,0" transform="translate(-156.226 -369.423)" fill="#ff6969"/>
    <path id="Path_40" data-name="Path 40" d="M212.82,423.862l-1.438-7.19h-2.277l1.823,9.2Zm0,0" transform="translate(-184.258 -369.424)" fill="#ea4747"/>
    <path id="Path_41" data-name="Path 41" d="M233.55,362.236v6.523a1.169,1.169,0,0,1-1.169,1.169H209.106l7.07-7.429,3.591-11.378L226.529,353a9.584,9.584,0,0,1,7.021,9.236Zm0,0" transform="translate(-183.917 -311.535)" fill="#636363"/>
    <path id="Path_42" data-name="Path 42" d="M352.3,365.563l-.775-.216a9.582,9.582,0,0,1,3.362,7.289v9.855h3.265a1.169,1.169,0,0,0,1.169-1.169V374.8A9.586,9.586,0,0,0,352.3,365.563Zm0,0" transform="translate(-309.686 -324.099)" fill="#494949"/>
    <path id="Path_43" data-name="Path 43" d="M7.021,353l6.763-1.879L17.375,362.5l7.07,7.429H1.17A1.169,1.169,0,0,1,0,368.758v-6.523A9.586,9.586,0,0,1,7.021,353Zm0,0" transform="translate(0 -311.535)" fill="#636363"/>
    <path id="Path_44" data-name="Path 44" d="M180.831,265.65l-4.314,4.313L172.2,265.65v-6.83h8.628Zm0,0" transform="translate(-151.701 -229.471)" fill="#f9b3a7"/>
    <path id="Path_45" data-name="Path 45" d="M305.457,113.266h3.116v4.793h-3.116Zm0,0" transform="translate(-269.168 -100.376)" fill="#ffd664"/>
    <path id="Path_46" data-name="Path 46" d="M113.269,7.688v7.549a2.428,2.428,0,0,1-2.459,2.4H86.1v2.4h29.5V7.688Zm0,0" transform="translate(-76.037 -6.789)" fill="#494949"/>
    <path id="Path_47" data-name="Path 47" d="M86.1,113.266h3.116v4.793H86.1Zm0,0" transform="translate(-75.873 -100.376)" fill="#ffd664"/>
    <path id="Path_48" data-name="Path 48" d="M92.335,113.266H81.072v3.954h-1.8a2.4,2.4,0,0,0-2.4,2.4v1.678a2.4,2.4,0,0,0,2.4,2.4h1.941a11.264,11.264,0,0,0,22.383-1.8v-8.627Zm0,0" transform="translate(-67.589 -100.509)" fill="#feccc1"/>
    <path id="Path_49" data-name="Path 49" d="M209.492,117.22h-1.8v-3.954H204.34v8.627a11.266,11.266,0,0,1-9.586,11.139,11.275,11.275,0,0,0,12.8-9.342h1.941a2.4,2.4,0,0,0,2.4-2.4v-1.677a2.4,2.4,0,0,0-2.4-2.4Zm0,0" transform="translate(-171.453 -100.509)" fill="#f9b3a7"/>
    <path id="Path_50" data-name="Path 50" d="M174.254,361.454h2.276l2.337-2.7-4.613-4.613-4.613,4.613,2.337,2.7Zm0,0" transform="translate(-149.437 -313.896)" fill="#ff6969"/>
    <path id="Path_51" data-name="Path 51" d="M198.47,354.145l-1.408,1.408,2.416,2.416a1.2,1.2,0,0,1,.058,1.632l-1.606,1.853h2.816l2.337-2.7Zm0,0" transform="translate(-173.625 -313.896)" fill="#ea4747"/>
    <path id="Path_52" data-name="Path 52" d="M149.726,326.173l4.613-4.613-4.314-4.313-2.936,3.016Zm0,0" transform="translate(-129.588 -281.223)" fill="#c1e9f4"/>
    <path id="Path_53" data-name="Path 53" d="M213.718,326.173l-4.613-4.613,4.314-4.313,2.935,3.016Zm0,0" transform="translate(-184.224 -281.223)" fill="#c1e9f4"/>
    <g id="Group_2" data-name="Group 2" transform="translate(8.581 53.779)">
      <path id="Path_54" data-name="Path 54" d="M334.418,473.434v3.715h-1.8v-3.715a.9.9,0,0,1,1.8,0Zm0,0" transform="translate(-301.946 -472.535)" fill="#494949"/>
      <path id="Path_55" data-name="Path 55" d="M70.215,477.149v-3.715a.9.9,0,1,1,1.8,0v3.715Zm0,0" transform="translate(-70.215 -472.535)" fill="#494949"/>
    </g>
  </g>
</svg>
