<svg xmlns="http://www.w3.org/2000/svg" xmlns:xlink="http://www.w3.org/1999/xlink" width="63" height="58" viewBox="0 0 63 58">
  <defs>
    <clipPath id="clip-path">
      <rect id="Rectangle_13" data-name="Rectangle 13" width="63" height="58" transform="translate(-0.149 0.42)" fill="#fff" stroke="#707070" stroke-width="1"/>
    </clipPath>
  </defs>
  <g id="Mask_Group_3" data-name="Mask Group 3" transform="translate(0.149 -0.42)" clip-path="url(#clip-path)">
    <g id="search" transform="translate(2.433 0)">
      <path id="Path_19" data-name="Path 19" d="M58.247,53.139l-11.4-11.4a5.005,5.005,0,0,0,.091-1.186,6.385,6.385,0,1,0-6.385,6.385,9.627,9.627,0,0,0,1.186-.091l11.357,11.4a3.606,3.606,0,0,0,5.108,0A3.566,3.566,0,0,0,58.247,53.139Zm0,0-11.4-11.4a5.005,5.005,0,0,0,.091-1.186,6.385,6.385,0,1,0-6.385,6.385,9.627,9.627,0,0,0,1.186-.091l11.357,11.4a3.606,3.606,0,0,0,5.108,0A3.566,3.566,0,0,0,58.247,53.139Z" transform="translate(-0.915 -0.916)" fill="#b7854e"/>
      <path id="Path_20" data-name="Path 20" d="M34.668,38.27a17.513,17.513,0,0,1,3.649,3.421,37.951,37.951,0,0,1,3.01,5.063l.137.274.274-.046,1.14,1.14-.958-1.733a42.507,42.507,0,0,0-3.056-5.154,20.016,20.016,0,0,0-3.922-3.649A4.271,4.271,0,0,1,34.668,38.27ZM49.948,53.093c-1.049-2.144-1.779-4.059-2.463-5.792-1.323-3.466-2.326-5.975-4.743-7.07-1.277-.547-1.961-.639-2.326-.182-.593.684.137,2.1,2.144,5.2L46.892,52c.046.046.046.091.091.091a.342.342,0,0,0,.411,0,.324.324,0,0,0,.091-.5l-4.333-6.75c-.684-1.049-2.463-3.877-2.189-4.333,0,0,.228-.137,1.46.411,2.144.958,3.056,3.238,4.379,6.659.639,1.688,1.414,3.649,2.463,5.838.365.775.639,1.368.867,1.916l1.277,1.277A26.849,26.849,0,0,0,49.948,53.093Zm4.835,5.473c-1.414-2.691-2.873-5.473-3.512-7.161-.182-.456-.319-.958-.5-1.46a30.42,30.42,0,0,0-3.512-7.662l-.411-.411v-.137a16.679,16.679,0,0,0-4.652-4.2H40.6c6.157,2.873,8.119,8.62,9.487,12.634.182.547.365,1,.5,1.505A76.293,76.293,0,0,0,54.1,58.931c.046.046.046.091.091.182a3.622,3.622,0,0,0,1,.274l-.411-.821ZM39.32,46.936a5.613,5.613,0,0,0,.912.091A18.113,18.113,0,0,0,34.3,39.775c-.046.274-.046.547-.091.867A17.152,17.152,0,0,1,39.32,46.936Zm6.8-9.4h-.73a11.094,11.094,0,0,1,1.14.912A3.294,3.294,0,0,0,46.116,37.54ZM56.7,55.784c-.821-2.189-1.049-3.831-.639-4.7l-.547-.547c-.5.867-.639,2.463.5,5.519.365.912.775,1.961,1.231,3.01a1.914,1.914,0,0,0,.639-.411C57.473,57.745,57.108,56.787,56.7,55.784Zm2.554-.5a3.519,3.519,0,0,0-.456-1.323,6.24,6.24,0,0,0,0,3.694,3.679,3.679,0,0,0,.5-1.505A5.813,5.813,0,0,1,59.252,55.282ZM56.835,59.2C54.828,54.826,53,50.128,51.681,46.662L50.4,45.385l.319.821c1.733,4.515,3.512,9.076,5.382,13.181A3.414,3.414,0,0,0,56.835,59.2Z" transform="translate(-0.917 -1.006)" fill="#be8d54"/>
      <path id="Path_21" data-name="Path 21" d="M58.879,57.472a3.608,3.608,0,0,0-.593-4.333l-11.357-11.4a5.005,5.005,0,0,0,.091-1.186,6.4,6.4,0,0,0-6.385-6.385A6.473,6.473,0,0,0,36.85,35.4a6.614,6.614,0,0,0-1.231,3.831A6.4,6.4,0,0,0,42,45.614a9.628,9.628,0,0,0,1.186-.091l11.357,11.4A3.666,3.666,0,0,0,58.879,57.472Z" transform="translate(-0.954 -0.916)" fill="#cc9357"/>
      <path id="Path_22" data-name="Path 22" d="M37.214,43.514a7.154,7.154,0,0,0,1.87,1.46,17.637,17.637,0,0,0-3.238-4.014,5.95,5.95,0,0,0,1,2.1ZM56.736,55.783c-.821-2.189-1.049-3.831-.639-4.7l-.547-.547c-.5.867-.639,2.463.5,5.519.228.593.5,1.277.775,1.961a4.171,4.171,0,0,0,.775-.046C57.329,57.288,57.055,56.512,56.736,55.783Zm2.554-.5a3.519,3.519,0,0,0-.456-1.323,6.238,6.238,0,0,0-.046,3.6.045.045,0,0,0,.046-.046,3.6,3.6,0,0,0,.456-1.505ZM35.618,39a15.342,15.342,0,0,1,2.737,2.691,32.006,32.006,0,0,1,2.417,3.877,5.613,5.613,0,0,0,.912.091,40.92,40.92,0,0,0-2.691-4.424,17.511,17.511,0,0,0-3.238-3.1A4.921,4.921,0,0,0,35.618,39Zm16.1,7.662-1.277-1.277.319.821c1.46,3.831,3.01,7.754,4.607,11.311a2.761,2.761,0,0,0,.958.365C54.5,53.913,52.9,49.808,51.718,46.661Zm-5.564-9.122h-.73a11.094,11.094,0,0,1,1.14.912A3.294,3.294,0,0,0,46.154,37.539Zm5.2,13.82c-.182-.456-.319-.958-.5-1.46a30.42,30.42,0,0,0-3.512-7.662l-.411-.411v-.137a16.679,16.679,0,0,0-4.652-4.2H40.635c6.157,2.873,8.119,8.62,9.487,12.634.182.547.365,1,.5,1.505a24.881,24.881,0,0,0,1.095,2.509l1.642,1.642a33.713,33.713,0,0,1-2.007-4.424ZM42.779,40.23c-1.277-.547-1.961-.639-2.326-.182-.593.684.137,2.1,2.144,5.2l.228.365.365-.046,1.323,1.323-1.323-2.052C42.505,43.787,40.726,40.959,41,40.5c0,0,.228-.137,1.46.411,2.144.958,3.056,3.238,4.379,6.659q.479,1.3,1.095,2.737l1.414,1.414c-.73-1.642-1.323-3.1-1.824-4.424C46.2,43.833,45.2,41.324,42.779,40.23Z" transform="translate(-0.954 -1.005)" fill="#d49d5e"/>
      <path id="Path_23" data-name="Path 23" d="M23.843,4.687A19.156,19.156,0,1,1,4.687,23.843,19.154,19.154,0,0,1,23.843,4.687Z" transform="translate(-0.126 -0.126)" fill="#b4e7f8"/>
      <path id="Path_24" data-name="Path 24" d="M23.973,4.687A19.115,19.115,0,0,0,9.561,11.255,18.953,18.953,0,0,1,22.149,6.511,19.154,19.154,0,0,1,41.305,25.667a18.953,18.953,0,0,1-4.743,12.588A19.138,19.138,0,0,0,23.973,4.687Z" transform="translate(-0.256 -0.126)" fill="#a6d5e5"/>
      <path id="Path_25" data-name="Path 25" d="M23.717,0A23.717,23.717,0,1,0,47.435,23.717,23.728,23.728,0,0,0,23.717,0Zm0,42.417a18.7,18.7,0,1,1,18.7-18.7A18.726,18.726,0,0,1,23.717,42.418ZM23.717,0A23.717,23.717,0,1,0,47.435,23.717,23.728,23.728,0,0,0,23.717,0Zm0,42.417a18.7,18.7,0,1,1,18.7-18.7A18.726,18.726,0,0,1,23.717,42.418Z" transform="translate(0 0)" fill="#3c5663"/>
    </g>
  </g>
</svg>
