<svg xmlns="http://www.w3.org/2000/svg" xmlns:xlink="http://www.w3.org/1999/xlink" width="511.054" height="390" viewBox="0 0 511.054 390">
  <defs>
    <linearGradient id="linear-gradient" x1="0.871" y1="1" x2="0.871" gradientUnits="objectBoundingBox">
      <stop offset="0" stop-color="gray" stop-opacity="0.251"/>
      <stop offset="0.54" stop-color="gray" stop-opacity="0.122"/>
      <stop offset="1" stop-color="gray" stop-opacity="0.102"/>
    </linearGradient>
  </defs>
  <g id="Group_14" data-name="Group 14" transform="translate(-0.023 0.02)">
    <path id="Path_73" data-name="Path 73" d="M378.119,126.016c-32.2-1.119-62.858-11.511-92.144-22.883s-58.282-23.967-89.706-30c-20.212-3.875-43.323-4.422-59.61,6.412-15.67,10.447-20.734,28.43-23.46,45.134-2.045,12.566-3.248,25.793,2.363,37.558,3.9,8.168,10.815,15.033,15.6,22.853,16.645,27.221,4.88,60.809-13.153,87.368C109.553,284.933,99.733,296.837,93.2,310.1s-9.551,28.479-3.84,42.02c5.666,13.431,19.162,23.5,33.782,30.589,29.688,14.426,64.669,18.52,98.8,20.853,75.524,5.169,151.455,2.93,227.178.691,28.027-.831,56.173-1.671,83.747-6,15.307-2.4,31.116-6.223,42.229-15.421,14.108-11.705,17.6-31.524,8.153-46.2C567.391,312,523.555,305.89,512.457,279.471c-6.1-14.546.164-30.743,9.029-44.234,19.023-28.932,50.9-54.317,52.586-87.388,1.154-22.714-14.172-45.462-37.871-56.212-24.843-11.262-59.287-9.845-77.6,8.8C439.7,119.613,406.534,127.01,378.119,126.016Z" transform="translate(-86.32 -64.351)" fill="#b24b8e" opacity="0.1"/>
    <ellipse id="Ellipse_4" data-name="Ellipse 4" cx="184.546" cy="13.72" rx="184.546" ry="13.72" transform="translate(103.885 347.711)" fill="#b24b8e" opacity="0.1"/>
    <path id="Path_74" data-name="Path 74" d="M379.26,695.106s10.447-1.671,16.714,5.716c0,0-4.6,3.622-14.486-1.393Z" transform="translate(-233.524 -378.113)" fill="#b24b8e"/>
    <path id="Path_75" data-name="Path 75" d="M372.661,695s-6.661,8.218-3.393,17.336c0,0,5.432-2.179,6.024-13.252Z" transform="translate(-228.049 -378.141)" fill="#b24b8e"/>
    <path id="Path_76" data-name="Path 76" d="M365,665.152s4.179-7.661,20.893,3.064c0,0-2.229,5.154-9.611,4.736S366.94,669.216,365,665.152Z" transform="translate(-226.357 -361.809)" fill="#b24b8e"/>
    <path id="Path_77" data-name="Path 77" d="M353.2,666.712s-8.671-.995-9.511,18.859c0,0,5.5,1.139,9.4-5.139S355.385,670.632,353.2,666.712Z" transform="translate(-215.648 -363.921)" fill="#b24b8e"/>
    <path id="Path_78" data-name="Path 78" d="M352.66,627.473s4.875-13.511,22.565-3.9c0,0-4.039,12.4-20.754,8.5Z" transform="translate(-220.156 -340.511)" fill="#b24b8e"/>
    <path id="Path_79" data-name="Path 79" d="M341.73,587.86s9.2-13.655,25.495-.995c0,0-5.711,12.814-24.1,5.85Z" transform="translate(-214.663 -321.095)" fill="#b24b8e"/>
    <path id="Path_80" data-name="Path 80" d="M337.81,550.021s10.73-12.536,26.887,0c0,0-10.168,11-26.887,3.2Z" transform="translate(-212.693 -302.483)" fill="#b24b8e"/>
    <path id="Path_81" data-name="Path 81" d="M334.45,512.037s10.869-13.093,26.33-.7c0,0-12.257,11.561-26.33,3.761Z" transform="translate(-211.005 -283.163)" fill="#b24b8e"/>
    <path id="Path_82" data-name="Path 82" d="M336.41,475.309s11.441-16.859,25.912-5.432c0,0-12.257,14.486-25.912,8.636Z" transform="translate(-211.99 -263.01)" fill="#b24b8e"/>
    <path id="Path_83" data-name="Path 83" d="M341.73,437.056s12.123-16.715,26.191-3.9c0,0-14.347,14.491-26.191,6.964Z" transform="translate(-214.663 -244.123)" fill="#b24b8e"/>
    <path id="Path_84" data-name="Path 84" d="M349.227,400.056s14.347-15.7,26.863-9.452c0,0-14.954,16.68-27.489,13.615Z" transform="translate(-218.116 -224.429)" fill="#b24b8e"/>
    <path id="Path_85" data-name="Path 85" d="M358.754,363.853s16.575-19.222,26.186-12.814c0,0-12.2,14.924-27.36,16.416Z" transform="translate(-222.629 -204.628)" fill="#b24b8e"/>
    <path id="Path_86" data-name="Path 86" d="M372.525,327.311S387.016,311.6,397.6,315.5c0,0-12.4,16.3-27.022,16.714Z" transform="translate(-229.162 -187.113)" fill="#b24b8e"/>
    <path id="Path_87" data-name="Path 87" d="M386.956,291.246s16.018-15.048,22.982-12.4c0,0-11.561,16.719-23.679,15.744Z" transform="translate(-237.042 -168.847)" fill="#b24b8e"/>
    <path id="Path_88" data-name="Path 88" d="M400.54,254.177s13.789-17.968,21.311-16.575c0,0-8.357,16.018-21.311,18.406Z" transform="translate(-244.218 -148.239)" fill="#b24b8e"/>
    <path id="Path_89" data-name="Path 89" d="M414.012,212.615s12.188-13.78,18.769-13.745c0,0-9.621,18.406-19.271,18.237Z" transform="translate(-250.736 -128.813)" fill="#b24b8e"/>
    <path id="Path_90" data-name="Path 90" d="M421.287,167.848l11.77-28.7s.592,25.942-13.267,34.021Z" transform="translate(-253.892 -98.801)" fill="#b24b8e"/>
    <path id="Path_91" data-name="Path 91" d="M432.325,107.047s1.95-23.957.7-25.907c0,0,8.417,19.9-.781,36.493Z" transform="translate(-260.149 -69.649)" fill="#b24b8e"/>
    <path id="Path_92" data-name="Path 92" d="M331.422,632.7s-12.208-7.566-20.112,10.944c0,0,10.864,7.208,21.545-6.223Z" transform="translate(-199.376 -346.065)" fill="#b24b8e"/>
    <path id="Path_93" data-name="Path 93" d="M318.531,591.567s-14.973-6.83-22.241,12.5c0,0,11.571,7.959,23.6-7.611Z" transform="translate(-191.828 -325.572)" fill="#b24b8e"/>
    <path id="Path_94" data-name="Path 94" d="M309.273,552.371s-10.725-12.536-26.863,0c0,0,10.168,11,26.863,3.2Z" transform="translate(-184.852 -303.664)" fill="#b24b8e"/>
    <path id="Path_95" data-name="Path 95" d="M307.12,512.037s-10.864-13.093-26.33-.7c0,0,12.262,11.561,26.33,3.761Z" transform="translate(-184.038 -283.163)" fill="#b24b8e"/>
    <path id="Path_96" data-name="Path 96" d="M311.976,472.842s-7.621-18.9-24.186-10.76c0,0,8.954,16.739,23.515,13.889Z" transform="translate(-187.556 -260.066)" fill="#b24b8e"/>
    <path id="Path_97" data-name="Path 97" d="M319.035,432.905s-7.571-19.207-24.375-10.3c0,0,10.287,17.6,23.629,13.267Z" transform="translate(-191.008 -240.067)" fill="#b24b8e"/>
    <path id="Path_98" data-name="Path 98" d="M336.014,388.113s-2.985-21.057-16.913-22.943c0,0,2.95,22.206,15.033,26.738Z" transform="translate(-203.291 -212.387)" fill="#b24b8e"/>
    <path id="Path_99" data-name="Path 99" d="M347.84,351.671s-1.164-25.37-12.68-26.251c0,0,.388,19.257,11.382,29.847Z" transform="translate(-211.362 -192.411)" fill="#b24b8e"/>
    <path id="Path_100" data-name="Path 100" d="M362.316,314.489s-3.437-21.1-14.426-23.679c0,0,1.363,20.435,13.342,28.852Z" transform="translate(-217.759 -175.017)" fill="#b24b8e"/>
    <path id="Path_101" data-name="Path 101" d="M382.412,278.926s-.119-21.973-6.83-25.206c0,0-4.169,19.9,4.885,28.012Z" transform="translate(-231.194 -156.378)" fill="#b24b8e"/>
    <path id="Path_102" data-name="Path 102" d="M393.316,244.468s-.94-22.629-7.895-25.818c0,0-2.383,17.908,6.85,27.3Z" transform="translate(-236.481 -138.754)" fill="#b24b8e"/>
    <path id="Path_103" data-name="Path 103" d="M409.774,207.169s-.045-18.406-5-22.719c0,0-4.94,20.162,2.413,26.425Z" transform="translate(-245.527 -121.567)" fill="#b24b8e"/>
    <path id="Path_104" data-name="Path 104" d="M414.881,164.048l-4.825-30.638s-6.561,25.1,5.059,36.16Z" transform="translate(-248.072 -95.917)" fill="#b24b8e"/>
    <path id="Path_105" data-name="Path 105" d="M411.249,110.693S398.852,90.1,399.106,87.81c0,0,1.318,21.585,16.914,32.335Z" transform="translate(-243.495 -73.001)" fill="#b24b8e"/>
    <path id="Path_106" data-name="Path 106" d="M409.273,89.628S397.573,60.378,392.28,58c0,0,16.715,8.5,17.968,30.783Z" transform="translate(-240.067 -58.02)" fill="#b24b8e"/>
    <path id="Path_107" data-name="Path 107" d="M412.576,176.55l-.8-.249c9.874-32.2,12.337-52.73,6.935-57.874l.577-.607C425.017,123.252,422.694,143.558,412.576,176.55Z" transform="translate(-249.866 -88.082)" fill="#444053"/>
    <path id="Path_108" data-name="Path 108" d="M357.534,308.852l-1.184-.418c1.045-2.95,2.179-5.945,3.363-8.895,10.307-25.7,19.077-49.581,24.7-67.932l1.03-.5c-5.636,18.351-14.252,43.174-24.569,68.9C359.7,302.943,358.574,305.917,357.534,308.852Z" transform="translate(-222.01 -145.016)" fill="#444053"/>
    <path id="Path_109" data-name="Path 109" d="M370.228,561.849c-.159-.179-16.167-18.2-27.32-48.97a181.28,181.28,0,0,1-10.795-56.1c-.761-23.943,4.258-50.681,12.869-74.962l.935,1.094c-19.321,54.5-11.645,101.207-1.463,129.328,11.039,30.489,26.863,48.313,27.017,48.492Z" transform="translate(-209.792 -220.754)" fill="#444053"/>
    <path id="Path_110" data-name="Path 110" d="M251.55,735.8s-18.928-1.139-16.695,12.123a3.235,3.235,0,0,0,1.681,3.408s.03-.995,1.94-.652a8.72,8.72,0,0,0,2.054.1,4.288,4.288,0,0,0,2.517-1.035h0s5.318-2.2,7.387-10.894c0,0,1.532-1.9,1.467-2.383l-3.194,1.363a5.713,5.713,0,0,1,.234,4.218s-.1-4.134-.716-4.039c-.124,0-1.661.8-1.661.8s1.88,4.014.463,6.93c0,0,.537-4.945-1.045-6.641l-2.248,1.313s2.194,4.144.706,7.526c0,0,.378-5.188-1.179-7.208l-2.04,1.592s2.059,4.084.806,6.89c0,0-.164-6.039-1.249-6.5a12.474,12.474,0,0,0-2.055,2.219s1.413,2.985.537,4.532c0,0-.537-4.024-.995-4.044a13.391,13.391,0,0,0-1.96,4.477,9.68,9.68,0,0,1,1.527-4.746,5.328,5.328,0,0,0-2.716,1.408s.274-1.885,3.154-2.05a13.609,13.609,0,0,1,1.861-2.149,11.664,11.664,0,0,0-4.6.532s1.527-1.776,5.129-.995l1.99-1.641s-3.771-.5-5.373.055c0,0,1.841-1.572,5.915-.428l2.189-1.308a19.906,19.906,0,0,0-5.134-.443s2.025-1.089,5.775.09l1.567-.7s-2.358-.463-3.044-.537-.731-.264-.731-.264a8.154,8.154,0,0,1,4.427.5S251.6,736,251.55,735.8Z" transform="translate(-160.862 -398.63)" fill="#e6d111"/>
    <path id="Path_111" data-name="Path 111" d="M140.957,748.165s-18.9-1.139-16.69,12.123a3.228,3.228,0,0,0,1.676,3.407s.035-.995,1.945-.652a8.46,8.46,0,0,0,2.054.1,4.259,4.259,0,0,0,2.512-1.035h0s5.323-2.2,7.392-10.894c0,0,1.527-1.9,1.492-2.383l-3.194,1.363a5.712,5.712,0,0,1,.234,4.218s-.1-4.134-.716-4.039c-.124,0-1.661.8-1.661.8s1.88,4.014.463,6.93c0,0,.537-4.945-1.05-6.641l-2.248,1.313s2.194,4.144.706,7.527c0,0,.383-5.188-1.179-7.208l-2.035,1.592s2.059,4.084.806,6.89c0,0-.164-6.039-1.249-6.5a12.475,12.475,0,0,0-2.054,2.219s1.413,2.985.537,4.532c0,0-.537-4.024-.995-4.044a13.5,13.5,0,0,0-1.96,4.477,9.71,9.71,0,0,1,1.532-4.746,5.352,5.352,0,0,0-2.721,1.408s.279-1.885,3.159-2.05a13.379,13.379,0,0,1,1.86-2.144,11.622,11.622,0,0,0-4.6.527s1.527-1.776,5.129-.995l1.99-1.641s-3.771-.5-5.373.055c0,0,1.841-1.572,5.915-.428l2.189-1.308a19.935,19.935,0,0,0-5.134-.443s2.025-1.089,5.775.09l1.567-.7s-2.358-.463-3.049-.537-.726-.264-.726-.264a8.213,8.213,0,0,1,4.427.5A20.468,20.468,0,0,0,140.957,748.165Z" transform="translate(-105.288 -404.847)" fill="#b4d9e1"/>
    <path id="Path_112" data-name="Path 112" d="M202.593,777.205s-18.9-1.139-16.695,12.123a3.235,3.235,0,0,0,1.681,3.408s.035-.995,1.94-.652a8.739,8.739,0,0,0,2.059.1,4.288,4.288,0,0,0,2.512-1.035h0s5.318-2.2,7.387-10.894c0,0,1.532-1.9,1.492-2.383l-3.194,1.363a5.74,5.74,0,0,1,.234,4.218s-.1-4.134-.721-4.039c-.124,0-1.657.8-1.657.8s1.875,4.01.458,6.93c0,0,.537-4.945-1.045-6.641l-2.249,1.313s2.194,4.144.706,7.526c0,0,.383-5.188-1.179-7.208l-2.04,1.592s2.064,4.084.806,6.89c0,0-.164-6.039-1.244-6.5a12.291,12.291,0,0,0-2.055,2.219s1.413,2.985.532,4.532c0,0-.537-4.024-.995-4.044a13.391,13.391,0,0,0-1.96,4.477,9.68,9.68,0,0,1,1.527-4.746,5.328,5.328,0,0,0-2.716,1.408s.274-1.885,3.159-2.049a12.365,12.365,0,0,1,1.856-2.149,11.663,11.663,0,0,0-4.6.532s1.532-1.776,5.129-.97l1.99-1.642s-3.771-.5-5.373.055c0,0,1.846-1.572,5.915-.428l2.194-1.308a20.007,20.007,0,0,0-5.119-.428s2.02-1.089,5.775.09l1.562-.7s-2.353-.463-3.044-.537-.726-.264-.726-.264a8.152,8.152,0,0,1,4.427.5S202.648,777.414,202.593,777.205Z" transform="translate(-136.261 -419.441)" fill="#b24b8e"/>
    <ellipse id="Ellipse_5" data-name="Ellipse 5" cx="13.396" cy="2.263" rx="13.396" ry="2.263" transform="translate(38.181 372.425)" fill="#6c63ff" opacity="0.1"/>
    <ellipse id="Ellipse_6" data-name="Ellipse 6" cx="13.396" cy="2.263" rx="13.396" ry="2.263" transform="translate(463.098 372.425)" fill="#6c63ff" opacity="0.1"/>
    <ellipse id="Ellipse_7" data-name="Ellipse 7" cx="13.396" cy="2.263" rx="13.396" ry="2.263" transform="translate(334.809 385.453)" fill="#6c63ff" opacity="0.1"/>
    <ellipse id="Ellipse_8" data-name="Ellipse 8" cx="13.396" cy="2.263" rx="13.396" ry="2.263" transform="translate(484.284 352.805)" fill="#6c63ff" opacity="0.1"/>
    <ellipse id="Ellipse_9" data-name="Ellipse 9" cx="13.396" cy="2.263" rx="13.396" ry="2.263" transform="translate(64.253 351.392)" fill="#6c63ff" opacity="0.1"/>
    <ellipse id="Ellipse_10" data-name="Ellipse 10" cx="13.396" cy="2.263" rx="13.396" ry="2.263" transform="translate(9.22 357.745)" fill="#6c63ff" opacity="0.1"/>
    <rect id="Rectangle_30" data-name="Rectangle 30" width="214.577" height="319.058" rx="9.8" transform="translate(150.611 39.657)" fill="#b4d9e1"/>
    <rect id="Rectangle_31" data-name="Rectangle 31" width="177.955" height="62.724" rx="29.21" transform="translate(170.251 67.082)" opacity="0.1"/>
    <rect id="Rectangle_32" data-name="Rectangle 32" width="175.258" height="60.665" rx="10.2" transform="translate(171.395 68.305)" fill="#e6e8ec"/>
    <rect id="Rectangle_33" data-name="Rectangle 33" width="35.389" height="39.319" rx="10.79" transform="translate(176.449 155.932)" opacity="0.1"/>
    <rect id="Rectangle_34" data-name="Rectangle 34" width="35.389" height="39.319" rx="10.79" transform="translate(219.703 155.932)" opacity="0.1"/>
    <rect id="Rectangle_35" data-name="Rectangle 35" width="35.389" height="39.319" rx="10.79" transform="translate(262.957 155.932)" opacity="0.1"/>
    <rect id="Rectangle_36" data-name="Rectangle 36" width="35.389" height="39.319" rx="17.694" transform="translate(306.21 156.768)" opacity="0.1"/>
    <rect id="Rectangle_37" data-name="Rectangle 37" width="35.389" height="39.319" rx="10.79" transform="translate(306.21 155.932)" fill="#e6d111"/>
    <rect id="Rectangle_38" data-name="Rectangle 38" width="35.389" height="39.319" rx="10.79" transform="translate(176.449 199.186)" opacity="0.1"/>
    <rect id="Rectangle_39" data-name="Rectangle 39" width="35.389" height="39.319" rx="10.79" transform="translate(219.703 199.186)" opacity="0.1"/>
    <rect id="Rectangle_40" data-name="Rectangle 40" width="35.389" height="39.319" rx="10.79" transform="translate(262.957 199.186)" opacity="0.1"/>
    <rect id="Rectangle_41" data-name="Rectangle 41" width="35.389" height="39.319" rx="10.79" transform="translate(176.449 246.932)" opacity="0.1"/>
    <rect id="Rectangle_42" data-name="Rectangle 42" width="35.389" height="39.319" rx="10.79" transform="translate(219.703 246.932)" opacity="0.1"/>
    <rect id="Rectangle_43" data-name="Rectangle 43" width="35.389" height="39.319" rx="10.79" transform="translate(262.957 246.932)" opacity="0.1"/>
    <rect id="Rectangle_44" data-name="Rectangle 44" width="35.389" height="39.319" rx="10.79" transform="translate(262.957 294.678)" opacity="0.1"/>
    <rect id="Rectangle_45" data-name="Rectangle 45" width="35.389" height="39.319" rx="17.694" transform="translate(306.21 200.022)" opacity="0.1"/>
    <rect id="Rectangle_46" data-name="Rectangle 46" width="35.389" height="39.319" rx="11.3" transform="translate(306.21 199.186)" fill="#e08849"/>
    <path id="Path_165" data-name="Path 165" d="M11.3,0H24.089a11.3,11.3,0,0,1,11.3,11.3V28.019a11.3,11.3,0,0,1-11.3,11.3H11.3A11.3,11.3,0,0,1,0,28.019V11.3A11.3,11.3,0,0,1,11.3,0Z" transform="translate(306.21 199.186)" opacity="0.2"/>
    <rect id="Rectangle_48" data-name="Rectangle 48" width="78.643" height="39.319" rx="10.04" transform="translate(176.449 294.678)" opacity="0.1"/>
    <rect id="Rectangle_49" data-name="Rectangle 49" width="38.757" height="87.07" rx="11.66" transform="translate(302.838 246.932)" opacity="0.1"/>
    <rect id="Rectangle_50" data-name="Rectangle 50" width="15.491" height="1.676" transform="translate(323.293 118.374)"/>
    <rect id="Rectangle_51" data-name="Rectangle 51" width="15.491" height="1.676" transform="translate(300.614 118.374)" fill="#6c63ff"/>
    <rect id="Rectangle_52" data-name="Rectangle 52" width="15.491" height="1.676" transform="translate(277.93 118.374)" fill="#6c63ff"/>
    <rect id="Rectangle_53" data-name="Rectangle 53" width="15.491" height="1.676" transform="translate(255.251 118.374)" fill="#6c63ff"/>
    <path id="Path_113" data-name="Path 113" d="M862.638,460.265a21.108,21.108,0,0,0,0-10.745v-5.069s1.826-9.909-6.323-16.267l-5.4-4.766s-3.029-2.6-3.91-2.766a3.97,3.97,0,0,0-.5-.075l-.159-.095A16.257,16.257,0,0,1,845.162,418a2.3,2.3,0,0,0,1.925-.657,2.487,2.487,0,0,0,.453-.761h0c.313-.7.368-1.552.632-2.3a5.473,5.473,0,0,1,.995-1.652c-.055.09-.114.174-.164.269.766-.955,1.766-1.771,2.487-2.776a6.223,6.223,0,0,0,.393-.622c-.03.045-.07.085-.1.129a14.143,14.143,0,0,0,1.587-5.4,4.855,4.855,0,0,0,.03-1.93,7.027,7.027,0,0,0-.537-1.224c-1.174-2.423-1.154-5.472-3.03-7.407-1.413-1.448-3.552-1.89-5.566-2.139s-4.134-.393-5.865-1.448a6.187,6.187,0,0,0-1.587-.871,1.3,1.3,0,0,0-1.557.577,1.023,1.023,0,0,1-.209.423.676.676,0,0,1-.6.035l-2.681-.716.03.134h-.07l.1.423a.229.229,0,0,1,.254.144l-.433.667a6.72,6.72,0,0,1-2.418-.5.566.566,0,0,0,0,.129h-.04c-.05.756.811,1.249,1.075,1.96a1.494,1.494,0,0,1,0,.96,2.1,2.1,0,0,1-.5.766c-.95.94-2.169.756-3.263,1.348a.706.706,0,0,0-.4.443.323.323,0,0,0-.035.244.577.577,0,0,0,.224.279,4.974,4.974,0,0,0,1.04.647c-.109.1-.214.2-.313.3a11.989,11.989,0,0,0,4.144,19.56c.04.209.07.423.1.647v.065l.03.289-3.611,1.537a2.875,2.875,0,0,1-2.587-1.666c-.841-1.736-3.811,0-3.811,0s-9.059-.677-12.436.995c0,0-5.407-2.268-6.168-2.423s-1.9-.756-2.433-.6-1.219-.995-1.6-.91-.532-.756-1.751-1.06-1.677.08-3.044-1.283-12.491-6.736-12.491-6.736l-4.994-4.109-5.328-4.238-.095.174c-.035-.124-.07-.254-.1-.393a51.031,51.031,0,0,0-1.99-6.213c-.343-.821-.5-1.855-.96-1.308-.284.328-.766-.393-1.492-.88a1.259,1.259,0,0,0-1.876.547h0c-4.149,6.507-5.636,6.964-3.233,9.357,2.144,2.124,3.567,3.98,5.313,4.567l.209.065a.223.223,0,0,1-.114,0l10.128,12.108s7.308,6.358,12.337,8.4,4.641,2.651,4.641,2.651,15.232,7.716,17.59,7.566,1.905,15.814.915,18.406-2.587,21.187-2.587,21.187-1.527,3.935.075,6.656c0,0,.353,5.213.035,6.467a22.228,22.228,0,0,0-3.691,9.506,5.529,5.529,0,0,1-.06.577,1.344,1.344,0,0,1-.358.294l.338-.1a19.148,19.148,0,0,1-.995,4.567,18.56,18.56,0,0,0-1.259,6.5v12.018l-.995,7.462s-1.219,5.646,0,6.964a3.224,3.224,0,0,1,.667,2.318,4.317,4.317,0,0,0,.776,2.706,2.025,2.025,0,0,1,.5,1.736c-.4,1.308.6,15.232.6,15.232s-.294,3.835-.7,4.039.7,4.437.7,4.437-4.114,3.433-3.064,5.248l1.05,1.612-.279.274-.169.174a1.622,1.622,0,0,0-1.05-.2,40.111,40.111,0,0,1-4.139,3.686,44.943,44.943,0,0,1-6.9,3.278l-3.98.323h-.075s-1.905-.179-.836,2.771,10.631,2.044,10.631,2.044l5.581-.88s9.949.05,12.8-.582c1.189-.264,1.492-.9,1.393-1.542h0l-.03-.03a3.979,3.979,0,0,0-.816-1.666.631.631,0,0,0-.07-.09l.179-2.04c4.223-2.433-1.194-7.218-1.194-7.218a50.1,50.1,0,0,1,2.806-5.343c.95-1.308.95-20.585.95-20.585s.5-6.964-.811-8.576a2.9,2.9,0,0,1,1.423-2.622c.94-.642,3.781-9.482,6.009-16.819l1.4,8.646s-.3,4.139.607,5.348a2.059,2.059,0,0,1,.378,1.612,7.263,7.263,0,0,0,.2,3.482,2.3,2.3,0,0,0,.741,1.244c.811.4.861,1.841,1.164,2.144s2.184-.428,2.283.682a25.115,25.115,0,0,1,0,2.925l.612,17.958s-.995,1.492-1.219,5.472a7.038,7.038,0,0,1-.731,3.214,1.647,1.647,0,0,0,.149,1.93l.174.2-.751.577a1.657,1.657,0,0,0-.468,2.045,1.607,1.607,0,0,0-.463,1.741,1.212,1.212,0,0,0,.129.284,2.826,2.826,0,0,0-1.517.751,12.436,12.436,0,0,1-2.681,2.7,51.609,51.609,0,0,0-4.273,3.661,6.137,6.137,0,0,1-2.487,1.99,4.1,4.1,0,0,1-.751.224c-1.99.408-1.368,2.487.254,2.831s7,1.99,11.193,1.03a3.953,3.953,0,0,0,3.069-.428,45.1,45.1,0,0,1,5.9-2.059s2.283,0,2.592-.905a3.555,3.555,0,0,0,.129-.885l.065-.065-.06-.055a12.066,12.066,0,0,0-.154-2.025c-.06-.348-.124-.657-.184-.905-.194-.756-.557-1.736-.711-2.149a.749.749,0,0,0,.07-.1c.871-1.492-.577-5.034-.577-5.034a9.645,9.645,0,0,1,1.716-2.035c.811-.607,2.945-16.346,2.945-16.346s-.1-4.034.995-5.85-1.522-12.809-1.522-12.809-1.119-2.522-.711-3.432-.408-4.238-.408-4.238v-3.98a4.394,4.394,0,0,0-.234-1.393,6.6,6.6,0,0,1-.274-4.019c.711-1.816,2.333-13.013,2.333-13.013s-1.268-4.94.592-8.875a7.718,7.718,0,0,1,.5-.91c1.378-2.164.965-6.009.284-9.108-.1-.5-.214-.945-.328-1.378-.045-.189-.095-.368-.144-.547l.219-.09a6.449,6.449,0,0,1,.07-.8,5.592,5.592,0,0,0,3.661-2.532s4.646-5.223,8.755-7.417S861.7,470.3,861.7,470.3c-.607-1.06,1.089-5.373,1.089-5.373Zm-16.192-39.612Zm2.791,46.577-4.4,5.1v-.03c-1.144-1.592,1.065-5.149,1.065-5.149l3.656-8.158a4.616,4.616,0,0,1-.5,2.4c-.995,1.363,1.831,3.636,1.831,3.636C849.385,465.035,849.236,467.229,849.236,467.229Z" transform="translate(-424.93 -224.212)" fill="url(#linear-gradient)"/>
    <path id="Path_114" data-name="Path 114" d="M772.948,402.088l-2.4,4.661a9.449,9.449,0,0,1-2.234-.468,8.457,8.457,0,0,1-5.248-4.537c-2.144-4.736,1.4-7.8,3.054-8.7s3.189-1.935,4.427,1.035a51.373,51.373,0,0,1,1.945,6.173C772.779,401.342,772.948,402.088,772.948,402.088Z" transform="translate(-426.066 -225.925)" fill="#cc818c"/>
    <path id="Path_115" data-name="Path 115" d="M917.871,445.82l-3.835,5.711s-18.122,8.646-14.66-1.492A22.781,22.781,0,0,0,900.8,440.03v-.065a8.051,8.051,0,0,0-1.423-4.059s17.665-9.044,15.033-2.86a8.515,8.515,0,0,0-.622,4.069,13.869,13.869,0,0,0,1.9,5.646A18.768,18.768,0,0,0,917.871,445.82Z" transform="translate(-494.684 -245.411)" fill="#cc818c"/>
    <path id="Path_116" data-name="Path 116" d="M885.079,634.327s2.607,10.944,1.492,12.73-.995,5.815-.995,5.815-2.1,15.64-2.905,16.237a9.558,9.558,0,0,0-1.706,1.99s1.433,3.542.572,5a1.214,1.214,0,0,1-.572.5c-1.343.567-6.308-1.95-9.133-3.482a1.612,1.612,0,0,1-.289-2.627,1.642,1.642,0,0,1,.458-2.03l.746-.577-.174-.2a1.647,1.647,0,0,1-.149-1.92,6.968,6.968,0,0,0,.721-3.189c.2-3.91,1.2-5.412,1.2-5.412l-.6-17.849a24.776,24.776,0,0,0,0-2.905c-.1-1.1-1.955-.373-2.254-.677s-.353-1.726-1.154-2.129a2.283,2.283,0,0,1-.726-1.239,7.158,7.158,0,0,1-.2-3.482,2.054,2.054,0,0,0-.373-1.6c-.9-1.2-.6-5.308-.6-5.308l-1.383-8.6c-2.2,7.293-5,16.078-5.935,16.714a2.89,2.89,0,0,0-1.4,2.6c1.3,1.607.8,8.526.8,8.526s0,19.142-.94,20.45A49.49,49.49,0,0,0,856.813,667s5.372,4.781,1.144,7.193h-.045c-4.313,2.408-13.232-4.308-13.232-4.308l.93-.93.274-.274-1.055-1.572c-1.035-1.806,3.025-5.213,3.025-5.213s-1.084-4.213-.686-4.412.686-4.009.686-4.009-.995-13.834-.587-15.138a2.04,2.04,0,0,0-.5-1.726,4.293,4.293,0,0,1-.766-2.686,3.194,3.194,0,0,0-.662-2.3c-1.2-1.3,0-6.915,0-6.915l.995-7.422V605.5a18.789,18.789,0,0,1,1.259-6.651,19.9,19.9,0,0,0,1.094-5.338c.328-3.8,2.373-7.492,3.746-9.6.726-1.114,1.268-1.781,1.268-1.781l32.076-1.254s.5,1.428,1.035,3.413c.109.433.219.89.323,1.368.672,3.084,1.074,6.9-.284,9.054a8.409,8.409,0,0,0-.5.905c-1.836,3.91-.582,8.82-.582,8.82s-1.6,11.123-2.3,12.934a6.5,6.5,0,0,0,.274,3.98,4.53,4.53,0,0,1,.224,1.388v3.965s.806,3.308.4,4.213S885.079,634.327,885.079,634.327Z" transform="translate(-467.408 -320.79)" fill="#444053"/>
    <path id="Path_117" data-name="Path 117" d="M925.488,600.184a7.594,7.594,0,0,0-.5.9l-1.806-.1c.174-.93-1.055-9.651-1.055-9.651l3.636-.2C926.438,594.209,926.846,598.03,925.488,600.184Z" transform="translate(-506.34 -325.942)" opacity="0.1"/>
    <path id="Path_118" data-name="Path 118" d="M926.088,599.574a8.442,8.442,0,0,0-.5.905l-1.806-.1c.174-.925-1.055-9.651-1.055-9.651l3.636-.2C927.043,593.6,927.446,597.425,926.088,599.574Z" transform="translate(-506.642 -325.635)" fill="#444053"/>
    <path id="Path_119" data-name="Path 119" d="M926.088,599.574a8.442,8.442,0,0,0-.5.905l-1.806-.1c.174-.925-1.055-9.651-1.055-9.651l3.636-.2C927.043,593.6,927.446,597.425,926.088,599.574Z" transform="translate(-506.642 -325.635)" opacity="0.05"/>
    <path id="Path_120" data-name="Path 120" d="M908.237,768.387a1.214,1.214,0,0,1-.572.5c-1.343.567-6.308-1.95-9.133-3.482a1.627,1.627,0,0,1-.751-.9c1.612-.294,2.666,1.492,2.666,1.492a2.378,2.378,0,0,1,3.308.8c1.378,2.03,4.333,1.174,4.333,1.174Z" transform="translate(-494.103 -413.055)" opacity="0.1"/>
    <path id="Path_121" data-name="Path 121" d="M896.258,774.848c-.3.905-2.557.905-2.557.905a48.126,48.126,0,0,0-5.84,2.054,3.993,3.993,0,0,1-3.029.428c-4.134.95-9.452-.7-11.053-1.03s-2.229-2.4-.249-2.806a4.009,4.009,0,0,0,.741-.229,6.049,6.049,0,0,0,2.487-1.99,50.884,50.884,0,0,1,4.223-3.636,12.345,12.345,0,0,0,2.646-2.681c2.358-2.079,4.034.776,4.034.776a2.378,2.378,0,0,1,3.308.806c1.378,2.03,4.333,1.169,4.333,1.169s.532,1.358.781,2.333c.06.249.124.557.184.905A8.218,8.218,0,0,1,896.258,774.848Z" transform="translate(-481.294 -413.372)" fill="#b24b4b"/>
    <circle id="Ellipse_11" data-name="Ellipse 11" cx="0.274" cy="0.274" r="0.274" transform="translate(407.796 354.591)" fill="#575988"/>
    <circle id="Ellipse_12" data-name="Ellipse 12" cx="0.274" cy="0.274" r="0.274" transform="translate(405.443 356.795)" fill="#575988"/>
    <circle id="Ellipse_13" data-name="Ellipse 13" cx="0.274" cy="0.274" r="0.274" transform="translate(403.05 358.775)" fill="#575988"/>
    <circle id="Ellipse_14" data-name="Ellipse 14" cx="0.274" cy="0.274" r="0.274" transform="translate(404.289 357.889)" fill="#575988"/>
    <circle id="Ellipse_15" data-name="Ellipse 15" cx="0.274" cy="0.274" r="0.274" transform="translate(406.671 355.626)" fill="#575988"/>
    <path id="Path_122" data-name="Path 122" d="M896.258,781.655c-.3.905-2.557.905-2.557.905a48.13,48.13,0,0,0-5.84,2.055,3.993,3.993,0,0,1-3.029.428c-4.134.95-9.452-.7-11.053-1.03s-2.229-2.4-.249-2.806a4.013,4.013,0,0,0,.741-.229,19.241,19.241,0,0,0,5.422,1.03c4.084.174,7.318,0,7.318,0l4.134-1.328a6.908,6.908,0,0,1,2.557-.925,6.685,6.685,0,0,0,2.542-1.1A7.8,7.8,0,0,1,896.258,781.655Z" transform="translate(-481.294 -420.179)" fill="#dce6f2"/>
    <path id="Path_123" data-name="Path 123" d="M899.1,786.116a3.429,3.429,0,0,1-.687-.065l.06-.294a4.377,4.377,0,0,0,2.487-.348c.368-.144.736-.318,1.094-.5a13.735,13.735,0,0,1,1.308-.567l.408-.139c.224-.08.453-.154.671-.249.124-.05.249-.109.368-.169a4.228,4.228,0,0,1,.925-.353,4.562,4.562,0,0,1,.5-.065,4.417,4.417,0,0,0,.458-.055,4.307,4.307,0,0,0,.871-.323,4.211,4.211,0,0,1,.935-.348l.219-.035a1.069,1.069,0,0,0,.647-.239l.224.2a1.349,1.349,0,0,1-.821.333l-.209.035a4.023,4.023,0,0,0-.87.323,4.563,4.563,0,0,1-.935.343,3.314,3.314,0,0,1-.5.06,4.442,4.442,0,0,0-.468.06,3.982,3.982,0,0,0-.861.333l-.378.174c-.229.094-.468.174-.7.254l-.4.139c-.438.159-.866.363-1.283.557s-.736.348-1.114.5A5.428,5.428,0,0,1,899.1,786.116Z" transform="translate(-494.42 -422.048)" fill="#575988" opacity="0.5"/>
    <path id="Path_124" data-name="Path 124" d="M901.73,686.358a7.442,7.442,0,0,1,5.641-2.985,22.5,22.5,0,0,0,5.084-.4A12.728,12.728,0,0,1,908.6,684.5,67.329,67.329,0,0,0,901.73,686.358Z" transform="translate(-496.088 -372.095)" opacity="0.1"/>
    <path id="Path_125" data-name="Path 125" d="M904.15,689.672a8.377,8.377,0,0,1,2.955-1.353c1.075-.05,1.99-.149,1.99-.149a5.749,5.749,0,0,1-1.652.8C906.563,689.22,904.15,689.672,904.15,689.672Z" transform="translate(-497.304 -374.709)" opacity="0.1"/>
    <path id="Path_126" data-name="Path 126" d="M905,693s2.831.224,2.855.995" transform="translate(-497.732 -377.136)" opacity="0.1"/>
    <path id="Path_127" data-name="Path 127" d="M851.93,602.643c.149.025,2.681-2.632,2.855-3.681a2.572,2.572,0,0,1,1.1-1.622s1.632.652.179,2.651A8.052,8.052,0,0,1,851.93,602.643Z" transform="translate(-471.062 -329.062)" opacity="0.1"/>
    <path id="Path_128" data-name="Path 128" d="M914.8,433.026c-.577,1.363-1.084,1.492-.995,2.791a9.948,9.948,0,0,1-2.293,1.806c-1.791,1.065-3.741,3.149-5.969,3.149a11.893,11.893,0,0,1-4.363-.826,8.051,8.051,0,0,0-1.423-4.059S917.43,426.842,914.8,433.026Z" transform="translate(-495.098 -245.4)" opacity="0.1"/>
    <path id="Path_129" data-name="Path 129" d="M911.318,413.479a11.939,11.939,0,1,1-11.939-11.939,11.939,11.939,0,0,1,11.939,11.939Z" transform="translate(-488.907 -230.664)" fill="#cc818c"/>
    <path id="Path_130" data-name="Path 130" d="M917.871,455.06l-3.835,5.711s-18.122,8.646-14.66-1.492A22.781,22.781,0,0,0,900.8,449.27h.03a9.589,9.589,0,0,1,.363,2.3c.055,1.562.094,3.537,3.98,4.189a10.805,10.805,0,0,0,10.526-3.746A18.758,18.758,0,0,0,917.871,455.06Z" transform="translate(-494.684 -254.651)" opacity="0.1"/>
    <path id="Path_131" data-name="Path 131" d="M778.715,410.23l-2.4,4.661a9.45,9.45,0,0,1-2.234-.468l-.209-.249c.995.378,4.283-5.865,4.283-5.865l.1.085C778.546,409.484,778.715,410.23,778.715,410.23Z" transform="translate(-431.833 -234.066)" opacity="0.1"/>
    <path id="Path_132" data-name="Path 132" d="M894.534,584.323c-7.74,3.363-34.513.5-34.513.5a3.671,3.671,0,0,0,.134-.876c.726-1.114,1.268-1.781,1.268-1.781L893.5,580.91S894.021,582.338,894.534,584.323Z" transform="translate(-475.127 -320.806)" opacity="0.1"/>
    <path id="Path_133" data-name="Path 133" d="M838.269,429.286l-3.572,1.527a2.831,2.831,0,0,1-2.552-1.657c-.831-1.726-3.761,0-3.761,0s-8.954-.677-12.257.995c0,0-5.338-2.258-6.089-2.408s-1.88-.751-2.408-.6-1.2-.995-1.577-.9-.527-.751-1.731-1.055-1.652.075-2.985-1.278-12.332-6.691-12.332-6.691l-4.975-4.059-5.263-4.208s-3.308,6.238-4.288,5.86l10,12.033s7.218,6.313,12.183,8.342,4.587,2.632,4.587,2.632,15.038,7.671,17.366,7.522,1.89,15.695.9,18.252-2.552,21.052-2.552,21.052-1.492,3.91.075,6.616c0,0,.373,5.567,0,6.542,0,0,26.937,2.88,34.583-.527,0,0,1.129-12.481,0-14.058s1.055-5.094,1.055-5.094l4.81-10.75,11.73-11.8s1.8-9.85-6.243-16.162l-5.338-4.741s-2.985-2.582-3.86-2.746-.552,0-.552,0a10.77,10.77,0,0,1-10.626,3.875c-3.87-.652-3.91-2.627-3.98-4.184A9.744,9.744,0,0,0,838.269,429.286Z" transform="translate(-432.139 -234.388)" fill="#b24b8e"/>
    <path id="Path_134" data-name="Path 134" d="M912.208,531.19s-16.545.677-19.849,5.875c0,0,4.288-2.035,8.119-1.433S912.208,531.19,912.208,531.19Z" transform="translate(-491.379 -295.819)" opacity="0.1"/>
    <path id="Path_135" data-name="Path 135" d="M895.53,563.811s7.82.527,9.477-1.129,1.661-2.632,1.661-2.632Z" transform="translate(-492.972 -310.322)" opacity="0.1"/>
    <path id="Path_136" data-name="Path 136" d="M932.853,499.14s-6.621,7.82,1.428,11.2Z" transform="translate(-510.442 -279.713)" opacity="0.1"/>
    <path id="Path_137" data-name="Path 137" d="M856.69,468.77S859.1,473.68,860.3,474Z" transform="translate(-473.454 -264.45)" opacity="0.1"/>
    <path id="Path_138" data-name="Path 138" d="M840.37,464.53s6.014,5.417,7.143,5.94C847.513,470.47,841.27,464.53,840.37,464.53Z" transform="translate(-465.252 -262.32)" opacity="0.1"/>
    <path id="Path_139" data-name="Path 139" d="M885.247,454.11s-5.79,8.646-2.03,13.929C883.217,468.019,881.113,461.776,885.247,454.11Z" transform="translate(-486.147 -257.083)" opacity="0.1"/>
    <path id="Path_140" data-name="Path 140" d="M898.977,580.89l-1.771,1.666-.249.229-2.05,1.94c-.144.109-.289.219-.438.318-8.342,5.969-10.014-3.1-10.014-3.1s-3.681,2.408-4.208.453,8.571-4.736,9.949-4.587a1.779,1.779,0,0,0,.363,0,5.689,5.689,0,0,0,1.87-.662l.4-.214a15.919,15.919,0,0,0,1.348-.851Z" transform="translate(-485.281 -318.378)" fill="#cc818c"/>
    <path id="Path_141" data-name="Path 141" d="M915.3,413.473a11.939,11.939,0,0,1-5.82,10.277,6.781,6.781,0,0,1-.438-.871c-.428-.995-.692-2.069-1.124-3.069a9.452,9.452,0,0,0-1.99-2.925,1.269,1.269,0,0,0-.532-.368,1.433,1.433,0,0,0-1.094.3,5.029,5.029,0,0,1-1.666.731,1.771,1.771,0,0,1-1.671-.5,2.5,2.5,0,0,1-.269-2.084,25.966,25.966,0,0,0,.786-4.671,4.571,4.571,0,0,0-1.99-4.069c-1.214-.691-2.721-.5-4.069-.885a4.436,4.436,0,0,1-.612-.209,11.939,11.939,0,0,1,20.49,8.337Z" transform="translate(-492.611 -230.658)" opacity="0.1"/>
    <path id="Path_142" data-name="Path 142" d="M892.767,398.494c-.214.114-.453.323-.388.562a.567.567,0,0,0,.219.279,5.219,5.219,0,0,0,1.89.97c1.348.368,2.86.194,4.074.885a4.61,4.61,0,0,1,1.99,4.069,26.272,26.272,0,0,1-.781,4.666,2.509,2.509,0,0,0,.264,2.089,1.786,1.786,0,0,0,1.671.5,4.973,4.973,0,0,0,1.667-.726,1.448,1.448,0,0,1,1.1-.308,1.353,1.353,0,0,1,.532.368,9.452,9.452,0,0,1,1.99,2.93c.438.995.7,2.064,1.124,3.069a4.974,4.974,0,0,0,1.99,2.487,2.508,2.508,0,0,0,3.015-.318c.736-.816.677-1.935,1.025-2.915.6-1.706,2.263-2.776,3.308-4.248a13.357,13.357,0,0,0,1.811-5.741,4.718,4.718,0,0,0,.03-1.92,6.894,6.894,0,0,0-.527-1.214c-1.164-2.408-1.139-5.437-2.985-7.357-1.393-1.443-3.507-1.88-5.5-2.129s-4.079-.388-5.785-1.438a6.293,6.293,0,0,0-1.567-.866,1.283,1.283,0,0,0-1.542.577,1.025,1.025,0,0,1-.2.418.662.662,0,0,1-.592.035l-2.646-.711.3,1.333a6.626,6.626,0,0,1-2.811-.5c-.05.756.8,1.244,1.065,1.95a1.805,1.805,0,0,1-.5,1.831C895.05,398.086,893.852,397.9,892.767,398.494Z" transform="translate(-491.384 -225.927)" fill="#585268"/>
    <path id="Path_143" data-name="Path 143" d="M858.087,761.979l-.109,1.2h-.045c-4.313,2.408-13.232-4.308-13.232-4.308l.93-.93a1.622,1.622,0,0,1,.408,1.259l1.821.1,2.179,2.353s5.895.682,7.492.3Z" transform="translate(-467.428 -409.771)" opacity="0.1"/>
    <path id="Path_144" data-name="Path 144" d="M840.831,768.506c-2.806.627-12.63.582-12.63.582l-5.512.871s-9.452.905-10.5-2.03.826-2.751.826-2.751h.075l3.935-.318a45.024,45.024,0,0,0,6.82-3.258,39.587,39.587,0,0,0,4.084-3.661s1.642-.318,1.612,1.582l1.821.1,2.179,2.358s5.895.681,7.492.3h.557l-.254,2.91.07.085C841.781,765.73,843.338,767.949,840.831,768.506Z" transform="translate(-450.929 -409.761)" fill="#ff748f"/>
    <circle id="Ellipse_16" data-name="Ellipse 16" cx="0.274" cy="0.274" r="0.274" transform="translate(379.456 351.178)" fill="#575988"/>
    <circle id="Ellipse_17" data-name="Ellipse 17" cx="0.274" cy="0.274" r="0.274" transform="translate(372.387 354.243)" fill="#575988"/>
    <circle id="Ellipse_18" data-name="Ellipse 18" cx="0.274" cy="0.274" r="0.274" transform="translate(368.746 355.347)" fill="#575988"/>
    <circle id="Ellipse_19" data-name="Ellipse 19" cx="0.274" cy="0.274" r="0.274" transform="translate(374.242 353.656)" fill="#575988"/>
    <circle id="Ellipse_20" data-name="Ellipse 20" cx="0.274" cy="0.274" r="0.274" transform="translate(370.561 354.795)" fill="#575988"/>
    <circle id="Ellipse_21" data-name="Ellipse 21" cx="0.274" cy="0.274" r="0.274" transform="translate(376.118 352.785)" fill="#575988"/>
    <circle id="Ellipse_22" data-name="Ellipse 22" cx="0.274" cy="0.274" r="0.274" transform="translate(377.973 351.979)" fill="#575988"/>
    <path id="Path_145" data-name="Path 145" d="M840.831,775.836c-2.806.627-12.63.582-12.63.582l-5.512.871s-9.452.905-10.5-2.03.826-2.751.826-2.751h.075c.6.781,1.811,1.666,4.184,1.711l6.8.274,7.039-.5s6.6-.194,7.671-.423a15.706,15.706,0,0,0,2.627-.965C841.781,773.06,843.338,775.279,840.831,775.836Z" transform="translate(-450.929 -417.091)" fill="#dce6f2"/>
    <path id="Path_146" data-name="Path 146" d="M833.564,778.2a4.078,4.078,0,0,1-1.114-.139l.08-.289a5.522,5.522,0,0,0,2.8-.124c.333-.09.662-.184.995-.284a15.743,15.743,0,0,1,1.836-.463,15.206,15.206,0,0,1,3.025-.09h.214a46.573,46.573,0,0,0,9.024-.4,3.378,3.378,0,0,0,1.93-.776l.214.214a3.661,3.661,0,0,1-2.094.861,46.8,46.8,0,0,1-9.084.4h-.219a14.969,14.969,0,0,0-2.985.09,14.8,14.8,0,0,0-1.8.453c-.333.1-.667.2-.995.284A7.559,7.559,0,0,1,833.564,778.2Z" transform="translate(-461.272 -418.661)" fill="#575988" opacity="0.5"/>
    <path id="Path_147" data-name="Path 147" d="M911.688,580.885l-1.771,1.667-4.4-5.631a15.926,15.926,0,0,0,1.348-.851Z" transform="translate(-497.993 -318.373)" opacity="0.1"/>
    <path id="Path_148" data-name="Path 148" d="M931.345,493l3.482,4.81v5.039a21.092,21.092,0,0,1,0,10.675l.169,4.661s-1.676,4.283-1.074,5.338c0,0-.3,3.159-4.358,5.338S920.9,536.2,920.9,536.2s-1.731,3.308-6.392,2.557l-4.437,1.88L904.96,534.1l6.915-3.761s2.408-3.228,3.835-3.079l5.865-6.845s.149-2.179,1.652-2.179c0,0-2.781-2.253-1.806-3.607s.154-7.372.154-7.372Z" transform="translate(-497.711 -276.627)" fill="#9e3278"/>
    <path id="Path_149" data-name="Path 149" d="M945,536.911s7.895-.149,8.87,1.88S947.383,535.782,945,536.911Z" transform="translate(-517.833 -298.61)" opacity="0.1"/>
    <path id="Path_150" data-name="Path 150" d="M907.4,583.458a2.064,2.064,0,0,1-.035.393,2.656,2.656,0,0,1-2.487,2.259h-.139a2.656,2.656,0,0,1-2.656-2.656,2.585,2.585,0,0,1,.149-.861c-1.254-.995-1.323-2.826-1.288-3.731a5.692,5.692,0,0,0,1.87-.662,12.371,12.371,0,0,0,1.308,2.671,2.788,2.788,0,0,1,.617-.075,2.661,2.661,0,0,1,2.661,2.661Z" transform="translate(-495.69 -319.444)" opacity="0.1"/>
    <path id="Path_151" data-name="Path 151" d="M903.356,577s-1.781.4-1.781.726-.4,3.258,1.552,4.477,1.756-1.681,1.756-1.681S903.2,577.945,903.356,577Z" transform="translate(-495.993 -318.841)" fill="#575988"/>
    <circle id="Ellipse_23" data-name="Ellipse 23" cx="2.656" cy="2.656" r="2.656" transform="translate(406.691 261.358)" fill="#e4aab4"/>
    <circle id="Ellipse_24" data-name="Ellipse 24" cx="2.278" cy="2.278" r="2.278" transform="translate(407.069 261.736)" fill="#dce6f2"/>
    <path id="Path_152" data-name="Path 152" d="M888.339,590.84a13.161,13.161,0,0,0,12.829,1.7V594.8s-4.81,3.308-9.168,1.3S888.339,590.84,888.339,590.84Z" transform="translate(-489.338 -325.796)" opacity="0.1"/>
    <path id="Path_153" data-name="Path 153" d="M888.339,589.63a13.147,13.147,0,0,0,12.829,1.7v2.258s-4.81,3.308-9.168,1.3S888.339,589.63,888.339,589.63Z" transform="translate(-489.338 -325.188)" opacity="0.1"/>
    <path id="Path_154" data-name="Path 154" d="M888.339,589.63a13.147,13.147,0,0,0,12.829,1.7v2.258s-4.81,3.308-9.168,1.3S888.339,589.63,888.339,589.63Z" transform="translate(-489.338 -325.188)" fill="#444053"/>
    <path id="Path_155" data-name="Path 155" d="M888.638,589.63a13.154,13.154,0,0,0,12.834,1.7v2.258s-4.81,3.308-9.173,1.3S888.638,589.63,888.638,589.63Z" transform="translate(-489.488 -325.188)" opacity="0.05"/>
    <path id="Path_156" data-name="Path 156" d="M852.91,757.94s7.521,1.383,8.621,1.681-.3.826-.3.826S854.368,759.219,852.91,757.94Z" transform="translate(-471.554 -409.771)" opacity="0.1"/>
    <path id="Path_157" data-name="Path 157" d="M852.56,746.086c.124,0,5.114-1.4,6.188-3.806" transform="translate(-471.378 -401.901)" opacity="0.1"/>
    <path id="Path_158" data-name="Path 158" d="M867.19,692.1s2.02,2.656,3.323,2.582S868.374,692,867.19,692.1Z" transform="translate(-478.73 -376.681)" opacity="0.1"/>
    <path id="Path_159" data-name="Path 159" d="M869.44,701s.851,1.875,2.1,1.273" transform="translate(-479.861 -381.156)" opacity="0.1"/>
    <path id="Path_160" data-name="Path 160" d="M879,617.979l5.333,14.063s.751-9.049-.836-11.755A4.691,4.691,0,0,0,879,617.979Z" transform="translate(-484.665 -339.424)" opacity="0.05"/>
    <g id="Group_13" data-name="Group 13" transform="translate(400.951 166.692)" opacity="0.1">
      <path id="Path_161" data-name="Path 161" d="M904.43,393.563l-.045-.2-.856-.229.095.418A7.252,7.252,0,0,0,904.43,393.563Z" transform="translate(-897.944 -393.13)"/>
      <path id="Path_162" data-name="Path 162" d="M899.522,397.835l.09-.08a1.8,1.8,0,0,0,.5-1.831,2.412,2.412,0,0,0-.428-.682,7.029,7.029,0,0,1-1.234-.363c-.05.751.8,1.239,1.06,1.945A1.492,1.492,0,0,1,899.522,397.835Z" transform="translate(-895.389 -394.009)"/>
      <path id="Path_163" data-name="Path 163" d="M910.657,425.987a4.975,4.975,0,0,1-2.015-2.487c-.423-.995-.686-2.069-1.119-3.064a9.452,9.452,0,0,0-1.99-2.93,1.3,1.3,0,0,0-.532-.368,1.452,1.452,0,0,0-1.094.3,5.031,5.031,0,0,1-1.667.731,1.781,1.781,0,0,1-1.671-.5,2.513,2.513,0,0,1-.269-2.089,25.917,25.917,0,0,0,.786-4.666,4.571,4.571,0,0,0-1.99-4.069c-1.214-.691-2.721-.5-4.069-.885a5.237,5.237,0,0,1-1.9-.97.886.886,0,0,1-.1-.094,2.483,2.483,0,0,0-.328.154c-.219.114-.453.323-.393.562a.607.607,0,0,0,.224.279,5.18,5.18,0,0,0,1.89.97c1.348.368,2.855.194,4.069.885a4.61,4.61,0,0,1,1.99,4.069,25.833,25.833,0,0,1-.786,4.666,2.51,2.51,0,0,0,.269,2.089,1.781,1.781,0,0,0,1.672.5,4.974,4.974,0,0,0,1.666-.726,1.438,1.438,0,0,1,1.094-.308,1.318,1.318,0,0,1,.532.368,9.557,9.557,0,0,1,1.99,2.93c.438.995.7,2.064,1.124,3.069a4.975,4.975,0,0,0,1.99,2.487,2.46,2.46,0,0,0,2.985-.318,2.339,2.339,0,0,0,.448-.756A2.567,2.567,0,0,1,910.657,425.987Z" transform="translate(-892.301 -399.045)"/>
      <path id="Path_164" data-name="Path 164" d="M937.84,436.193c.751-.95,1.741-1.761,2.448-2.756.139-.2.269-.408.388-.617C939.765,433.979,938.517,434.9,937.84,436.193Z" transform="translate(-915.186 -413.076)"/>
    </g>
  </g>
</svg>
