<svg xmlns="http://www.w3.org/2000/svg" width="569.356" height="342.86" viewBox="0 0 569.356 342.86">
  <g id="Group_29" data-name="Group 29" transform="translate(0 -0.018)">
    <path id="Path_539" data-name="Path 539" d="M728.93,340.595l4.882-.844c.468-.082.933-.182,1.4-.267A40.077,40.077,0,0,1,760.8,265.606l-6.4,15.227,15.161-13.238a.683.683,0,0,1,.1.035,40.079,40.079,0,0,1,24.488,51.119c-.254.722-.555,1.411-.845,2.109A47.916,47.916,0,0,0,805.044,313c6.778-6.5,10.492-15.459,14.643-26.5,8.223-21.884,16.139-44.084,23.74-66.332a40.061,40.061,0,0,1-18.73-48.514c.407-1.157.879-2.271,1.379-3.365.125-.274.251-.546.382-.816.508-1.049,1.045-2.077,1.633-3.063.1-.162.2-.313.3-.473q.769-1.247,1.622-2.421c.212-.294.423-.587.642-.873.644-.842,1.311-1.662,2.015-2.445.235-.262.485-.507.726-.762q.811-.855,1.666-1.659c.3-.282.6-.566.906-.838.079-.07.153-.146.233-.215l.011.016a40.051,40.051,0,0,1,51.243-1.151L879.131,173.4l14.988-13.08a39.857,39.857,0,0,1,1.481,47.2l.042.013c-.164.241-.349.461-.518.7q-.474.665-.971,1.306c-.426.548-.868,1.078-1.32,1.6-.341.395-.677.792-1.032,1.172-.519.555-1.063,1.081-1.61,1.6-.32.3-.625.625-.954.919q-1.292,1.154-2.674,2.191c-.323.242-.664.455-.994.687-.647.455-1.3.9-1.968,1.318-.417.257-.844.493-1.27.735-.616.351-1.236.69-1.869,1.008-.449.225-.9.439-1.358.647-.65.3-1.308.571-1.973.832-.446.175-.89.353-1.343.512-.746.263-1.5.491-2.266.71-.385.111-.763.237-1.151.336-1.143.292-2.3.54-3.468.73-.22.036-.444.049-.664.082-.969.141-1.943.255-2.926.324-.422.03-.847.034-1.271.051-.794.031-1.588.047-2.387.03-.466-.01-.932-.034-1.4-.06q-1.167-.066-2.336-.2c-.461-.053-.92-.106-1.381-.176-.835-.127-1.669-.292-2.5-.474-.055-.012-.11-.019-.164-.031q-4.812,14.08-9.8,28.1a40.051,40.051,0,0,1,58.076,4.787l-13.856,15.324,18.761-7.489a39.941,39.941,0,0,1,1.6,30.511,39.315,39.315,0,0,1-5.091,9.85,40.063,40.063,0,0,1-72.39-17.577c-.353.942-.693,1.9-1.047,2.836-3.663,9.742-8.219,21.867-17.37,30.632-6.2,5.941-13.834,9.711-21.156,12.9q-7.152,3.112-14.494,5.755a40.167,40.167,0,0,1-17.936,5.716c-7.723,2.145-15.544,3.936-23.437,5.319l-4.922.848c-4.423.758-8.959,1.538-13.461,2.437.648.192,1.3.376,1.942.6a40.092,40.092,0,0,1,26.764,39L715.2,403.1l27.922,4.434a40.1,40.1,0,0,1-66.813,11.857q.425,1.424.854,2.844c.567,1.881,1.129,3.752,1.669,5.6,7.347,25.246,4.185,45.106-8.905,55.917l-7.1-8.6c12.741-10.525,8.788-32.211,5.3-44.2-.53-1.819-1.084-3.657-1.641-5.5-4.785-15.9-10.21-33.918-3.184-50.477C673.89,350.02,704.409,344.794,728.93,340.595Z" transform="translate(-341.586 -144.859)" fill="#f2f2f2"/>
    <path id="Path_540" data-name="Path 540" d="M577.162,559.766h-216.2a26.732,26.732,0,0,1-26.732-26.732V433.981a10.59,10.59,0,0,1,3.3-7.686L452.1,317.7a24.657,24.657,0,0,1,33.926,0L595.256,421.24a27.682,27.682,0,0,1,8.638,20.09v91.7a26.732,26.732,0,0,1-26.732,26.732Z" transform="translate(-198.861 -217.626)" fill="#3f3d56"/>
    <path id="Path_541" data-name="Path 541" d="M240.954,387.992H508.371V496.008a16.142,16.142,0,0,1-16.142,16.142H257.1a16.142,16.142,0,0,1-16.142-16.142V387.992Z" transform="translate(-105.586 -170.01)" opacity="0.1"/>
    <path id="Path_542" data-name="Path 542" d="M333.73,521.351" transform="translate(-198.642 -309.83)" fill="none" stroke="#2a2e5e" stroke-miterlimit="10" stroke-width="1"/>
    <rect id="Rectangle_124" data-name="Rectangle 124" width="198.878" height="198.878" rx="26.181" transform="translate(170.481 132.869)" fill="#b4d9e1"/>
    <path id="Path_543" data-name="Path 543" d="M502.332,395.942v109.3H303.454v-109.3L402.893,444Z" transform="translate(-132.973 -173.494)" opacity="0.1"/>
    <path id="Path_544" data-name="Path 544" d="M468.562,588.915,341.149,527.332a5.17,5.17,0,0,0-7.419,4.654V637.942a16.142,16.142,0,0,0,16.142,16.142H587.252a16.142,16.142,0,0,0,16.142-16.142V533.8a6.308,6.308,0,0,0-9.053-5.68Z" transform="translate(-198.642 -312.225)" fill="#b24b8e"/>
    <rect id="Rectangle_125" data-name="Rectangle 125" width="55.618" height="7.865" transform="translate(187.616 151.128)" fill="#f2f2f2"/>
    <rect id="Rectangle_126" data-name="Rectangle 126" width="165.169" height="4.494" transform="translate(183.121 179.779)" fill="#f2f2f2"/>
    <rect id="Rectangle_127" data-name="Rectangle 127" width="165.169" height="4.494" transform="translate(183.121 194.948)" fill="#f2f2f2"/>
    <rect id="Rectangle_128" data-name="Rectangle 128" width="165.169" height="4.494" transform="translate(183.121 210.117)" fill="#f2f2f2"/>
    <line id="Line_30" data-name="Line 30" x2="462.924" transform="translate(34.244 341.859)" fill="none" stroke="#b4d9e1" stroke-miterlimit="10" stroke-width="1"/>
    <path id="Path_545" data-name="Path 545" d="M93.275,630.212c0,33.124,20.78,59.927,46.461,59.927" transform="translate(-93.275 -357.533)" fill="#67b1c3"/>
    <path id="Path_546" data-name="Path 546" d="M175.975,689.615c0-33.5,23.19-60.6,51.847-60.6" transform="translate(-129.514 -357.008)" fill="#e08849"/>
    <path id="Path_547" data-name="Path 547" d="M123.239,635.557c0,31.464,13.251,56.924,29.627,56.924" transform="translate(-106.405 -359.875)" fill="#e6d111"/>
    <path id="Path_548" data-name="Path 548" d="M175.975,676.485c0-42.8,26.8-77.434,59.927-77.434" transform="translate(-129.514 -343.878)" fill="#d6a0c5"/>
    <path id="Path_549" data-name="Path 549" d="M158.577,734.858s6.589-.2,8.575-1.617,10.135-3.1,10.628-.835,9.9,11.279,2.463,11.339-17.284-1.159-19.266-2.366S158.577,734.858,158.577,734.858Z" transform="translate(-121.89 -401.828)" fill="#a8a8a8"/>
    <path id="Path_550" data-name="Path 550" d="M180.376,745.726c-7.439.06-17.284-1.159-19.266-2.366-1.509-.919-2.111-4.218-2.312-5.74l-.22.009s.417,5.314,2.4,6.521,11.828,2.426,19.266,2.366c2.147-.017,2.889-.781,2.848-1.913C182.792,745.286,181.974,745.713,180.376,745.726Z" transform="translate(-121.891 -404.599)" opacity="0.2"/>
    <path id="Path_551" data-name="Path 551" d="M809.983,300.289c-.338,3.008-2.632,5.431-3.482,8.337-1.28,4.373.933,9.065,3.96,12.471a27.618,27.618,0,0,0,19.232,9.132,8.2,8.2,0,0,0,3.18-.347,6.807,6.807,0,0,0,2.419-1.653,15.464,15.464,0,0,0,3.991-8.653,46.068,46.068,0,0,0,.107-9.671,5.459,5.459,0,0,0-.357-1.951,5,5,0,0,0-1.255-1.543,29.252,29.252,0,0,0-5.388-3.914,6.186,6.186,0,0,1-2.258-1.727,5.583,5.583,0,0,1-.7-2.068l-.6-3.033a5.961,5.961,0,0,0-.874-2.459c-1.051-1.418-3.063-1.611-4.827-1.681l-6.463-.253c-2.011-.079-4.66-.655-6.622-.261-1.833.369-1.224,2.058-.891,3.6A26,26,0,0,1,809.983,300.289Z" transform="translate(-405.648 -208.837)" fill="#efc9b1"/>
    <path id="Path_552" data-name="Path 552" d="M809.983,300.289c-.338,3.008-2.632,5.431-3.482,8.337-1.28,4.373.933,9.065,3.96,12.471a27.618,27.618,0,0,0,19.232,9.132,8.2,8.2,0,0,0,3.18-.347,6.807,6.807,0,0,0,2.419-1.653,15.464,15.464,0,0,0,3.991-8.653,46.068,46.068,0,0,0,.107-9.671,5.459,5.459,0,0,0-.357-1.951,5,5,0,0,0-1.255-1.543,29.252,29.252,0,0,0-5.388-3.914,6.186,6.186,0,0,1-2.258-1.727,5.583,5.583,0,0,1-.7-2.068l-.6-3.033a5.961,5.961,0,0,0-.874-2.459c-1.051-1.418-3.063-1.611-4.827-1.681l-6.463-.253c-2.011-.079-4.66-.655-6.622-.261-1.833.369-1.224,2.058-.891,3.6A26,26,0,0,1,809.983,300.289Z" transform="translate(-405.648 -208.837)" fill="#44200a" opacity="0.1"/>
    <path id="Path_553" data-name="Path 553" d="M859.949,537.025q-1.374,15.061-2.747,30.117c-.717,7.9-1.448,15.831-2.854,23.628-.486,2.687-1.055,5.36-1.73,8.01-1.878,7.358-4.6,14.55-5.48,22.093-.028.217-.051.439-.074.661a19.208,19.208,0,0,1-.939,4.9c-.439,1.152-1.115,2.2-1.591,3.339a21.307,21.307,0,0,0-1.189,7.256,31.284,31.284,0,0,0-10.771-3.681c-1.827-.273-3.862-.467-5.106-1.831-1.378-1.508-1.226-3.816-.994-5.841q1.089-9.435,2.174-18.86a49.156,49.156,0,0,1,1.374-8.01c.25-.874.55-1.734.856-2.595.421-1.184.846-2.368,1.165-3.584a43.175,43.175,0,0,0,.962-5.971c.745-6.327,1.642-12.64,2.428-18.962l.042-.333a193.913,193.913,0,0,0,1.818-28.864c-.037-1.429-.1-2.858-.19-4.292-.129-2.077-.319-3.177,1.4-4.477a32.353,32.353,0,0,1,6.577-3.376c1.17-.509,14.055-5.083,14.356-4.079a25.105,25.105,0,0,1,.944,6.577A73.163,73.163,0,0,1,859.949,537.025Z" transform="translate(-414.496 -310.173)" fill="#605d82"/>
    <path id="Path_554" data-name="Path 554" d="M857.9,626.051c-.486,2.687-1.055,5.36-1.73,8.01-1.878,7.358-4.6,14.55-5.48,22.093-.028.217-.051.439-.074.661-5.744-8.2-10.582-17.029-16.187-25.321.421-1.184.846-2.368,1.165-3.584a43.168,43.168,0,0,0,.962-5.971c.745-6.327,1.642-12.64,2.428-18.962l.042-.333a19.648,19.648,0,0,0,1.4,3.89c3.765,7.65,12.709,11.516,17.084,18.837Q857.713,625.711,857.9,626.051Z" transform="translate(-418.048 -345.453)" opacity="0.1"/>
    <path id="Path_555" data-name="Path 555" d="M793.225,495.541a142.339,142.339,0,0,0,2.152,18.275l2.022,12.5c1.107,6.842,2.259,13.824,5.5,19.953,2.422,4.584,5.912,8.5,9.069,12.609,7.762,10.112,13.592,21.566,20.952,31.974,2.139,3.025,5.2,6.3,8.848,5.665,2.4-.415,4.136-2.409,6.02-3.948,2.221-1.813,4.9-3.14,6.644-5.413s2.089-6.051-.278-7.669a12.486,12.486,0,0,0-2.709-1.109c-3.669-1.4-6.044-4.979-7.556-8.6s-2.427-7.519-4.441-10.889c-4.375-7.321-13.32-11.187-17.086-18.84-2.109-4.286-2.31-9.226-2.471-14l-.411-12.17a8.886,8.886,0,0,1,.461-3.932c1.44-3.24,5.789-3.541,9.311-3.952a31.849,31.849,0,0,0,11.41-3.6,11.9,11.9,0,0,0,5.095-4.525A14.586,14.586,0,0,0,847,491.74l1.219-22.055a13.81,13.81,0,0,0-.468-5.638c-1.679-4.467-7.319-5.926-12.087-5.713-8.871.4-17.06,4.213-25.424,6.789a64.646,64.646,0,0,1-6.3,1.644c-1.877.377-4.149.22-5.939.824-3.184,1.073-3.1,8.036-3.555,10.924A91.96,91.96,0,0,0,793.225,495.541Z" transform="translate(-399.983 -282.207)" fill="#605d82"/>
    <path id="Path_556" data-name="Path 556" d="M876.121,694.841a5.638,5.638,0,0,1,1.242,3.037,103.7,103.7,0,0,1,1.756,18.367,3,3,0,0,0,.33,1.664,2.091,2.091,0,0,0,.864.694c2.261,1.078,4.885-.424,6.769-2.074,3.492-3.059,6.447-7.166,6.646-11.8a27.418,27.418,0,0,1,.125-3.58,14.942,14.942,0,0,1,2.225-4.8,40.482,40.482,0,0,0,3.677-8.243c.344-1.081.572-2.441-.275-3.2a3.082,3.082,0,0,0-1.006-.523L888.261,680.6c-.885-.329-3.087,5.328-3.437,5.947a4.673,4.673,0,0,1-3.42,2.721c-1.751.356-3.835-.155-5.469.719C873.172,691.459,874.556,693.263,876.121,694.841Z" transform="translate(-435.543 -379.605)" fill="#e08849"/>
    <path id="Path_557" data-name="Path 557" d="M840.38,710.8a3.131,3.131,0,0,0-.777-.986,3.517,3.517,0,0,0-1.568-.533c-1.944-.33-4.249-.548-5.591.9-1.258,1.355-1.042,3.562-2.094,5.083-.333.481-.784.878-1.073,1.387a5.23,5.23,0,0,0-.471,2.488c-.054,2.357-.109,4.718.054,7.07a9.89,9.89,0,0,0,1.7,5.58c1.978,2.478,5.546,2.835,8.713,3l2.565.13a5.007,5.007,0,0,0,2.1-.193,3.46,3.46,0,0,0,1.813-1.995c1.335-3.318-.779-6.893-2.081-10.224C842.176,718.676,842.445,714.425,840.38,710.8Z" transform="translate(-415.561 -392.076)" fill="#e08849"/>
    <path id="Path_558" data-name="Path 558" d="M804.788,263.259a2.121,2.121,0,0,1,.144-.989c.376-.664,1.357-.483,2.1-.3,2.976.75,6.111.071,9.175.246s6.515,1.707,7.131,4.713a22.374,22.374,0,0,0,5.657-5.812,6.979,6.979,0,0,0,1.476-4.256c-.167-2.2-2.014-3.847-3.724-5.243l-5.1-4.161a7.682,7.682,0,0,0-2.282-1.451,11.375,11.375,0,0,0-3.7-.21c-3.711,0-7.667-1.686-10.967.01a11.838,11.838,0,0,0-3.416,3.107l-4.549,5.385a2.877,2.877,0,0,0-.727,1.233,5.477,5.477,0,0,0,.326,1.966c.215,1.2-.3,2.487.1,3.642.661,1.918,2.99,2.19,4.414,3.289.531.41,1.362,1.8,1.995,1.782C803.97,266.184,804.758,264.145,804.788,263.259Z" transform="translate(-401.196 -188.757)" fill="#3f3d56"/>
    <circle id="Ellipse_155" data-name="Ellipse 155" cx="14.568" cy="14.568" r="14.568" transform="translate(396.744 61.24)" fill="#efc9b1"/>
    <path id="Path_559" data-name="Path 559" d="M804.138,324.268a7.057,7.057,0,0,0-6.87-4.728,2.1,2.1,0,0,1-1.267-.16,1.748,1.748,0,0,1-.521-.651,25.452,25.452,0,0,1-2.124-5.022c-.232-.771-.55-1.68-1.33-1.881a1.8,1.8,0,0,0-1.7.738,14.929,14.929,0,0,1-1.212,1.523c-1.832,1.638-5.08.145-7.025,1.648-.318.246-.58.56-.913.783a4.264,4.264,0,0,1-1.07.459,102.6,102.6,0,0,0-11.026,4.318c1.294,7.79,2.619,15.717,5.651,23.008,1.443,3.47,3.078,6.869,4.234,10.445,2.56,7.923,2.674,16.4,2.7,24.728.02,5.7-.009,11.52-1.853,16.912a15.963,15.963,0,0,0-1.041,3.715,3.85,3.85,0,0,0,1.3,3.463,4.46,4.46,0,0,0,2.012.707c3.195.469,6.416-.381,9.561-1.11,8.432-1.953,17.031-3.07,25.614-4.184l14.382-1.867a8.349,8.349,0,0,0,2.976-.769c2.632-1.441,2.882-5.4,1.247-7.916a43.013,43.013,0,0,1-2.547-3.475c-.658-1.279-.714-3.067.419-3.953,2.305-1.8,1.618-5.145,1.728-8.069q.461-12.263-.125-24.536a48.84,48.84,0,0,1-.081-5.089,45.06,45.06,0,0,1,1.586-8.492l4.37-17.207a8.966,8.966,0,0,0-5.4-3.468c-2.071-.52-4.227-.673-6.267-1.3-4.178-1.295-7.9-4.58-12.26-4.274a2.225,2.225,0,0,0-.95.232c-.984.557-.828,1.975-.891,3.1-.139,2.5-1.977,4.586-4.006,6.05s-4.347,2.531-6.21,4.2a2.771,2.771,0,0,0-1.1,2.12Z" transform="translate(-389.414 -216.576)" fill="#67b1c3"/>
    <path id="Path_560" data-name="Path 560" d="M722.69,361.382a17.2,17.2,0,0,1-3.064,1.577,10.073,10.073,0,0,0-2.935,1.425,4.6,4.6,0,0,0-1.021,1.261A5.609,5.609,0,0,0,720.841,374a11.256,11.256,0,0,0,3.824-1.14l10.276-4.453c1.739-.754,3.618-1.637,4.44-3.345a.777.777,0,0,0,.1-.531.877.877,0,0,0-.422-.444,22.96,22.96,0,0,1-5.983-5.642c-.422-.572-.937-1.924-1.533-2.267C729.368,354.927,724.431,360.252,722.69,361.382Z" transform="translate(-365.691 -237.369)" fill="#efc9b1"/>
    <path id="Path_561" data-name="Path 561" d="M905.126,359.084l3.788,4.327c.813.929,1.627,1.859,2.369,2.847a33.224,33.224,0,0,1,4.339,8.174,14.273,14.273,0,0,1,1.219,6.757,16.541,16.541,0,0,1-.948,3.436,42.79,42.79,0,0,1-2.574,6.2,35.317,35.317,0,0,1-2.9,4.341,101.372,101.372,0,0,1-9.6,10.984c-1.3,1.282-1.838,3.355-2.4,5.088-1.04,3.2-3.514,5.686-5.907,8.047a16.427,16.427,0,0,1-2.536,2.183,8.262,8.262,0,0,1-4.616,1.315,5.066,5.066,0,0,1-2.079-.43,5.375,5.375,0,0,1-2.64-4.476,9.52,9.52,0,0,1,.8-4.787c2.174-4.816,7.756-6.9,11.7-10.416a38.011,38.011,0,0,0,5.828-7.208,24.911,24.911,0,0,0,2.948-5.167c.881-2.351.538-5.135,1.308-7.525.325-1.01.9-1.923,1.254-2.925a3.412,3.412,0,0,0-.174-3.059,4.446,4.446,0,0,0-1.715-1.256c-2.521-1.279-5.344-2.926-5.826-5.711a6.119,6.119,0,0,1,1.129-4.362,18.17,18.17,0,0,1,3.179-3.331C902.17,361.155,904.024,360.059,905.126,359.084Z" transform="translate(-438.28 -238.725)" fill="#efc9b1"/>
    <path id="Path_562" data-name="Path 562" d="M710.773,373.347a7.038,7.038,0,0,0-2.855-3.4,5.261,5.261,0,0,0-4.15-.017,15.6,15.6,0,0,0-3.642,2.2l-3.265,2.407a8.038,8.038,0,0,0-1.939,1.789,7.554,7.554,0,0,0-1.01,2.77,19.8,19.8,0,0,0-.513,6.852c.518,3.682,2.738,6.9,5.182,9.7,1.527,1.751,3.412,3.519,5.734,3.594a2.63,2.63,0,0,0,2.534-1.275,3.18,3.18,0,0,0,.226-1.136c.251-4.107-1.218-8.119-2.932-11.86a7.6,7.6,0,0,1-.945-3.187.874.874,0,0,1,.14-.534.9.9,0,0,1,.557-.272c2.345-.464,6.384,1.358,8.029-1.246C712.992,378.044,711.531,374.878,710.773,373.347Z" transform="translate(-356.206 -243.294)" fill="#efc9b1"/>
    <path id="Path_563" data-name="Path 563" d="M803.428,255.1a2.12,2.12,0,0,1,.144-.989c.376-.664,1.356-.483,2.1-.3,2.976.75,6.111.071,9.175.246s6.515,1.707,7.131,4.713a22.374,22.374,0,0,0,5.657-5.812,6.978,6.978,0,0,0,1.476-4.256c-.167-2.2-2.014-3.847-3.724-5.243l-5.1-4.161A7.682,7.682,0,0,0,818,237.85a11.375,11.375,0,0,0-3.7-.21c-3.711,0-7.667-1.686-10.967.01a11.837,11.837,0,0,0-3.416,3.107l-4.549,5.385a2.877,2.877,0,0,0-.727,1.233,5.477,5.477,0,0,0,.326,1.966c.215,1.2-.3,2.487.1,3.642.661,1.918,2.99,2.19,4.414,3.289.531.41,1.362,1.8,1.995,1.782C802.61,258.024,803.4,255.986,803.428,255.1Z" transform="translate(-400.6 -185.181)" fill="#3f3d56"/>
    <path id="Path_564" data-name="Path 564" d="M749.153,336.586a5.92,5.92,0,0,0-1.525,1.419c-.534.808-.643,1.827-1.1,2.68-.982,1.824-3.278,2.474-4.711,3.97a1.483,1.483,0,0,0-.453.777,1.73,1.73,0,0,0,.385,1.118l6.908,10.861c2.3.2,4.507-1.239,6.808-1.047a6.839,6.839,0,0,0,2.562.114,7.346,7.346,0,0,0,1.644-1.006c1.373-.868,3.2-.969,4.353-2.114,1.105-1.1,1.246-2.819,1.233-4.377a17.6,17.6,0,0,0-.411-4.027c-1.017-4.169-4.205-7.368-6.2-11.06-.973-1.8-1.5-2.85-3.562-1.616S751.1,335.161,749.153,336.586Z" transform="translate(-377.267 -226.743)" fill="#67b1c3"/>
    <path id="Path_565" data-name="Path 565" d="M895.313,327.729a16.164,16.164,0,0,1,3.475,3.044c1.052,1.357,1.648,3.018,2.659,4.406a49.154,49.154,0,0,0,3.425,3.627,28.012,28.012,0,0,1,3.949,6.433,96.1,96.1,0,0,1-8.936,10.1,2.882,2.882,0,0,1-1.357.892,2.189,2.189,0,0,1-1.918-.782c-.5-.522-.85-1.165-1.326-1.707a6.832,6.832,0,0,0-4.224-2.043,29,29,0,0,0-4.785-.066,1.892,1.892,0,0,1-1.022-.172,1.717,1.717,0,0,1-.558-.64c-1.87-3.183-1.269-7.179-.609-10.811l1.514-8.335a18.706,18.706,0,0,1,1.26-4.632c.573-1.226,1.856-3.3,3.433-2.937S893.975,326.767,895.313,327.729Z" transform="translate(-439.526 -223.379)" fill="#67b1c3"/>
    <ellipse id="Ellipse_156" data-name="Ellipse 156" cx="23.034" cy="23.076" rx="23.034" ry="23.076" transform="translate(155.593 112.925)" fill="#fff"/>
    <path id="Path_566" data-name="Path 566" d="M389.758,338.851a27.528,27.528,0,1,0,27.528,27.528A27.528,27.528,0,0,0,389.758,338.851Zm-5.651,42.206L370,366.948l3.957-3.957,10.164,10.164L405.574,351.7l3.957,3.957-25.424,25.4Z" transform="translate(-211.131 -229.859)" fill="#57b894"/>
  </g>
</svg>
