<svg xmlns="http://www.w3.org/2000/svg" xmlns:xlink="http://www.w3.org/1999/xlink" width="58" height="58" viewBox="0 0 58 58"><defs><clipPath id="a"><circle cx="29" cy="29" r="29" fill="#fff" stroke="#707070" stroke-width="1"/></clipPath><linearGradient id="b" x1="0.19" y1="0.186" x2="0.832" y2="0.847" gradientUnits="objectBoundingBox"><stop offset="0" stop-color="#f63f75"/><stop offset="1" stop-color="#3e537e"/></linearGradient></defs><g clip-path="url(#a)"><g transform="translate(-2 -2)"><rect width="60.652" height="60.652" transform="translate(0 0)" fill="url(#b)"/><g transform="translate(6.918 7.326)"><path d="M31.009,7.619a7.82,7.82,0,0,1,7.8,7.8V31.009a7.82,7.82,0,0,1-7.8,7.8H15.415a7.82,7.82,0,0,1-7.8-7.8V15.415a7.82,7.82,0,0,1,7.8-7.8H31.009m0-3.119H15.415A10.948,10.948,0,0,0,4.5,15.415V31.009A10.948,10.948,0,0,0,15.415,41.925H31.009A10.948,10.948,0,0,0,41.925,31.009V15.415A10.948,10.948,0,0,0,31.009,4.5Z" fill="#fffbfb"/><path d="M25.964,13.678A2.339,2.339,0,1,1,28.3,11.339,2.333,2.333,0,0,1,25.964,13.678Z" transform="translate(7.384 1.737)" fill="#fffbfb"/><path d="M20.606,14.369a6.237,6.237,0,1,1-6.237,6.237,6.243,6.243,0,0,1,6.237-6.237m0-3.119a9.356,9.356,0,1,0,9.356,9.356,9.359,9.359,0,0,0-9.356-9.356Z" transform="translate(2.606 2.606)" fill="#fffbfb"/></g></g></g></svg>