<svg xmlns="http://www.w3.org/2000/svg" xmlns:xlink="http://www.w3.org/1999/xlink" width="82.025" height="82.025" style=""><rect id="backgroundrect" width="100%" height="100%" x="0" y="0" fill="none" stroke="none"/>
  <defs>
    <linearGradient id="linear-gradient" x1="0.5080000162124634" y1="-0.014000000432133675" x2="0.5270000100135803" y2="1.0829999446868896" gradientUnits="objectBoundingBox">
      <stop offset="0" stop-color="#f63f75"/>
      <stop offset="1" stop-color="#3e537e"/>
    </linearGradient>
  </defs>
  
<g class="currentLayer" style=""><title>Layer 1</title><g id="Group_29" data-name="Group 29" class="">
    <circle id="Ellipse_151" data-name="Ellipse 151" cx="29" cy="70.0130010843277" r="29" transform="matrix(0.9960419665239316,-1.0007787276172742,0.9960419665239316,1.0007787276172742,-57.334187353182806,-0.03193518036309584) " fill="url(#linear-gradient)"/>
    <path id="Path_529" data-name="Path 529" d="M59.6282350442934,21.415139947701277 L16.634455729620065,37.69975260640311 a1.8086630181521721,1.8172642667975967 0 0 0 0.1493133021215969,3.451952918005716 l15.028524720144485,4.245944548592515 a1.4086160577509124,1.4153148495308394 0 0 1 0.5423171822341015,0.2830629699061681 L50.07922678879998,60.01926778350443 a2.897523230793627,2.9113026454849344 0 0 0 4.717455177407806,-1.651672429402489 l6.752905380857875,-35.3064442363963 a1.446648691310187,1.453528350468171 0 0 0 -1.922760918829996,-1.6474264848538964 z" fill="#f5f9fd"/>
    <path id="Path_530" data-name="Path 530" d="M34.82250605236209,57.855250817076026 l5.3978167333014975,-5.833927809766116 L33.86323851703373,46.88656073321203 l-1.383260968711396,11.533400708826802 A2.1579998004743977,2.1682623494812447 0 0 0 34.82250605236209,57.855250817076026 z" fill="#a9c9dd"/>
    <path id="Path_531" data-name="Path 531" d="M52.013257366880346,28.906398768365147 L27.248378455561546,44.09272710383105 l3.9314474171827962,12.911917372269839 a2.1495481041278923,2.1597704603840593 0 0 0 1.3325507906323641,1.4153148495308394 l1.3719920402493888,-11.540477283074459 l18.60218365865855,-17.378651037389165 a0.3775091034772449,0.3793043796742653 0 0 0 -0.4718863793465567,-0.5930169219534214 z" fill="#c8daea"/>
  </g></g></svg>