<svg xmlns="http://www.w3.org/2000/svg" xmlns:xlink="http://www.w3.org/1999/xlink" width="58" height="58" viewBox="0 0 58 58">
  <defs>
    <clipPath id="clip-path">
      <circle id="Ellipse_152" data-name="Ellipse 152" cx="29" cy="29" r="29" transform="translate(558 8746)" fill="#fff" stroke="#707070" stroke-width="1"/>
    </clipPath>
    <linearGradient id="linear-gradient" x1="0.178" y1="0.158" x2="0.82" y2="0.859" gradientUnits="objectBoundingBox">
      <stop offset="0" stop-color="#f63f75"/>
      <stop offset="1" stop-color="#3e537e"/>
      <stop offset="1" stop-color="#b4d9e1"/>
    </linearGradient>
  </defs>
  <g id="Mask_Group_6" data-name="Mask Group 6" transform="translate(-558 -8746)" clip-path="url(#clip-path)">
    <g id="viber" transform="translate(558 8746)">
      <rect id="Rectangle_119" data-name="Rectangle 119" width="58.572" height="59.015" fill="url(#linear-gradient)"/>
      <g id="Group_24" data-name="Group 24" transform="translate(7.019 8.365)">
        <path id="Path_532" data-name="Path 532" d="M120.523,82.082l-.013-.049c-1.074-3.99-5.918-8.271-10.366-9.162l-.05-.009a62.616,62.616,0,0,0-21.682,0l-.052.009c-4.446.891-9.29,5.172-10.366,9.162l-.012.049a35.892,35.892,0,0,0,0,16.795l.012.049c1.03,3.82,5.513,7.9,9.795,9.028v4.454a1.976,1.976,0,0,0,3.354,1.24l4.912-4.691c1.065.055,2.131.085,3.2.085a62.754,62.754,0,0,0,10.841-.945l.05-.009c4.448-.891,9.291-5.172,10.366-9.162l.013-.049A35.893,35.893,0,0,0,120.523,82.082Zm-3.887,15.987c-.717,2.6-4.395,5.839-7.317,6.437a58.33,58.33,0,0,1-11.533.856.286.286,0,0,0-.2.076L94,108.82l-3.815,3.6a.453.453,0,0,1-.769-.283v-7.378a.261.261,0,0,0-.225-.249h0c-2.922-.6-6.6-3.834-7.317-6.437a32.571,32.571,0,0,1,0-15.179c.719-2.6,4.395-5.839,7.317-6.437a58.318,58.318,0,0,1,20.134,0c2.924.6,6.6,3.834,7.317,6.437A32.537,32.537,0,0,1,116.636,98.069Z" transform="translate(-76.986 -71.916)" fill="#fff"/>
        <path id="Path_533" data-name="Path 533" d="M167.261,162.151c-.449-.136-.877-.228-1.275-.393a28.962,28.962,0,0,1-10.915-7.295,28.326,28.326,0,0,1-4.175-6.389c-.536-1.089-.987-2.221-1.448-3.345a2.9,2.9,0,0,1,.849-2.857,6.71,6.71,0,0,1,2.248-1.689,1.443,1.443,0,0,1,1.805.428,23.278,23.278,0,0,1,2.793,3.909,1.861,1.861,0,0,1-.521,2.52c-.211.144-.4.312-.6.474a1.969,1.969,0,0,0-.454.478,1.31,1.31,0,0,0-.087,1.15,10.409,10.409,0,0,0,5.846,6.472,2.975,2.975,0,0,0,1.5.364c.916-.107,1.212-1.111,1.854-1.636a1.747,1.747,0,0,1,2.1-.092c.676.428,1.331.887,1.982,1.351a22.7,22.7,0,0,1,1.865,1.42,1.48,1.48,0,0,1,.443,1.832,6.193,6.193,0,0,1-2.661,2.932,6.419,6.419,0,0,1-1.151.366C166.812,162.015,167.652,162.031,167.261,162.151Z" transform="translate(-138.638 -131.55)" fill="#fff"/>
        <path id="Path_534" data-name="Path 534" d="M222.33,131.458a10.948,10.948,0,0,1,10.763,9.055c.162.908.219,1.836.291,2.757a.647.647,0,0,1-.607.761c-.432.005-.626-.356-.654-.744-.056-.767-.094-1.537-.2-2.3a9.628,9.628,0,0,0-7.754-8.048c-.6-.107-1.217-.135-1.826-.2-.385-.04-.889-.064-.975-.542a.658.658,0,0,1,.649-.741c.1-.006.208,0,.313,0C227.719,131.609,222.226,131.458,222.33,131.458Z" transform="translate(-200.053 -123.653)" fill="#fff"/>
        <path id="Path_535" data-name="Path 535" d="M236.237,158.71a2.475,2.475,0,0,1-.053.375.612.612,0,0,1-1.152.063,1.628,1.628,0,0,1-.065-.521,6.527,6.527,0,0,0-.826-3.275,6.093,6.093,0,0,0-2.556-2.4,7.351,7.351,0,0,0-2.037-.625c-.307-.051-.617-.082-.926-.125a.586.586,0,0,1-.556-.659.579.579,0,0,1,.645-.572,8.471,8.471,0,0,1,3.531.92,7.14,7.14,0,0,1,3.886,5.548c.017.113.044.225.053.339.021.28.034.561.056.93C236.228,158.777,236.215,158.34,236.237,158.71Z" transform="translate(-205.77 -140.47)" fill="#fff"/>
        <path id="Path_536" data-name="Path 536" d="M237.613,175.631a.666.666,0,0,1-.739-.655,6.8,6.8,0,0,0-.127-.861,2.422,2.422,0,0,0-.894-1.4,2.332,2.332,0,0,0-.728-.351c-.331-.1-.674-.069-1-.15a.616.616,0,0,1-.5-.714.648.648,0,0,1,.683-.52,3.705,3.705,0,0,1,3.8,3.69,1.709,1.709,0,0,1-.006.523.536.536,0,0,1-.482.441C237.162,175.639,237.819,175.617,237.613,175.631Z" transform="translate(-210.498 -157.68)" fill="#fff"/>
      </g>
    </g>
  </g>
</svg>
