<svg xmlns="http://www.w3.org/2000/svg" xmlns:xlink="http://www.w3.org/1999/xlink" width="52" height="52" viewBox="0 0 52 52"><defs><clipPath id="a"><circle cx="26" cy="26" r="26" transform="translate(332 874)" fill="#6c6f7c" stroke="#707070" stroke-width="1"/></clipPath></defs><g transform="translate(-332 -874)" clip-path="url(#a)"><g transform="translate(332 874)"><circle cx="26" cy="26" r="26" fill="#0e84be"/><path d="M11.9,25.437l25.068-9.665c1.164-.42,2.18.284,1.8,2.043l0,0L34.5,37.921c-.316,1.426-1.163,1.772-2.349,1.1l-6.5-4.791-3.135,3.02a1.639,1.639,0,0,1-1.311.639l.462-6.615L33.716,20.393c.524-.462-.117-.722-.808-.262L18.02,29.5l-6.418-2c-1.393-.442-1.424-1.393.295-2.065Z" fill="#fff"/></g></g></svg>