<svg xmlns="http://www.w3.org/2000/svg" xmlns:xlink="http://www.w3.org/1999/xlink" width="52" height="52" viewBox="0 0 52 52"><defs><clipPath id="a"><circle cx="26" cy="26" r="26" transform="translate(488 874)" fill="#454b65" stroke="#707070" stroke-width="1"/></clipPath></defs><g transform="translate(-488 -874)" clip-path="url(#a)"><g transform="translate(488 874)"><rect width="52" height="52" fill="#7d3daf" stroke="#707070" stroke-width="0.114"/><path d="M42.446,16.762l-.01-.041A11.871,11.871,0,0,0,34.421,9.01L34.382,9A44.537,44.537,0,0,0,17.618,9l-.04.008a11.875,11.875,0,0,0-8.015,7.711l-.009.041a32.812,32.812,0,0,0,0,14.135l.009.041c.8,3.215,4.262,6.653,7.573,7.6v3.748a1.507,1.507,0,0,0,2.594,1.044l3.8-3.948c.824.046,1.648.072,2.472.072a44.681,44.681,0,0,0,8.382-.8l.039-.008a11.871,11.871,0,0,0,8.015-7.711l.01-.041A32.812,32.812,0,0,0,42.446,16.762ZM39.44,30.217a8.978,8.978,0,0,1-5.657,5.418,41.513,41.513,0,0,1-8.917.72.211.211,0,0,0-.157.064l-2.773,2.847-2.95,3.027a.345.345,0,0,1-.594-.238v-6.21a.214.214,0,0,0-.174-.209h0a8.981,8.981,0,0,1-5.657-5.418,29.776,29.776,0,0,1,0-12.775,8.981,8.981,0,0,1,5.657-5.418,41.48,41.48,0,0,1,15.567,0,8.976,8.976,0,0,1,5.657,5.418A29.744,29.744,0,0,1,39.44,30.217Z" fill="#fff"/><path d="M30.915,33.083c-.347-.105-.678-.176-.986-.3a22.393,22.393,0,0,1-8.439-5.64,21.9,21.9,0,0,1-3.228-4.94c-.414-.842-.763-1.717-1.119-2.586A2.244,2.244,0,0,1,17.8,17.4,5.188,5.188,0,0,1,19.538,16.1a1.116,1.116,0,0,1,1.4.331,18,18,0,0,1,2.159,3.022,1.439,1.439,0,0,1-.4,1.948c-.163.111-.312.241-.465.367a1.523,1.523,0,0,0-.351.37,1.012,1.012,0,0,0-.068.889,8.048,8.048,0,0,0,4.52,5,2.3,2.3,0,0,0,1.158.281c.708-.083.937-.859,1.433-1.265a1.351,1.351,0,0,1,1.627-.071c.522.331,1.029.686,1.532,1.044a17.547,17.547,0,0,1,1.442,1.1,1.144,1.144,0,0,1,.342,1.416A4.789,4.789,0,0,1,31.8,32.8a4.964,4.964,0,0,1-.89.283C30.567,32.978,31.217,32.99,30.915,33.083Z" fill="#fff"/><path d="M26.009,15a8.465,8.465,0,0,1,8.322,7c.125.7.169,1.419.225,2.132a.5.5,0,0,1-.47.588c-.334,0-.484-.275-.506-.575-.043-.593-.073-1.188-.154-1.776a7.444,7.444,0,0,0-6-6.222c-.465-.083-.941-.1-1.412-.154-.3-.031-.688-.049-.754-.419a.508.508,0,0,1,.5-.573c.08,0,.161,0,.242,0C30.175,15.118,25.928,15,26.009,15Z" fill="#fff"/><path d="M32.34,23.209a1.909,1.909,0,0,1-.041.29.473.473,0,0,1-.891.048,1.259,1.259,0,0,1-.05-.4,5.047,5.047,0,0,0-.638-2.532,4.711,4.711,0,0,0-1.976-1.854,5.684,5.684,0,0,0-1.575-.483c-.237-.039-.477-.063-.716-.1a.453.453,0,0,1-.43-.509.448.448,0,0,1,.5-.443,6.55,6.55,0,0,1,2.73.711,5.521,5.521,0,0,1,3,4.29c.013.087.034.174.041.262.016.217.027.434.043.719C32.334,23.261,32.324,22.924,32.34,23.209Z" fill="#fff"/><path d="M29.749,23.108a.515.515,0,0,1-.571-.506,5.248,5.248,0,0,0-.1-.665,1.873,1.873,0,0,0-.691-1.084,1.8,1.8,0,0,0-.563-.272c-.256-.074-.521-.054-.776-.116a.476.476,0,0,1-.387-.552.5.5,0,0,1,.528-.4,2.865,2.865,0,0,1,2.935,2.853,1.322,1.322,0,0,1,0,.4.414.414,0,0,1-.372.341C29.4,23.115,29.908,23.1,29.749,23.108Z" fill="#fff"/></g></g></svg>