<svg xmlns="http://www.w3.org/2000/svg" xmlns:xlink="http://www.w3.org/1999/xlink" width="52" height="52" viewBox="0 0 52 52"><defs><clipPath id="a"><circle cx="26" cy="26" r="26" transform="translate(411 874)" fill="#fff" stroke="#707070" stroke-width="1"/></clipPath></defs><g transform="translate(-411 -874)" clip-path="url(#a)"><g transform="translate(411 874)"><rect width="52" height="52" fill="#6c6f7c"/><path d="M7.815,44.2l2.547-9.046A18.154,18.154,0,1,1,17.145,41.8ZM17.622,38.5l.556.339a15.077,15.077,0,1,0-4.853-4.745l.374.583-1.467,5.21Z" fill="#454b65"/><path d="M20.922,17.5l-1.178-.064a1.425,1.425,0,0,0-1.013.347,5.369,5.369,0,0,0-1.765,2.705c-.418,1.864.228,4.146,1.9,6.428a19.122,19.122,0,0,0,10.307,7.493,5.023,5.023,0,0,0,4.254-.526,3.8,3.8,0,0,0,1.655-2.415l.188-.879a.611.611,0,0,0-.342-.682l-3.983-1.836a.611.611,0,0,0-.739.182l-1.564,2.027a.447.447,0,0,1-.5.15,12.244,12.244,0,0,1-6.625-5.669.452.452,0,0,1,.057-.5l1.494-1.729a.61.61,0,0,0,.1-.639L21.45,17.874A.611.611,0,0,0,20.922,17.5Z" fill="#454b65"/></g></g></svg>