<svg width="212" height="212" viewBox="0 0 212 212" fill="none" xmlns="http://www.w3.org/2000/svg">
<path d="M212 106C212 164.542 164.542 212 106 212C47.4578 212 0 164.542 0 106C0 47.4578 47.4578 0 106 0C164.542 0 212 47.4578 212 106ZM29.68 106C29.68 148.15 63.8496 182.32 106 182.32C148.15 182.32 182.32 148.15 182.32 106C182.32 63.8496 148.15 29.68 106 29.68C63.8496 29.68 29.68 63.8496 29.68 106Z" fill="#FF9800"/>
<path d="M42.2202 21.3352C57.8257 9.57919 76.3768 2.36507 95.8246 0.489522C115.272 -1.38602 134.86 2.15 152.425 10.707C169.989 19.2641 184.847 32.5092 195.357 48.9796C205.867 65.45 211.62 84.5048 211.982 104.039L182.307 104.588C182.047 90.5234 177.904 76.804 170.337 64.9453C162.77 53.0866 152.072 43.5502 139.426 37.3891C126.779 31.228 112.676 28.6821 98.6737 30.0325C84.6713 31.3828 71.3145 36.577 60.0785 45.0413L42.2202 21.3352Z" fill="#DFDFDF"/>
</svg>
