<svg width="212" height="212" viewBox="0 0 212 212" fill="none" xmlns="http://www.w3.org/2000/svg">
<path d="M212 106C212 164.542 164.542 212 106 212C47.4578 212 0 164.542 0 106C0 47.4578 47.4578 0 106 0C164.542 0 212 47.4578 212 106ZM29.68 106C29.68 148.15 63.8496 182.32 106 182.32C148.15 182.32 182.32 148.15 182.32 106C182.32 63.8496 148.15 29.68 106 29.68C63.8496 29.68 29.68 63.8496 29.68 106Z" fill="#FF9800"/>
<path d="M191.756 43.6948C204.913 61.8047 212 83.6151 212 106L182.32 106C182.32 89.8828 177.218 74.1794 167.744 61.1403L191.756 43.6948Z" fill="#DFDFDF"/>
</svg>
