<svg id="Круг" xmlns="http://www.w3.org/2000/svg" width="17.858" height="18.909" viewBox="0 0 17.858 18.909">
  <g id="Intersection_1" data-name="Intersection 1" transform="translate(1.956 1.119)" fill="#f3c939">
    <path d="M 8.120761871337891 15.66848468780518 C 4.123552322387695 15.44678020477295 1.000000834465027 12.23487186431885 1.000000834465027 8.334955215454102 C 1.000000834465027 4.435029029846191 4.123552322387695 1.223129987716675 8.120761871337891 1.001435399055481 C 11.92768859863281 1.223113179206848 14.90220069885254 4.434600830078125 14.90220069885254 8.334955215454102 C 14.90220069885254 12.23530960083008 11.92768859863281 15.44679737091064 8.120761871337891 15.66848468780518 Z" stroke="none"/>
    <path d="M 8.119173049926758 14.66662502288818 C 11.37021446228027 14.44720935821533 13.90220069885254 11.68546962738037 13.90220069885254 8.334955215454102 C 13.90220069885254 4.98443078994751 11.37014293670654 2.22269606590271 8.119101524353027 2.003299713134766 C 4.679444789886475 2.222720146179199 2.000000715255737 4.985272407531738 2.000000715255737 8.334955215454102 C 2.000000715255737 11.68463802337646 4.679516315460205 14.44720458984375 8.119173049926758 14.66662502288818 M 8.121960639953613 16.6699161529541 C 3.59752082824707 16.4476261138916 8.262634310085559e-07 12.80067539215088 8.262634310085559e-07 8.334955215454102 C 8.262634310085559e-07 3.869245290756226 3.59752082824707 0.2222852110862732 8.121960639953613 5.215454166318523e-06 C 12.45615100860596 0.2222852110862732 15.90220069885254 3.869245290756226 15.90220069885254 8.334955215454102 C 15.90220069885254 12.80067539215088 12.45615100860596 16.4476261138916 8.121960639953613 16.6699161529541 Z" stroke="none" fill="#454b65"/>
  </g>
  <g id="Path_21" data-name="Path 21" fill="none">
    <path d="M8.9,0a9.189,9.189,0,0,1,8.9,9.454,9.189,9.189,0,0,1-8.9,9.454A9.189,9.189,0,0,1,0,9.454,9.189,9.189,0,0,1,8.9,0Z" stroke="none"/>
    <path d="M 8.898207664489746 1.999996185302734 C 5.094517707824707 1.999996185302734 1.999998092651367 5.344005584716797 1.999998092651367 9.454345703125 C 1.999998092651367 13.5646858215332 5.094517707824707 16.90869522094727 8.898207664489746 16.90869522094727 C 12.70189762115479 16.90869522094727 15.79641723632813 13.5646858215332 15.79641723632813 9.454345703125 C 15.79641723632813 5.344005584716797 12.70189762115479 1.999996185302734 8.898207664489746 1.999996185302734 M 8.898207664489746 -3.814697265625e-06 C 13.81254768371582 -3.814697265625e-06 17.79641723632813 4.232855796813965 17.79641723632813 9.454345703125 C 17.79641723632813 14.67583560943604 13.81254768371582 18.90869522094727 8.898207664489746 18.90869522094727 C 3.983867645263672 18.90869522094727 -1.9073486328125e-06 14.67583560943604 -1.9073486328125e-06 9.454345703125 C -1.9073486328125e-06 4.232855796813965 3.983867645263672 -3.814697265625e-06 8.898207664489746 -3.814697265625e-06 Z" stroke="none" fill="#5a6289"/>
  </g>
</svg>
