<svg width="350" height="80" viewBox="0 0 350 80" fill="none" xmlns="http://www.w3.org/2000/svg">
<g clip-path="url(#clip0)">
<path d="M54.6058 65.3942L50.5394 61.3278L40 71.8672L29.4606 61.3278L25.3942 65.3942L40 80L54.6058 65.3942Z" fill="#EFEFEF"/>
<path d="M18.6722 29.4606L14.6058 25.3942L0 40L14.6058 54.6058L18.6722 50.5394L8.13278 40L18.6722 29.4606Z" fill="#EFEFEF"/>
<path d="M65.3942 25.3942L61.3278 29.4606L71.8672 40L61.3278 50.5394L65.3942 54.6058L80 40L65.3942 25.3942Z" fill="#EFEFEF"/>
<path d="M50.5394 18.6722L54.6058 14.6058L40 0L25.3942 14.6058L29.4606 18.6722L40 8.13278L50.5394 18.6722Z" fill="#EFEFEF"/>
</g>
<path d="M14.6579 54.4737C14.6579 57.2684 15.9 59.7526 17.7632 61.3053V66.8947C17.7632 68.7579 19.0053 70 20.8684 70H23.9737C25.8368 70 27.079 68.7579 27.079 66.8947V63.7895H51.9211V66.8947C51.9211 68.7579 53.1632 70 55.0263 70H58.1316C59.9947 70 61.2368 68.7579 61.2368 66.8947V61.3053C63.1 59.7526 64.3421 57.2685 64.3421 54.4737V23.4211C64.3421 12.5526 53.1632 11 39.5 11C25.8368 11 14.6579 12.5526 14.6579 23.4211V54.4737ZM25.5263 57.5789C23.0421 57.5789 20.8684 55.4053 20.8684 52.9211C20.8684 50.4368 23.0421 48.2632 25.5263 48.2632C28.0105 48.2632 30.1842 50.4368 30.1842 52.9211C30.1842 55.4053 28.0105 57.5789 25.5263 57.5789ZM53.4737 57.5789C50.9895 57.5789 48.8158 55.4053 48.8158 52.9211C48.8158 50.4368 50.9895 48.2632 53.4737 48.2632C55.9579 48.2632 58.1316 50.4368 58.1316 52.9211C58.1316 55.4053 55.9579 57.5789 53.4737 57.5789ZM58.1316 38.9474H20.8684V23.4211H58.1316V38.9474Z" fill="#F13C6E"/>
<path d="M104.588 34.2031L107.875 43.4844L111.145 34.2031H114.607V47H111.962V43.502L112.226 37.4639L108.771 47H106.961L103.516 37.4727L103.779 43.502V47H101.143V34.2031H104.588ZM126.093 44.3633H121.47L120.591 47H117.787L122.551 34.2031H124.994L129.784 47H126.981L126.093 44.3633ZM122.182 42.2275H125.381L123.773 37.4375L122.182 42.2275ZM136.225 34.2031L139.512 43.4844L142.782 34.2031H146.245V47H143.599V43.502L143.863 37.4639L140.409 47H138.598L135.153 37.4727L135.416 43.502V47H132.78V34.2031H136.225ZM160.393 42.7373C160.294 44.1143 159.784 45.1982 158.864 45.9893C157.95 46.7803 156.743 47.1758 155.243 47.1758C153.602 47.1758 152.31 46.625 151.367 45.5234C150.429 44.416 149.961 42.8984 149.961 40.9707V40.1885C149.961 38.958 150.177 37.874 150.611 36.9365C151.045 35.999 151.663 35.2812 152.465 34.7832C153.274 34.2793 154.212 34.0273 155.278 34.0273C156.754 34.0273 157.944 34.4229 158.846 35.2139C159.749 36.0049 160.27 37.1152 160.411 38.5449H157.774C157.71 37.7188 157.478 37.1211 157.08 36.752C156.687 36.377 156.087 36.1895 155.278 36.1895C154.399 36.1895 153.74 36.5059 153.3 37.1387C152.867 37.7656 152.644 38.7412 152.632 40.0654V41.0322C152.632 42.415 152.84 43.4258 153.256 44.0645C153.678 44.7031 154.34 45.0225 155.243 45.0225C156.057 45.0225 156.664 44.8379 157.062 44.4688C157.466 44.0938 157.698 43.5166 157.756 42.7373H160.393ZM174.34 47H171.703V41.5156H166.561V47H163.925V34.2031H166.561V39.3887H171.703V34.2031H174.34V47ZM188.137 34.2031V42.6318C188.137 44.0322 187.697 45.1396 186.818 45.9541C185.945 46.7686 184.75 47.1758 183.232 47.1758C181.738 47.1758 180.552 46.7803 179.673 45.9893C178.794 45.1982 178.346 44.1113 178.328 42.7285V34.2031H180.965V42.6494C180.965 43.4873 181.164 44.0996 181.562 44.4863C181.967 44.8672 182.523 45.0576 183.232 45.0576C184.715 45.0576 185.468 44.2783 185.491 42.7197V34.2031H188.137ZM196.836 42.3154H194.736V47H192.099V34.2031H196.854C198.365 34.2031 199.531 34.54 200.352 35.2139C201.172 35.8877 201.582 36.8398 201.582 38.0703C201.582 38.9434 201.392 39.6729 201.011 40.2588C200.636 40.8389 200.065 41.3018 199.297 41.6475L202.066 46.877V47H199.236L196.836 42.3154ZM194.736 40.1797H196.863C197.525 40.1797 198.037 40.0127 198.401 39.6787C198.764 39.3389 198.946 38.873 198.946 38.2812C198.946 37.6777 198.773 37.2031 198.427 36.8574C198.087 36.5117 197.563 36.3389 196.854 36.3389H194.736V40.1797ZM210.167 42.5439H205.219V40.4961H210.167V42.5439ZM221.398 44.3633H216.775L215.896 47H213.092L217.856 34.2031H220.299L225.089 47H222.286L221.398 44.3633ZM217.487 42.2275H220.686L219.078 37.4375L217.487 42.2275ZM237.612 34.2031V42.6318C237.612 44.0322 237.173 45.1396 236.294 45.9541C235.421 46.7686 234.225 47.1758 232.708 47.1758C231.214 47.1758 230.027 46.7803 229.148 45.9893C228.269 45.1982 227.821 44.1113 227.804 42.7285V34.2031H230.44V42.6494C230.44 43.4873 230.639 44.0996 231.038 44.4863C231.442 44.8672 231.999 45.0576 232.708 45.0576C234.19 45.0576 234.943 44.2783 234.967 42.7197V34.2031H237.612ZM251.207 36.3389H247.287V47H244.65V36.3389H240.783V34.2031H251.207V36.3389ZM264.784 40.8916C264.784 42.1514 264.562 43.2559 264.116 44.2051C263.671 45.1543 263.032 45.8867 262.2 46.4023C261.374 46.918 260.425 47.1758 259.353 47.1758C258.292 47.1758 257.346 46.9209 256.514 46.4111C255.682 45.9014 255.037 45.1748 254.58 44.2314C254.123 43.2822 253.892 42.1924 253.886 40.9619V40.3291C253.886 39.0693 254.112 37.9619 254.563 37.0068C255.02 36.0459 255.661 35.3105 256.488 34.8008C257.32 34.2852 258.269 34.0273 259.335 34.0273C260.402 34.0273 261.348 34.2852 262.174 34.8008C263.006 35.3105 263.648 36.0459 264.099 37.0068C264.556 37.9619 264.784 39.0664 264.784 40.3203V40.8916ZM262.113 40.3115C262.113 38.9697 261.872 37.9502 261.392 37.2529C260.911 36.5557 260.226 36.207 259.335 36.207C258.45 36.207 257.768 36.5527 257.287 37.2441C256.807 37.9297 256.564 38.9375 256.558 40.2676V40.8916C256.558 42.1982 256.798 43.2119 257.279 43.9326C257.759 44.6533 258.45 45.0137 259.353 45.0137C260.238 45.0137 260.917 44.668 261.392 43.9766C261.866 43.2793 262.107 42.2656 262.113 40.9355V40.3115Z" fill="#F13C6E"/>
<defs>
<clipPath id="clip0">
<rect width="80" height="80" fill="white"/>
</clipPath>
</defs>
</svg>
