<svg xmlns="http://www.w3.org/2000/svg" xmlns:xlink="http://www.w3.org/1999/xlink" width="195.283" height="138.958" viewBox="0 0 195.283 138.958">
  <defs>
    <linearGradient id="linear-gradient" x1="0.531" y1="1.017" x2="0.531" y2="-0.007" gradientUnits="objectBoundingBox">
      <stop offset="0" stop-color="gray" stop-opacity="0.251"/>
      <stop offset="0.54" stop-color="gray" stop-opacity="0.122"/>
      <stop offset="1" stop-color="gray" stop-opacity="0.102"/>
    </linearGradient>
    <linearGradient id="linear-gradient-2" x1="0.5" y1="1" x2="0.5" y2="0.001" xlink:href="#linear-gradient"/>
  </defs>
  <g id="Контент" transform="translate(-6.569 3.097)">
    <rect id="Rectangle_57" data-name="Rectangle 57" width="7.501" height="11.355" transform="translate(161.563 47.036)" fill="#6c63ff" opacity="0.1"/>
    <rect id="Rectangle_58" data-name="Rectangle 58" width="6.042" height="9.146" transform="translate(162.292 48.14)" fill="#6c63ff" opacity="0.1"/>
    <rect id="Rectangle_59" data-name="Rectangle 59" width="11.52" height="11.355" transform="translate(146.338 39.148)" fill="#6c63ff" opacity="0.1"/>
    <rect id="Rectangle_60" data-name="Rectangle 60" width="9.28" height="9.146" transform="translate(147.457 40.253)" fill="#67b1c3" opacity="0.1"/>
    <rect id="Rectangle_61" data-name="Rectangle 61" width="35.21" height="0.937" transform="translate(11.848 22.254)" fill="#6c63ff" opacity="0.1"/>
    <rect id="Rectangle_62" data-name="Rectangle 62" width="35.21" height="0.937" transform="translate(11.848 26.838)" fill="#6c63ff" opacity="0.1"/>
    <rect id="Rectangle_63" data-name="Rectangle 63" width="3.597" height="40.198" transform="translate(71.246 83.028)" fill="#d6d6e3"/>
    <path id="Path_170" data-name="Path 170" d="M913.039,311.976V274.9a3.9,3.9,0,0,1,3.9-3.9h0a3.9,3.9,0,0,1,3.891,3.9v44.875a3.9,3.9,0,0,1-3.9,3.9H892.788a3.9,3.9,0,0,1-3.9-3.9h0a3.9,3.9,0,0,1,3.9-3.9h16.353A3.9,3.9,0,0,0,913.039,311.976Z" transform="translate(-733.125 -224.727)" fill="#aebee1"/>
    <path id="Path_171" data-name="Path 171" d="M913.039,311.976V274.9a3.9,3.9,0,0,1,3.9-3.9h0a3.9,3.9,0,0,1,3.891,3.9v44.875a3.9,3.9,0,0,1-3.9,3.9H892.788a3.9,3.9,0,0,1-3.9-3.9h0a3.9,3.9,0,0,1,3.9-3.9h16.353A3.9,3.9,0,0,0,913.039,311.976Z" transform="translate(-733.125 -224.727)" fill="#535461"/>
    <path id="Path_172" data-name="Path 172" d="M888.92,319.562a3.9,3.9,0,0,1,3.892-3.689h16.353a3.9,3.9,0,0,0,3.9-3.9V274.9a3.9,3.9,0,0,1,3.711-3.9v48.562Z" transform="translate(-733.149 -224.727)" fill="#d6d6e3"/>
    <path id="Path_173" data-name="Path 173" d="M197.537,318.787V281.708a3.9,3.9,0,0,0-3.889-3.9h0a3.9,3.9,0,0,0-3.9,3.9v44.875a3.9,3.9,0,0,0,3.9,3.907h24.14a3.9,3.9,0,0,0,3.9-3.9h0a3.9,3.9,0,0,0-3.9-3.9H201.437a3.9,3.9,0,0,1-3.9-3.907Z" transform="translate(-162.231 -230.288)" fill="#aebee1"/>
    <path id="Path_174" data-name="Path 174" d="M197.537,318.787V281.708a3.9,3.9,0,0,0-3.889-3.9h0a3.9,3.9,0,0,0-3.9,3.9v44.875a3.9,3.9,0,0,0,3.9,3.907h24.14a3.9,3.9,0,0,0,3.9-3.9h0a3.9,3.9,0,0,0-3.9-3.9H201.437a3.9,3.9,0,0,1-3.9-3.907Z" transform="translate(-162.231 -230.288)" fill="#535461"/>
    <path id="Path_175" data-name="Path 175" d="M239.849,326.4a3.9,3.9,0,0,0-3.892-3.689H219.605a3.9,3.9,0,0,1-3.9-3.9V281.733a3.9,3.9,0,0,0-3.7-3.892V326.4Z" transform="translate(-180.4 -230.313)" fill="#d6d6e3"/>
    <rect id="Rectangle_64" data-name="Rectangle 64" width="3.597" height="41.135" transform="translate(142.413 83.028)" fill="#d6d6e3"/>
    <rect id="Rectangle_65" data-name="Rectangle 65" width="3.597" height="2.972" transform="translate(71.246 83.028)" opacity="0.1"/>
    <rect id="Rectangle_66" data-name="Rectangle 66" width="3.597" height="2.972" transform="translate(142.413 83.028)" opacity="0.1"/>
    <path id="Path_176" data-name="Path 176" d="M494.936,337.92q-.086.95-.218,1.926h-.508V337.92Z" transform="translate(-410.843 -279.372)" opacity="0.1"/>
    <path id="Path_177" data-name="Path 177" d="M509.675,357.937a1.11,1.11,0,0,1-1.04,1.185H497.657v-1.145h9.135a.574.574,0,0,0,.442-.858l-8.284-16.848a.734.734,0,0,0-.642-.415h-4.1V337.93h5.175a.514.514,0,0,1,.449.29l9.5,18.343a3.119,3.119,0,0,1,.345,1.374Z" transform="translate(-410.843 -279.38)" fill="#535461"/>
    <path id="Path_178" data-name="Path 178" d="M461.667,278.287l-.15.253-1.407-.939,4.353-33.471h1.121s.046.154.121.448C466.455,247.47,470.14,263.853,461.667,278.287Z" transform="translate(-382.998 -202.786)" fill="#535461"/>
    <path id="Path_179" data-name="Path 179" d="M465.7,244.578l-4.036,33.71-.15.253-1.407-.939,4.353-33.471h1.121S465.628,244.29,465.7,244.578Z" transform="translate(-382.998 -202.786)" opacity="0.1"/>
    <rect id="Rectangle_67" data-name="Rectangle 67" width="34.722" height="2.66" transform="translate(75.839 75.474) rotate(-83.17)" fill="#d6d6e3"/>
    <path id="Path_180" data-name="Path 180" d="M398.942,445.682a.316.316,0,0,1-.314.314h-.47a.314.314,0,0,1-.314-.314.151.151,0,0,1,0-.037.314.314,0,0,1,.31-.275h.47a.315.315,0,0,1,.3.238A.288.288,0,0,1,398.942,445.682Z" transform="translate(-332.153 -367.112)" fill="#e3edf9"/>
    <path id="Path_181" data-name="Path 181" d="M406.617,445.682a.316.316,0,0,1-.314.314h-.47a.314.314,0,0,1-.314-.314.308.308,0,0,1,.013-.086.3.3,0,0,1,.079-.134.306.306,0,0,1,.22-.092h.47a.315.315,0,0,1,.288.183A.322.322,0,0,1,406.617,445.682Z" transform="translate(-338.421 -367.112)" fill="#e3edf9"/>
    <path id="Path_182" data-name="Path 182" d="M413.437,445.674a.316.316,0,0,1-.314.314h-.47a.314.314,0,0,1-.314-.314.3.3,0,0,1,.028-.13.319.319,0,0,1,.284-.183h.47a.312.312,0,0,1,.314.314Z" transform="translate(-343.99 -367.104)" fill="#e3edf9"/>
    <path id="Path_183" data-name="Path 183" d="M421.118,445.682a.315.315,0,0,1-.314.314h-.47a.314.314,0,0,1-.257-.493l.037-.04a.306.306,0,0,1,.22-.092h.47a.315.315,0,0,1,.227.1A.3.3,0,0,1,421.118,445.682Z" transform="translate(-350.263 -367.112)" fill="#e3edf9"/>
    <path id="Path_184" data-name="Path 184" d="M398.933,446.66a.289.289,0,0,1,.009.075.316.316,0,0,1-.314.314h-.47a.314.314,0,0,1-.314-.314.151.151,0,0,1,0-.037Z" transform="translate(-332.153 -368.165)" opacity="0.1"/>
    <path id="Path_185" data-name="Path 185" d="M406.591,446.39a.322.322,0,0,1,.026.123.316.316,0,0,1-.314.314h-.47a.314.314,0,0,1-.314-.314.308.308,0,0,1,.013-.086Z" transform="translate(-338.421 -367.945)" opacity="0.1"/>
    <path id="Path_186" data-name="Path 186" d="M413.4,446.16a.313.313,0,0,1-.266.479h-.47a.314.314,0,0,1-.314-.314.3.3,0,0,1,.028-.13Z" transform="translate(-343.998 -367.757)" opacity="0.1"/>
    <path id="Path_187" data-name="Path 187" d="M421.118,446.123a.315.315,0,0,1-.314.314h-.47a.314.314,0,0,1-.257-.493l.954-.033A.3.3,0,0,1,421.118,446.123Z" transform="translate(-350.263 -367.553)" opacity="0.1"/>
    <path id="Path_188" data-name="Path 188" d="M400.961,447.787H391.89v-.413a.706.706,0,0,1,.682-.706l7.275-.251a1.079,1.079,0,0,1,1.115,1.077Z" transform="translate(-327.292 -367.966)" fill="#d6d6e3"/>
    <path id="Path_189" data-name="Path 189" d="M685.309,357.937a1.11,1.11,0,0,0,1.04,1.185h10.984v-1.145h-9.146a.574.574,0,0,1-.442-.858l8.284-16.848a.734.734,0,0,1,.642-.415h4.1V337.93H695.6a.514.514,0,0,0-.442.288l-9.5,18.343A3.118,3.118,0,0,0,685.309,357.937Z" transform="translate(-566.888 -279.38)" fill="#535461"/>
    <path id="Path_190" data-name="Path 190" d="M770.833,278.287l.15.253,1.407-.939-4.353-33.471h-1.121s-.046.154-.121.448C766.044,247.47,762.352,263.853,770.833,278.287Z" transform="translate(-632.247 -202.786)" fill="#535461"/>
    <path id="Path_191" data-name="Path 191" d="M773.23,244.578l4.036,33.71.15.253,1.407-.939-4.351-33.471h-1.121S773.305,244.29,773.23,244.578Z" transform="translate(-638.681 -202.786)" opacity="0.1"/>
    <rect id="Rectangle_68" data-name="Rectangle 68" width="2.66" height="34.722" transform="translate(134.648 41.311) rotate(-6.83)" fill="#d6d6e3"/>
    <path id="Path_192" data-name="Path 192" d="M860,445.682a.316.316,0,0,0,.314.314h.47a.314.314,0,0,0,.314-.314.154.154,0,0,0,0-.037.314.314,0,0,0-.31-.275h-.47a.315.315,0,0,0-.3.238A.289.289,0,0,0,860,445.682Z" transform="translate(-709.534 -367.112)" fill="#e3edf9"/>
    <path id="Path_193" data-name="Path 193" d="M852.327,445.682a.316.316,0,0,0,.314.314h.47a.314.314,0,0,0,.314-.314.31.31,0,0,0-.013-.086.3.3,0,0,0-.079-.134.306.306,0,0,0-.22-.092h-.479a.316.316,0,0,0-.288.183A.322.322,0,0,0,852.327,445.682Z" transform="translate(-703.269 -367.112)" fill="#e3edf9"/>
    <path id="Path_194" data-name="Path 194" d="M845.51,445.674a.316.316,0,0,0,.314.314h.47a.314.314,0,0,0,.314-.314.3.3,0,0,0-.027-.13.319.319,0,0,0-.284-.183h-.47a.312.312,0,0,0-.314.314Z" transform="translate(-697.702 -367.104)" fill="#e3edf9"/>
    <path id="Path_195" data-name="Path 195" d="M837.83,445.682a.315.315,0,0,0,.314.314h.47a.314.314,0,0,0,.257-.493l-.037-.04a.306.306,0,0,0-.22-.092h-.47a.315.315,0,0,0-.227.1A.3.3,0,0,0,837.83,445.682Z" transform="translate(-691.431 -367.112)" fill="#e3edf9"/>
    <path id="Path_196" data-name="Path 196" d="M860.009,446.66a.289.289,0,0,0-.009.075.316.316,0,0,0,.314.314h.47a.314.314,0,0,0,.314-.314.151.151,0,0,0,0-.037Z" transform="translate(-709.534 -368.165)" opacity="0.1"/>
    <path id="Path_197" data-name="Path 197" d="M852.356,446.39a.322.322,0,0,0-.026.123.315.315,0,0,0,.314.314h.47a.314.314,0,0,0,.314-.314.31.31,0,0,0-.013-.086Z" transform="translate(-703.271 -367.945)" opacity="0.1"/>
    <path id="Path_198" data-name="Path 198" d="M845.548,446.16a.313.313,0,0,0,.266.479h.47a.314.314,0,0,0,.314-.314.3.3,0,0,0-.027-.13Z" transform="translate(-697.694 -367.757)" opacity="0.1"/>
    <path id="Path_199" data-name="Path 199" d="M837.83,446.123a.315.315,0,0,0,.314.314h.47a.314.314,0,0,0,.257-.493l-.954-.033A.3.3,0,0,0,837.83,446.123Z" transform="translate(-691.431 -367.553)" opacity="0.1"/>
    <path id="Path_200" data-name="Path 200" d="M822.482,447.787h9.071v-.413a.706.706,0,0,0-.682-.706l-7.275-.251a1.079,1.079,0,0,0-1.115,1.077Z" transform="translate(-678.897 -367.966)" fill="#d6d6e3"/>
    <path id="Path_201" data-name="Path 201" d="M829.091,254.049c4.232-7.178,2.7-21.656,2.869-21.933.152-.244-.431-7.062-4.32-8.728-.7-1.392-1.394-2.961-1.394-2.961a1.237,1.237,0,0,1-.224.167q-.046-.125-.09-.253c-.049-.145-.1-.294-.141-.442a2.85,2.85,0,0,0,.332.084,1.383,1.383,0,0,0,.888-.079.988.988,0,0,0,.255-.2,1.933,1.933,0,0,0,.618-.917l1.132-2.711a21.1,21.1,0,0,0,1.3-3.751,10.562,10.562,0,0,0-.451-5.844,3.729,3.729,0,0,0-1.268-1.849c-1.26-.855-3.014-.264-4.454-.765-.473-.165-.9-.444-1.374-.613a4.225,4.225,0,0,0-3.159.286,15.03,15.03,0,0,0-2.64,1.834c-.424.325-1.1.66-1.6,1.1a1.611,1.611,0,0,0-.785,1.436c.081.688.805,1.1,1.48,1.262.112.026.227.046.341.066a6.6,6.6,0,0,0,2.819,10.969,15.471,15.471,0,0,1,.891,2q.049.141.1.284a11.45,11.45,0,0,0-2.155.723c-.526.437.576,4.259.576,4.259-.281.356-.567.761-.857,1.2a25.782,25.782,0,0,0-4.065,11.111c-.183,1.451-.422,2.935-.725,4.346L799.839,241.5l-.028.325-.314-.077h0l-.987-.244-.039.222-.15-.072c-2.445-1.146-6.565-2.61-9.355-1.1-2.944,1.585,3.41,3.691,7.488,4.811a6.624,6.624,0,0,0-3.669,1.15c-2.957,2.216,5.406,3.37,9.355,3.779l.16.017v.084l1.368.127.321.029.031.488s1.959.321,4.577.71a79.829,79.829,0,0,1-9.245,1.567,6.764,6.764,0,0,0-5.764,4.852,4.315,4.315,0,0,0-.066,2.333c.763,2.665-.169,22.273-.38,26.5l-4.833,2.783s-7.521.917-2.511,2.68a10.3,10.3,0,0,0,1.381.367c-.66.426-.6.981,1.343,1.664,5.013,1.757,16.667-.077,16.667-.077s-.255-2.065-.67-3.782l.128.011s-1.2-4.478.622-6.736-.306-19.444-.306-19.444,3.2-1.323,12.747-1.409c7.7,1.977,11.459-5.1,11.406-8.761A1.936,1.936,0,0,1,829.091,254.049Z" transform="translate(-647.539 -169.255)" fill="url(#linear-gradient)"/>
    <path id="Path_202" data-name="Path 202" d="M821.644,408.1l-.816,3.3s-.734-.165-1.834-.448c-3.727-.965-11.589-3.282-8.438-4.982,2.717-1.467,6.717-.04,9.093,1.073.87.409,1.523.776,1.814.948C821.585,408.065,821.644,408.1,821.644,408.1Z" transform="translate(-668.564 -334.431)" fill="#f8b9bf"/>
    <path id="Path_203" data-name="Path 203" d="M862.221,416.662l-.587,2.385s-.734-.165-1.834-.448l.662-3.909c.87.409,1.523.776,1.814.948Z" transform="translate(-709.371 -342.059)" opacity="0.1"/>
    <path id="Path_204" data-name="Path 204" d="M823.168,399.838l-2.278-.563.708-4.175,1.822.449Z" transform="translate(-670.316 -322.625)" fill="#d9dfe8"/>
    <path id="Path_205" data-name="Path 205" d="M828.933,400.891l-.983-.242.371-4.259.864.213Z" transform="translate(-676.081 -323.679)" opacity="0.1"/>
    <path id="Path_206" data-name="Path 206" d="M891.792,343.5s-4.375-2.528-6.319,4.723a59.511,59.511,0,0,0-2.128,10.591l-13.816-2.763-.438,5.046s14.772,4.769,16.63,4.423,7.888-10.456,7.888-10.456S899.089,347.232,891.792,343.5Z" transform="translate(-716.957 -283.581)" fill="#b24b8e"/>
    <g id="Group_15" data-name="Group 15" transform="translate(141.262 59.677)" opacity="0.1">
      <path id="Path_207" data-name="Path 207" d="M821.644,408.1l-.816,3.3s-.734-.165-1.834-.448c-3.727-.965-11.589-3.282-8.438-4.982,2.717-1.467,6.717-.04,9.093,1.073.87.409,1.523.776,1.814.948C821.585,408.065,821.644,408.1,821.644,408.1Z" transform="translate(-809.826 -394.108)"/>
      <path id="Path_208" data-name="Path 208" d="M862.221,416.662l-.587,2.385s-.734-.165-1.834-.448l.662-3.909c.87.409,1.523.776,1.814.948Z" transform="translate(-850.633 -401.737)" opacity="0.1"/>
      <path id="Path_209" data-name="Path 209" d="M823.168,399.838l-2.278-.563.708-4.175,1.822.449Z" transform="translate(-811.578 -382.303)"/>
      <path id="Path_210" data-name="Path 210" d="M828.933,400.891l-.983-.242.371-4.259.864.213Z" transform="translate(-817.343 -383.356)" opacity="0.1"/>
      <path id="Path_211" data-name="Path 211" d="M891.792,344.5s-4.375-2.528-6.319,4.723a59.511,59.511,0,0,0-2.128,10.591l-13.816-2.763-.438,5.046s14.772,4.769,16.63,4.423,7.888-10.456,7.888-10.456S899.089,348.232,891.792,344.5Z" transform="translate(-858.219 -344.075)"/>
    </g>
    <path id="Path_212" data-name="Path 212" d="M797.734,650.229l-5.641,3.249s-7.308.9-2.44,2.6S805.84,656,805.84,656s-.629-5.085-1.506-5.795S797.734,650.229,797.734,650.229Z" transform="translate(-650.727 -534.122)" fill="#68739d"/>
    <path id="Path_213" data-name="Path 213" d="M858.741,452.626a39.26,39.26,0,0,1-7.792,2.735,78.1,78.1,0,0,1-9.108,1.552,6.569,6.569,0,0,0-5.6,4.7,4.189,4.189,0,0,0-.064,2.275c.831,2.9-.409,26.508-.409,26.508l8.566.792s-1.168-4.349.605-6.541-.3-18.877-.3-18.877,3.1-1.284,12.378-1.368c8.592,2.2,12.132-7.2,10.806-9.839S858.741,452.626,858.741,452.626Z" transform="translate(-689.749 -372.969)" fill="#67b1c3"/>
    <g id="Group_16" data-name="Group 16" transform="translate(137.255 79.574)" opacity="0.1">
      <path id="Path_214" data-name="Path 214" d="M797.734,650.229l-5.641,3.249s-7.308.9-2.44,2.6S805.84,656,805.84,656s-.629-5.085-1.506-5.795S797.734,650.229,797.734,650.229Z" transform="translate(-787.982 -613.696)"/>
      <path id="Path_215" data-name="Path 215" d="M858.741,452.626a39.26,39.26,0,0,1-7.792,2.735,78.1,78.1,0,0,1-9.108,1.552,6.569,6.569,0,0,0-5.6,4.7,4.189,4.189,0,0,0-.064,2.275c.831,2.9-.409,26.508-.409,26.508l8.566.792s-1.168-4.349.605-6.541-.3-18.877-.3-18.877,3.1-1.284,12.378-1.368c8.592,2.2,12.132-7.2,10.806-9.839S858.741,452.626,858.741,452.626Z" transform="translate(-827.004 -452.543)"/>
    </g>
    <path id="Path_216" data-name="Path 216" d="M812.161,660.979l-5.641,3.249s-7.3.888-2.44,2.6,16.186-.075,16.186-.075-.629-5.085-1.506-5.795S812.161,660.979,812.161,660.979Z" transform="translate(-662.508 -542.9)" fill="#68739d"/>
    <path id="Path_217" data-name="Path 217" d="M871.393,475.139c-9.274.084-12.378,1.368-12.378,1.368s2.071,16.693.3,18.877-.605,6.541-.605,6.541l-8.566-.792s.015-.279.039-.778c.205-4.1,1.11-23.142.367-25.73a4.189,4.189,0,0,1,.064-2.267,6.571,6.571,0,0,1,5.6-4.712,75.876,75.876,0,0,0,9.106-1.552l.143-.037a38.927,38.927,0,0,0,7.649-2.7s7.761-.7,9.087,1.939a3.119,3.119,0,0,1,.271,1.33C882.529,470.184,878.879,477.059,871.393,475.139Z" transform="translate(-701.483 -381.733)" fill="#67b1c3"/>
    <path id="Path_218" data-name="Path 218" d="M842.736,435.776l-.314,3.394s-.754-.053-1.875-.171c-3.828-.4-11.949-1.517-9.078-3.669,2.469-1.849,6.637-1.042,9.152-.294.917.275,1.622.541,1.935.668C842.672,435.748,842.736,435.776,842.736,435.776Z" transform="translate(-685.746 -357.99)" fill="#f8b9bf"/>
    <path id="Path_219" data-name="Path 219" d="M976.143,283.943s-1.148.9-2.552,1.886c-1.539.349-3.326.637-4.613.824a7.324,7.324,0,0,0-.336-4.566,17.188,17.188,0,0,0-2.3-4.234l7.763-2.423a7.132,7.132,0,0,0,.183,4.832A15.932,15.932,0,0,0,976.143,283.943Z" transform="translate(-796.368 -228.345)" fill="#f8b9bf"/>
    <path id="Path_220" data-name="Path 220" d="M885.74,440.447l-.226,2.438s-.754-.053-1.875-.171l.073-3.964c.917.275,1.622.541,1.935.668Z" transform="translate(-728.838 -361.706)" opacity="0.1"/>
    <path id="Path_221" data-name="Path 221" d="M847.117,423.52l-2.337-.216.077-4.234,1.869.172Z" transform="translate(-689.824 -342.198)" fill="#d9dfe8"/>
    <path id="Path_222" data-name="Path 222" d="M986.391,305.411s-1.148.9-2.552,1.886c-1.539.349-3.326.637-4.613.824a7.324,7.324,0,0,0-.336-4.566,40.592,40.592,0,0,0,5.646-1.834A15.928,15.928,0,0,0,986.391,305.411Z" transform="translate(-806.616 -249.812)" opacity="0.1"/>
    <path id="Path_223" data-name="Path 223" d="M975.322,302.22s1.3,2.948,2.117,4.28-9.506,2.568-9.506,2.568-1.071-3.711-.559-4.136S974.458,303.082,975.322,302.22Z" transform="translate(-797.099 -250.22)" fill="#d9dfe8"/>
    <path id="Path_224" data-name="Path 224" d="M950.685,466.629a9.288,9.288,0,0,1-1.607,2.08c-4.56,4.333-12.035-.183-15.409-2.652a38.927,38.927,0,0,0,7.649-2.7s7.761-.7,9.087,1.939A3.118,3.118,0,0,1,950.685,466.629Z" transform="translate(-769.691 -381.733)" opacity="0.1"/>
    <path id="Path_225" data-name="Path 225" d="M941.514,348.105c-5.184,4.923-14.124-1.6-16.535-3.516-.391-.312-.609-.5-.609-.5a12.028,12.028,0,0,0,2.451-5.092,44.686,44.686,0,0,0,1.333-6.747,25.04,25.04,0,0,1,3.948-10.791c.281-.422.55-.816.831-1.161a17.04,17.04,0,0,1,5.246-4.07c6.941-2.029,7.875,8.267,7.69,8.565S947.54,342.38,941.514,348.105Z" transform="translate(-762.097 -261.438)" fill="#b24b8e"/>
    <path id="Path_226" data-name="Path 226" d="M942.185,363.88s-4.463,10.9-6.248,11.518c-1.022.354-6.479-.317-10.958-.958-.391-.312-.609-.5-.609-.5a12.028,12.028,0,0,0,2.451-5.092l5.769.275a58.914,58.914,0,0,1,.526-10.79c.847-7.462,5.545-5.613,5.545-5.613C946.433,355.319,942.185,363.88,942.185,363.88Z" transform="translate(-762.097 -291.288)" opacity="0.1"/>
    <path id="Path_227" data-name="Path 227" d="M851.837,423.928l-1.009-.094-.268-4.265.886.081Z" transform="translate(-694.544 -342.607)" opacity="0.1"/>
    <path id="Path_228" data-name="Path 228" d="M911.987,350.1s-4.7-1.847-5.545,5.613a58.906,58.906,0,0,0-.526,10.79l-14.075-.673.317,5.055s15.319,2.515,17.1,1.895,6.248-11.518,6.248-11.518S919.751,352.7,911.987,350.1Z" transform="translate(-735.534 -289.15)" fill="#b24b8e"/>
    <path id="Path_229" data-name="Path 229" d="M974.965,281.21c-.205-1.115.959-1.1,1.378-2.15l-7.763,2.423a17.128,17.128,0,0,1,1.438,2.287,6.443,6.443,0,0,0,1.235.238C973.1,284.185,973.681,282.364,974.965,281.21Z" transform="translate(-798.197 -231.309)" opacity="0.1"/>
    <circle id="Ellipse_27" data-name="Ellipse 27" cx="6.413" cy="6.413" r="6.413" transform="translate(166.253 51.44) rotate(-84.72)" fill="#f8b9bf"/>
    <path id="Path_230" data-name="Path 230" d="M949.562,215.644c.079.668.783,1.075,1.438,1.225a6.3,6.3,0,0,1,1.939.508,2.976,2.976,0,0,1,1.049,2.9c-.064.609-.156,1.356.343,1.71a1.33,1.33,0,0,0,.514.183,4.816,4.816,0,0,0,1.581.055,2.248,2.248,0,0,1,.917-.024,1.4,1.4,0,0,1,.858,1.135c.094.49.042,1,.117,1.493a3.1,3.1,0,0,0,2.443,2.52,1.345,1.345,0,0,0,.862-.077,1.723,1.723,0,0,0,.677-.939l1.1-2.634a20.516,20.516,0,0,0,1.258-3.643,10.257,10.257,0,0,0-.438-5.675,3.637,3.637,0,0,0-1.231-1.8c-1.224-.831-2.935-.257-4.325-.734-.46-.16-.875-.431-1.334-.594a4.107,4.107,0,0,0-3.069.279,14.514,14.514,0,0,0-2.568,1.788C950.967,213.89,949.424,214.49,949.562,215.644Z" transform="translate(-782.66 -175.791)" opacity="0.1"/>
    <path id="Path_231" data-name="Path 231" d="M950.483,214.874c.079.668.783,1.075,1.438,1.225a6.3,6.3,0,0,1,1.939.508,2.976,2.976,0,0,1,1.049,2.9c-.064.609-.156,1.356.343,1.71a1.33,1.33,0,0,0,.514.183,4.817,4.817,0,0,0,1.581.055,2.248,2.248,0,0,1,.917-.024,1.4,1.4,0,0,1,.858,1.135c.094.49.042,1,.117,1.493a3.1,3.1,0,0,0,2.443,2.52,1.345,1.345,0,0,0,.862-.077,1.723,1.723,0,0,0,.677-.939l1.1-2.634a20.521,20.521,0,0,0,1.258-3.643,10.258,10.258,0,0,0-.438-5.675,3.637,3.637,0,0,0-1.231-1.8c-1.224-.831-2.935-.257-4.325-.734-.46-.16-.875-.431-1.334-.594a4.107,4.107,0,0,0-3.069.279,14.514,14.514,0,0,0-2.568,1.788C951.89,213.12,950.347,213.72,950.483,214.874Z" transform="translate(-783.412 -175.162)" fill="#b96b6b"/>
    <path id="Path_232" data-name="Path 232" d="M950.613,373.34s-2.449,9.513-4.887,10.393-1.361,1.13-1.361,1.13" transform="translate(-778.231 -308.294)" opacity="0.1"/>
    <rect id="Rectangle_69" data-name="Rectangle 69" width="2.662" height="17.494" transform="translate(169.836 99.894)" fill="#d6d6e3"/>
    <rect id="Rectangle_70" data-name="Rectangle 70" width="2.662" height="1.297" transform="translate(169.836 99.894)" opacity="0.1"/>
    <path id="Path_233" data-name="Path 233" d="M936.57,558.99v.367a.86.86,0,0,0,.86.86H949.02a.86.86,0,0,0,.86-.86v-.367a.86.86,0,0,0-.86-.86H937.43A.86.86,0,0,0,936.57,558.99Z" transform="translate(-772.059 -459.188)" fill="#d6d6e3"/>
    <path id="Path_234" data-name="Path 234" d="M937.65,558.444h12.916a.857.857,0,0,0-.664-.314H938.312A.857.857,0,0,0,937.65,558.444Z" transform="translate(-772.941 -459.188)" opacity="0.1"/>
    <rect id="Rectangle_71" data-name="Rectangle 71" width="21.867" height="2.091" rx="1.046" transform="translate(160.235 116.436)" fill="#d6d6e3"/>
    <circle id="Ellipse_28" data-name="Ellipse 28" cx="1.332" cy="1.332" r="1.332" transform="translate(179.535 118.528)" fill="#535461"/>
    <circle id="Ellipse_29" data-name="Ellipse 29" cx="1.332" cy="1.332" r="1.332" transform="translate(160.138 118.528)" fill="#535461"/>
    <circle id="Ellipse_30" data-name="Ellipse 30" cx="1.332" cy="1.332" r="1.332" transform="translate(169.836 118.528)" fill="#535461"/>
    <rect id="Rectangle_72" data-name="Rectangle 72" width="20.917" height="3.232" rx="1.616" transform="translate(168.34 78.407)" fill="#d6d6e3"/>
    <path id="Path_235" data-name="Path 235" d="M968.262,653.5a2.1,2.1,0,0,1-2.662,0" transform="translate(-795.764 -537.064)" opacity="0.1"/>
    <path id="Path_236" data-name="Path 236" d="M978.357,455.17v.255a1.33,1.33,0,0,1-1.33,1.33H958.77a1.33,1.33,0,0,1-1.33-1.33v-.255Z" transform="translate(-789.1 -375.114)" opacity="0.1"/>
    <rect id="Rectangle_73" data-name="Rectangle 73" width="3.597" height="45.833" transform="translate(150.858 83.028)" fill="#d6d6e3"/>
    <rect id="Rectangle_74" data-name="Rectangle 74" width="3.597" height="2.972" transform="translate(150.858 83.028)" opacity="0.1"/>
    <rect id="Rectangle_75" data-name="Rectangle 75" width="2.662" height="17.494" transform="translate(42.724 101.145)" fill="#d6d6e3"/>
    <rect id="Rectangle_76" data-name="Rectangle 76" width="2.662" height="1.297" transform="translate(42.724 101.145)" opacity="0.1"/>
    <path id="Path_237" data-name="Path 237" d="M256.92,565.853v.367a.86.86,0,0,1-.86.86H244.47a.86.86,0,0,1-.86-.86v-.367a.86.86,0,0,1,.86-.853H256.06a.86.86,0,0,1,.86.86Z" transform="translate(-206.211 -464.797)" fill="#d6d6e3"/>
    <path id="Path_238" data-name="Path 238" d="M257.6,565.3H244.68a.856.856,0,0,1,.664-.3h11.589a.856.856,0,0,1,.664.3Z" transform="translate(-207.085 -464.797)" opacity="0.1"/>
    <rect id="Rectangle_77" data-name="Rectangle 77" width="21.867" height="2.091" rx="1.046" transform="translate(33.121 117.687)" fill="#d6d6e3"/>
    <circle id="Ellipse_31" data-name="Ellipse 31" cx="1.332" cy="1.332" r="1.332" transform="translate(33.026 119.779)" fill="#535461"/>
    <circle id="Ellipse_32" data-name="Ellipse 32" cx="1.332" cy="1.332" r="1.332" transform="translate(52.42 119.779)" fill="#535461"/>
    <circle id="Ellipse_33" data-name="Ellipse 33" cx="1.332" cy="1.332" r="1.332" transform="translate(42.722 119.779)" fill="#535461"/>
    <path id="Path_239" data-name="Path 239" d="M272.64,660.32a2.1,2.1,0,0,0,2.662,0" transform="translate(-229.916 -542.633)" opacity="0.1"/>
    <path id="Path_240" data-name="Path 240" d="M625.817,290.51s-2.986-5.428-1.895-10.146a9.386,9.386,0,0,0-.523-5.914,15.786,15.786,0,0,0-1.4-2.52" transform="translate(-515.192 -225.487)" fill="none" stroke="#535461" stroke-miterlimit="10" stroke-width="2"/>
    <path id="Path_241" data-name="Path 241" d="M613.884,250.637a10.464,10.464,0,0,1-.679,3.058,10.479,10.479,0,0,1-1.9-2.491,1.319,1.319,0,1,1,2.568-.567Z" transform="translate(-506.414 -207.173)" fill="#6c63ff"/>
    <path id="Path_242" data-name="Path 242" d="M630.62,266.482c-.255.682-2.231,2.2-2.231,2.2a10.391,10.391,0,0,1-.238-3.118,1.319,1.319,0,1,1,2.471.917Z" transform="translate(-520.154 -219.546)" fill="#6c63ff"/>
    <path id="Path_243" data-name="Path 243" d="M635.986,301.016a10.435,10.435,0,0,1-3.036.77,10.457,10.457,0,0,1,1.37-2.816,1.319,1.319,0,0,1,1.666,2.045Z" transform="translate(-524.133 -247.325)" fill="#6c63ff"/>
    <path id="Path_244" data-name="Path 244" d="M636.212,330.716a10.4,10.4,0,0,1-2.862,1.273,10.443,10.443,0,0,1,.873-3.007,1.319,1.319,0,1,1,1.987,1.733Z" transform="translate(-524.46 -271.679)" fill="#6c63ff"/>
    <path id="Path_245" data-name="Path 245" d="M612.284,279.613a10.4,10.4,0,0,0,3.109.367,10.427,10.427,0,0,0-1.721-2.616,1.319,1.319,0,1,0-1.389,2.242Z" transform="translate(-506.723 -229.747)" fill="#6c63ff"/>
    <path id="Path_246" data-name="Path 246" d="M610.813,313.194a10.355,10.355,0,0,0,3.078-.572,10.421,10.421,0,0,0-2.425-1.981,1.319,1.319,0,0,0-.653,2.553Z" transform="translate(-505.289 -257.072)" fill="#6c63ff"/>
    <path id="Path_247" data-name="Path 247" d="M615.853,346.624a10.46,10.46,0,0,0,3.131-.044,10.469,10.469,0,0,0-2.054-2.363,1.319,1.319,0,1,0-1.077,2.408Z" transform="translate(-509.534 -284.42)" fill="#6c63ff"/>
    <path id="Path_248" data-name="Path 248" d="M613.884,250.637a10.464,10.464,0,0,1-.679,3.058,10.479,10.479,0,0,1-1.9-2.491,1.319,1.319,0,1,1,2.568-.567Z" transform="translate(-506.414 -207.173)" fill="#6c63ff"/>
    <path id="Path_249" data-name="Path 249" d="M630.62,266.482c-.255.682-2.231,2.2-2.231,2.2a10.391,10.391,0,0,1-.238-3.118,1.319,1.319,0,1,1,2.471.917Z" transform="translate(-520.154 -219.546)" fill="#6c63ff"/>
    <path id="Path_250" data-name="Path 250" d="M635.986,301.016a10.435,10.435,0,0,1-3.036.77,10.457,10.457,0,0,1,1.37-2.816,1.319,1.319,0,0,1,1.666,2.045Z" transform="translate(-524.133 -247.325)" fill="#6c63ff"/>
    <path id="Path_251" data-name="Path 251" d="M636.212,330.716a10.4,10.4,0,0,1-2.862,1.273,10.443,10.443,0,0,1,.873-3.007,1.319,1.319,0,1,1,1.987,1.733Z" transform="translate(-524.46 -271.679)" fill="#6c63ff"/>
    <path id="Path_252" data-name="Path 252" d="M612.284,279.613a10.4,10.4,0,0,0,3.109.367,10.427,10.427,0,0,0-1.721-2.616,1.319,1.319,0,1,0-1.389,2.242Z" transform="translate(-506.723 -229.747)" fill="#6c63ff"/>
    <path id="Path_253" data-name="Path 253" d="M610.813,313.194a10.355,10.355,0,0,0,3.078-.572,10.421,10.421,0,0,0-2.425-1.981,1.319,1.319,0,0,0-.653,2.553Z" transform="translate(-505.289 -257.072)" fill="#6c63ff"/>
    <path id="Path_254" data-name="Path 254" d="M615.853,346.624a10.46,10.46,0,0,0,3.131-.044,10.469,10.469,0,0,0-2.054-2.363,1.319,1.319,0,1,0-1.077,2.408Z" transform="translate(-509.534 -284.42)" fill="#6c63ff"/>
    <path id="Path_255" data-name="Path 255" d="M622.191,378.435h0a3.144,3.144,0,0,1-3.139-3.342l.879-13.923h4.52l.879,13.923a3.144,3.144,0,0,1-3.139,3.342Z" transform="translate(-512.779 -298.357)" fill="#2a2e5e"/>
    <rect id="Rectangle_78" data-name="Rectangle 78" width="2.568" height="10.639" transform="translate(15.33 11.633)" fill="#6c63ff" opacity="0.1"/>
    <rect id="Rectangle_79" data-name="Rectangle 79" width="2.568" height="10.639" transform="translate(18.632 11.633)" fill="#6c63ff" opacity="0.1"/>
    <rect id="Rectangle_80" data-name="Rectangle 80" width="2.568" height="10.639" transform="translate(21.933 11.633)" fill="#6c63ff" opacity="0.1"/>
    <rect id="Rectangle_81" data-name="Rectangle 81" width="2.568" height="10.639" transform="translate(25.235 11.633)" fill="#6c63ff" opacity="0.1"/>
    <rect id="Rectangle_82" data-name="Rectangle 82" width="2.568" height="10.639" transform="translate(31.839 11.633)" fill="#6c63ff" opacity="0.1"/>
    <rect id="Rectangle_83" data-name="Rectangle 83" width="2.568" height="10.639" transform="translate(35.141 11.633)" fill="#6c63ff" opacity="0.1"/>
    <rect id="Rectangle_84" data-name="Rectangle 84" width="2.568" height="0.55" transform="translate(15.33 13.651)" fill="#6c63ff" opacity="0.1"/>
    <rect id="Rectangle_85" data-name="Rectangle 85" width="2.568" height="0.55" transform="translate(15.33 20.255)" fill="#6c63ff" opacity="0.1"/>
    <rect id="Rectangle_86" data-name="Rectangle 86" width="2.568" height="0.55" transform="translate(18.632 13.651)" fill="#6c63ff" opacity="0.1"/>
    <rect id="Rectangle_87" data-name="Rectangle 87" width="2.568" height="0.55" transform="translate(18.632 20.255)" fill="#6c63ff" opacity="0.1"/>
    <rect id="Rectangle_88" data-name="Rectangle 88" width="2.568" height="0.55" transform="translate(21.933 13.651)" fill="#6c63ff" opacity="0.1"/>
    <rect id="Rectangle_89" data-name="Rectangle 89" width="2.568" height="0.55" transform="translate(21.933 20.255)" fill="#6c63ff" opacity="0.1"/>
    <rect id="Rectangle_90" data-name="Rectangle 90" width="2.568" height="0.55" transform="translate(25.235 13.651)" fill="#6c63ff" opacity="0.1"/>
    <rect id="Rectangle_91" data-name="Rectangle 91" width="2.568" height="0.55" transform="translate(25.235 20.255)" fill="#6c63ff" opacity="0.1"/>
    <rect id="Rectangle_92" data-name="Rectangle 92" width="2.568" height="0.55" transform="translate(28.537 13.651)" fill="#6c63ff" opacity="0.1"/>
    <rect id="Rectangle_93" data-name="Rectangle 93" width="2.568" height="0.55" transform="translate(28.537 20.255)" fill="#6c63ff" opacity="0.1"/>
    <rect id="Rectangle_94" data-name="Rectangle 94" width="2.568" height="0.55" transform="translate(31.839 13.651)" fill="#6c63ff" opacity="0.1"/>
    <rect id="Rectangle_95" data-name="Rectangle 95" width="2.568" height="0.55" transform="translate(31.839 20.255)" fill="#6c63ff" opacity="0.1"/>
    <rect id="Rectangle_96" data-name="Rectangle 96" width="2.568" height="0.55" transform="translate(35.141 13.651)" fill="#6c63ff" opacity="0.1"/>
    <rect id="Rectangle_97" data-name="Rectangle 97" width="2.568" height="0.55" transform="translate(35.141 20.255)" fill="#6c63ff" opacity="0.1"/>
    <rect id="Rectangle_98" data-name="Rectangle 98" width="2.568" height="10.639" transform="translate(28.537 11.633)" fill="#6c63ff" opacity="0.1"/>
    <rect id="Rectangle_99" data-name="Rectangle 99" width="2.568" height="10.639" transform="translate(37.793 12.663) rotate(-24.84)" fill="#6c63ff" opacity="0.1"/>
    <rect id="Rectangle_100" data-name="Rectangle 100" width="2.568" height="0.55" transform="translate(38.641 14.496) rotate(-24.84)" fill="#6c63ff" opacity="0.1"/>
    <rect id="Rectangle_101" data-name="Rectangle 101" width="2.568" height="0.55" transform="translate(41.414 20.488) rotate(-24.84)" fill="#6c63ff" opacity="0.1"/>
    <path id="Path_256" data-name="Path 256" d="M248.224,285.308l-4.661-2.973c-.024-4.188-.09-23.63.781-26.231a4.272,4.272,0,0,0,.037-2.313,6.7,6.7,0,0,0-5.49-5.052,78.894,78.894,0,0,1-9.08-1.954c2.607-.27,4.56-.5,4.56-.5l.051-.482,1.678-.081v-.072l.16-.009c3.92-.233,12.244-1.009,9.416-3.331a6.523,6.523,0,0,0-3.571-1.3c4.083-.932,10.465-2.737,7.62-4.434-2.7-1.611-6.844-.345-9.315.684l-.152.064-.028-.222-.987.2h0l-.314.062-.015-.323-13.847,2.139a47.257,47.257,0,0,0-.565-4.734c.31-2.065,1.752-5.077,1.244-6.694-.591-1.877-3.016-2.491-4.036-4.186-.268-.442-.534-.857-.794-1.22a12.841,12.841,0,0,0-1.954-2.111,8.915,8.915,0,0,1,.719-3.164,15.328,15.328,0,0,1,.969-1.944,6.53,6.53,0,0,0,4.85-7.521,2.05,2.05,0,0,0,2.491-.319l-.26-.1a.827.827,0,0,0,.073-.086,4.923,4.923,0,0,1-1.519-.805,1.778,1.778,0,0,1-.266-.394c-.253-.514-.224-1.13-.466-1.651a1.91,1.91,0,0,0-.475-.62,3.271,3.271,0,0,0-1.552-.888,19.62,19.62,0,0,1-1.994-.55,6.741,6.741,0,0,0-7.174-2.018l-.229.079a2.992,2.992,0,1,0-5.836-1.321,2.984,2.984,0,0,1,.8-1.787c-.048.04-.1.079-.143.121a2.994,2.994,0,0,0-.13,4.232l.053.051a3.007,3.007,0,0,0,.75.657,2.994,2.994,0,0,1-1.974-2.453v.183a2.994,2.994,0,0,0,3.183,2.814l.083-.009-.044.061a6.734,6.734,0,0,0,.605,8.337,3.119,3.119,0,0,0,.481.77,2.492,2.492,0,0,0,.222.224,2.845,2.845,0,0,0,1.919.884q.183.218.391.42a10.918,10.918,0,0,1-.473,1.511,16.021,16.021,0,0,1-1.453,2.8c-3.962,1.126-4.311,7.855-4.168,8.11a104.211,104.211,0,0,0,2.344,23.634c-.121,3.649,2.007,9.682,9.561,8.091,9.447.5,12.545,1.952,12.545,1.952s-.9,16.43.383,18.822c.8,1.5.233,3.7-.367,5.254a5.772,5.772,0,0,0-.528,1.218c-.183.387-.317.622-.317.622h.128c-.484,1.682-.827,3.713-.827,3.713s11.452,2.324,16.489.8c1.955-.591,2.036-1.137,1.4-1.589a10.2,10.2,0,0,0,1.383-.3C255.631,286.553,248.224,285.308,248.224,285.308Z" transform="translate(-176.848 -163.972)" fill="url(#linear-gradient-2)"/>
    <path id="Path_257" data-name="Path 257" d="M234.207,225.6a6.6,6.6,0,1,1-6.6-6.6A6.6,6.6,0,0,1,234.207,225.6Z" transform="translate(-187.749 -182.266)" fill="#fa595f"/>
    <path id="Path_258" data-name="Path 258" d="M374.09,413.52l.67,3.342s.745-.134,1.847-.367c3.766-.8,11.723-2.768,8.642-4.606-2.651-1.579-6.71-.338-9.131.671-.888.367-1.556.708-1.855.868C374.151,413.485,374.09,413.52,374.09,413.52Z" transform="translate(-312.757 -339.158)" fill="#f8b9bf"/>
    <path id="Path_259" data-name="Path 259" d="M375.047,420.8l.481,2.4s.745-.134,1.847-.367l-.49-3.935c-.888.367-1.556.708-1.855.868Z" transform="translate(-313.524 -345.497)" opacity="0.1"/>
    <path id="Path_260" data-name="Path 260" d="M334.512,403.983l2.3-.46-.521-4.2-1.842.369Z" transform="translate(-273.106 -326.071)" fill="#d9dfe8"/>
    <path id="Path_261" data-name="Path 261" d="M334.512,404.848l.992-.2-.182-4.269-.873.174Z" transform="translate(-273.106 -326.937)" opacity="0.1"/>
    <path id="Path_262" data-name="Path 262" d="M240.887,342.429s4.478-2.333,6.1,5a58.351,58.351,0,0,1,1.651,10.674l13.926-2.152.216,5.061s-14.968,4.114-16.808,3.685-7.425-10.8-7.425-10.8S233.434,345.839,240.887,342.429Z" transform="translate(-200.681 -282.765)" fill="#db8141"/>
    <g id="Group_17" data-name="Group 17" transform="translate(36.523 59.677)" opacity="0.1">
      <path id="Path_263" data-name="Path 263" d="M374.09,413.52l.67,3.342s.745-.134,1.847-.367c3.766-.8,11.723-2.768,8.642-4.606-2.651-1.579-6.71-.338-9.131.671-.888.367-1.556.708-1.855.868C374.151,413.485,374.09,413.52,374.09,413.52Z" transform="translate(-349.28 -398.835)"/>
      <path id="Path_264" data-name="Path 264" d="M375.047,420.8l.481,2.4s.745-.134,1.847-.367l-.49-3.935c-.888.367-1.556.708-1.855.868Z" transform="translate(-350.048 -405.175)" opacity="0.1"/>
      <path id="Path_265" data-name="Path 265" d="M334.512,403.983l2.3-.46-.521-4.2-1.842.369Z" transform="translate(-309.629 -385.749)"/>
      <path id="Path_266" data-name="Path 266" d="M334.512,404.848l.992-.2-.182-4.269-.873.174Z" transform="translate(-309.629 -386.614)" opacity="0.1"/>
      <path id="Path_267" data-name="Path 267" d="M242.887,344.429s4.478-2.333,6.1,5a58.351,58.351,0,0,1,1.651,10.674l13.926-2.152.216,5.061s-14.968,4.114-16.808,3.685-7.425-10.8-7.425-10.8S235.434,347.839,242.887,344.429Z" transform="translate(-238.838 -344.076)"/>
    </g>
    <path id="Path_268" data-name="Path 268" d="M359.822,654.261l5.492,3.485s7.262,1.216,2.322,2.707-16.166-.789-16.166-.789.853-5.052,1.761-5.721S359.822,654.261,359.822,654.261Z" transform="translate(-294.286 -537.235)" fill="#f37291"/>
    <path id="Path_269" data-name="Path 269" d="M243.692,451.979a39.209,39.209,0,0,0,7.664,3.076,76.442,76.442,0,0,0,9.029,1.954,6.569,6.569,0,0,1,5.384,4.953,4.19,4.19,0,0,1-.035,2.267c-.958,2.865-.763,26.5-.763,26.5l-8.592.413s1.359-4.294-.316-6.561,1.13-18.844,1.13-18.844-3.043-1.42-12.307-1.913c-8.682,1.834-11.8-7.732-10.36-10.307S243.692,451.979,243.692,451.979Z" transform="translate(-198.518 -372.34)" fill="#96a2d0"/>
    <g id="Group_18" data-name="Group 18" transform="translate(35.67 79.433)" opacity="0.1">
      <path id="Path_270" data-name="Path 270" d="M359.822,654.261l5.492,3.485s7.262,1.216,2.322,2.707-16.166-.789-16.166-.789.853-5.052,1.761-5.721S359.822,654.261,359.822,654.261Z" transform="translate(-329.956 -616.668)"/>
      <path id="Path_271" data-name="Path 271" d="M243.692,451.979a39.209,39.209,0,0,0,7.664,3.076,76.442,76.442,0,0,0,9.029,1.954,6.569,6.569,0,0,1,5.384,4.953,4.19,4.19,0,0,1-.035,2.267c-.958,2.865-.763,26.5-.763,26.5l-8.592.413s1.359-4.294-.316-6.561,1.13-18.844,1.13-18.844-3.043-1.42-12.307-1.913c-8.682,1.834-11.8-7.732-10.36-10.307S243.692,451.979,243.692,451.979Z" transform="translate(-234.188 -451.772)"/>
    </g>
    <path id="Path_272" data-name="Path 272" d="M344.9,664.371l5.492,3.485s7.262,1.216,2.322,2.708-16.166-.789-16.166-.789.853-5.052,1.761-5.721S344.9,664.371,344.9,664.371Z" transform="translate(-282.103 -545.491)" fill="#f37291"/>
    <path id="Path_273" data-name="Path 273" d="M235.912,474.755c9.263.493,12.307,1.913,12.307,1.913s-.879,16.109.367,18.453c1.33,2.487-1.189,6.952-1.189,6.952l8.592-.413v-.778c-.026-4.105-.088-23.168.765-25.723a4.19,4.19,0,0,0,.035-2.267,6.571,6.571,0,0,0-5.384-4.953,75.979,75.979,0,0,1-9.029-1.952l-.141-.044a38.471,38.471,0,0,1-7.521-3.032s-5.721-.4-7.154,2.179c-.183.334-.974.991-1.007,1.521C226.338,470.16,228.358,476.345,235.912,474.755Z" transform="translate(-192.271 -381.418)" fill="#96a2d0"/>
    <path id="Path_274" data-name="Path 274" d="M351.81,439.946l.163,3.4s.756-.02,1.882-.088c3.843-.229,12.006-.989,9.232-3.265-2.385-1.957-6.585-1.334-9.13-.7-.934.235-1.651.47-1.963.581C351.874,439.923,351.81,439.946,351.81,439.946Z" transform="translate(-294.564 -361.646)" fill="#f8b9bf"/>
    <path id="Path_275" data-name="Path 275" d="M233,281.826s1.1.948,2.465,2c1.522.415,3.3.783,4.573,1.027a7.337,7.337,0,0,1,.537-4.547,17.186,17.186,0,0,1,2.487-4.129l-7.649-2.764a7.141,7.141,0,0,1-.4,4.819A15.932,15.932,0,0,1,233,281.826Z" transform="translate(-197.548 -226.695)" fill="#f8b9bf"/>
    <path id="Path_276" data-name="Path 276" d="M352.06,443.677l.117,2.445s.756-.02,1.882-.088l.1-3.964c-.934.235-1.651.47-1.963.581Z" transform="translate(-294.768 -364.417)" opacity="0.1"/>
    <path id="Path_277" data-name="Path 277" d="M309.62,426.706l2.342-.112.11-4.234-1.875.09Z" transform="translate(-252.83 -344.885)" fill="#d9dfe8"/>
    <path id="Path_278" data-name="Path 278" d="M216.372,345.847c4.953,5.149,14.189-.97,16.672-2.783.4-.3.629-.477.629-.477-.917-.934-2.385-1.8-2.948-4.136a50.813,50.813,0,0,1-1.09-7.249c-.152-1.935,1.847-5.62,1.269-7.458s-2.957-2.441-3.957-4.105c-.262-.433-.523-.84-.78-1.2a17.128,17.128,0,0,0-5.061-4.3c-6.851-2.339-7.389,7.446-7.218,7.75A101.162,101.162,0,0,0,216.372,345.847Z" transform="translate(-181.923 -259.662)" fill="#e08849"/>
    <path id="Path_279" data-name="Path 279" d="M223.028,362.122s3.979,11.083,5.734,11.782c1.005.4,6.488-.031,10.99-.473.4-.3.629-.477.629-.477-.917-.934-1.664-2.858-2.225-5.195l-5.776.02a58.853,58.853,0,0,0-.05-10.8c-.517-7.5-5.292-5.852-5.292-5.852C219.163,353.383,223.028,362.122,223.028,362.122Z" transform="translate(-188.631 -290.029)" opacity="0.1"/>
    <path id="Path_280" data-name="Path 280" d="M309.62,426.918l1.011-.048.457-4.25-.89.042Z" transform="translate(-252.83 -345.097)" opacity="0.1"/>
    <path id="Path_281" data-name="Path 281" d="M227.779,348.535s4.769-1.638,5.292,5.852a58.706,58.706,0,0,1,.055,10.8l14.091-.051-.541,5.037s-15.408,1.834-17.169,1.139-5.736-11.78-5.736-11.78S219.9,350.793,227.779,348.535Z" transform="translate(-189.236 -287.915)" fill="#db8141"/>
    <path id="Path_282" data-name="Path 282" d="M245.084,279.2c.255-1.1-.917-1.135-1.284-2.2l7.653,2.752a17.132,17.132,0,0,0-1.537,2.221,6.44,6.44,0,0,1-1.244.183C246.812,282.248,246.315,280.408,245.084,279.2Z" transform="translate(-206.366 -229.627)" opacity="0.1"/>
    <circle id="Ellipse_34" data-name="Ellipse 34" cx="6.413" cy="6.413" r="6.413" transform="translate(35.721 39.384) rotate(-2.75)" fill="#f8b9bf"/>
    <path id="Path_283" data-name="Path 283" d="M253,375.14s2.029,9.61,4.424,10.591,1.31,1.19,1.31,1.19" transform="translate(-213.879 -309.764)" opacity="0.1"/>
    <path id="Path_284" data-name="Path 284" d="M282.249,395.813s-1.695.53-3.669-2" transform="translate(-234.767 -325.01)" opacity="0.1"/>
    <circle id="Ellipse_35" data-name="Ellipse 35" cx="2.935" cy="2.935" r="2.935" transform="translate(31.784 33.616)" fill="#fa595f"/>
    <path id="Path_285" data-name="Path 285" d="M213.022,208.575a2.935,2.935,0,0,1,0-4.015c-.048.039-.1.077-.139.119a2.935,2.935,0,0,0,4.021,4.278c.046-.042.086-.088.127-.132a2.935,2.935,0,0,1-4.008-.249Z" transform="translate(-180.365 -170.475)" fill="#fa595f"/>
    <path id="Path_286" data-name="Path 286" d="M213.149,219.425a2.935,2.935,0,0,1-3.089-2.568v.183a2.935,2.935,0,0,0,5.859-.367,1.561,1.561,0,0,0-.02-.183A2.935,2.935,0,0,1,213.149,219.425Z" transform="translate(-178.816 -180.216)" fill="#fa595f"/>
    <path id="Path_287" data-name="Path 287" d="M238.327,224.694a13.147,13.147,0,0,0,2.2.644,2.728,2.728,0,0,1,1.8,1.3c.237.51.209,1.113.457,1.618a3.241,3.241,0,0,0,1.933,1.359c-.649.871-2.043.635-2.953.042a9.069,9.069,0,0,0-2.752-1.7,2.583,2.583,0,0,0-2.717,1.209,6.524,6.524,0,0,0-.536,1.666,6.244,6.244,0,0,1-2.385,3.817,3.313,3.313,0,0,1-4.2-.317,5.2,5.2,0,0,1-.958-2.471,5.02,5.02,0,0,1-.141-1.249,4.7,4.7,0,0,1,1.467-2.731c.835-.917,1.722-1.8,2.61-2.673.767-.756,1.651-2.036,2.807-2.126C236.294,222.974,237.235,224.161,238.327,224.694Z" transform="translate(-193.528 -185.592)" opacity="0.1"/>
    <path id="Path_288" data-name="Path 288" d="M237.327,223.694a13.146,13.146,0,0,0,2.2.644,2.729,2.729,0,0,1,1.8,1.3c.237.51.209,1.113.457,1.618a3.241,3.241,0,0,0,1.933,1.359c-.649.871-2.043.635-2.953.042a9.068,9.068,0,0,0-2.752-1.7,2.583,2.583,0,0,0-2.717,1.209,6.524,6.524,0,0,0-.536,1.666,6.244,6.244,0,0,1-2.385,3.817,3.313,3.313,0,0,1-4.2-.317,5.2,5.2,0,0,1-.958-2.471,5.02,5.02,0,0,1-.141-1.249,4.7,4.7,0,0,1,1.467-2.731c.835-.917,1.722-1.8,2.61-2.673.767-.756,1.651-2.036,2.807-2.126C235.294,221.974,236.235,223.161,237.327,223.694Z" transform="translate(-192.712 -184.775)" fill="#fa595f"/>
    <rect id="Rectangle_102" data-name="Rectangle 102" width="20.917" height="3.232" rx="1.616" transform="translate(25.965 79.658)" fill="#d6d6e3"/>
    <path id="Path_289" data-name="Path 289" d="M181.28,462v.255a1.33,1.33,0,0,0,1.33,1.33h18.257a1.33,1.33,0,0,0,1.33-1.33V462Z" transform="translate(-155.315 -380.691)" opacity="0.1"/>
    <rect id="Rectangle_103" data-name="Rectangle 103" width="3.597" height="45.827" transform="translate(62.801 83.028)" fill="#d6d6e3"/>
    <rect id="Rectangle_104" data-name="Rectangle 104" width="3.597" height="2.972" transform="translate(62.801 83.028)" opacity="0.1"/>
    <rect id="Rectangle_105" data-name="Rectangle 105" width="95.096" height="5.943" transform="translate(61.08 79.742)" fill="#d6d6e3"/>
    <path id="Path_528" data-name="Path 528" d="M290.99,71.5c-12.519-.462-24.443-4.759-35.829-9.46s-22.664-9.91-34.884-12.4c-7.859-1.6-16.847-1.829-23.18,2.651C191,56.6,189.035,64.044,187.976,70.949c-.8,5.2-1.265,10.663.918,15.527,1.515,3.377,4.206,6.215,6.066,9.449,6.474,11.254,1.9,25.132-5.117,36.12-3.291,5.155-7.108,10.072-9.647,15.559s-3.714,11.775-1.492,17.372c2.2,5.548,7.45,9.715,13.135,12.646,11.546,5.953,25.151,7.657,38.419,8.622,29.369,2.136,58.894,1.211,88.341.285,10.9-.343,21.843-.69,32.563-2.482,5.953-.995,12.1-2.574,16.422-6.386a15.255,15.255,0,0,0,3.17-19.1c-6.167-10.178-23.218-12.706-27.528-23.629-2.373-6.012.064-12.71,3.512-18.286,7.4-11.962,19.794-22.456,20.448-36.129.449-9.391-5.511-18.8-14.727-23.238-9.659-4.657-23.054-4.071-30.18,3.638C314.939,68.854,302.044,71.909,290.99,71.5Z" transform="translate(-170.959 -51.688)" fill="#cb7caf" opacity="0.1"/>
  </g>
</svg>
