<svg xmlns="http://www.w3.org/2000/svg" xmlns:xlink="http://www.w3.org/1999/xlink" width="200" height="133" viewBox="0 0 200 133">
  <defs>
    <linearGradient id="linear-gradient" x1="0.5" y1="0.999" x2="0.5" y2="-0.002" gradientUnits="objectBoundingBox">
      <stop offset="0" stop-color="gray" stop-opacity="0.251"/>
      <stop offset="0.54" stop-color="gray" stop-opacity="0.122"/>
      <stop offset="1" stop-color="gray" stop-opacity="0.102"/>
    </linearGradient>
    <linearGradient id="linear-gradient-2" x1="0.5" y1="1.002" x2="0.5" y2="0.002" xlink:href="#linear-gradient"/>
    <linearGradient id="linear-gradient-3" x1="0.036" y1="1" x2="0.036" y2="0" xlink:href="#linear-gradient"/>
  </defs>
  <g id="Блогери" transform="translate(0 0.04)">
    <ellipse id="Ellipse_36" data-name="Ellipse 36" cx="24.889" cy="1.77" rx="24.889" ry="1.77" transform="translate(15.727 128.578)" fill="#6c63ff" opacity="0.1"/>
    <path id="Path_290" data-name="Path 290" d="M228,192.254a40.107,40.107,0,0,1-4.566,18.776,25.047,25.047,0,0,1-7.4,17.774,25.744,25.744,0,0,1-3.685,3.056c-.052.038-.107.074-.161.11l-.3.2-.093.062h0a25.989,25.989,0,0,1-14.178,4.168H65.966q-1.573,0-3.119-.144a33.079,33.079,0,0,1-10.675-2.828q-1-.452-1.962-.972-.458-.246-.907-.506c-.187-.108-.374-.22-.559-.332a32.931,32.931,0,0,1-6.024-4.678A31.946,31.946,0,0,1,33.091,204.1,39.959,39.959,0,0,1,28,184.356c0-19.828,13.853-35.9,30.944-35.9.524,0,1.049.018,1.573.05a1.4,1.4,0,0,1,.224.012A59.694,59.694,0,0,1,72.1,133.192C84.739,120.812,103.2,113,123.758,113a75.079,75.079,0,0,1,45.164,14.614,27.528,27.528,0,0,1,15.021-4.5c17.087,0,30.944,16.074,30.944,35.9q0,1.882-.175,3.756c8.359,6.769,13.315,17.768,13.287,29.484Z" transform="translate(-28 -113.04)" fill="#b24b8e" opacity="0.1"/>
    <path id="Path_291" data-name="Path 291" d="M351.306,217.755v98.786a4.124,4.124,0,0,1-.957,2.689,3.065,3.065,0,0,1-2.318,1.115H217.274a2.817,2.817,0,0,1-.9-.148A3.755,3.755,0,0,1,214,316.542v-86.8a1.4,1.4,0,0,1,.228.012,61.484,61.484,0,0,1,11.561-15.8H348.031A3.564,3.564,0,0,1,351.306,217.755Z" transform="translate(-182.653 -196.985)" fill="#fff"/>
    <line id="Line_26" data-name="Line 26" x2="109.883" transform="translate(47.622 47.511)" fill="none" stroke="#3f3d56" stroke-linecap="round" stroke-miterlimit="10" stroke-width="1" opacity="0.7"/>
    <line id="Line_27" data-name="Line 27" x2="109.883" transform="translate(47.622 71.291)" fill="none" stroke="#3f3d56" stroke-linecap="round" stroke-miterlimit="10" stroke-width="1" opacity="0.7"/>
    <line id="Line_28" data-name="Line 28" x2="109.883" transform="translate(47.622 95.071)" fill="none" stroke="#3f3d56" stroke-linecap="round" stroke-miterlimit="10" stroke-width="1" opacity="0.7"/>
    <line id="Line_29" data-name="Line 29" x2="109.883" transform="translate(47.622 121.415)" fill="none" stroke="#3f3d56" stroke-linecap="round" stroke-miterlimit="10" stroke-width="1" opacity="0.7"/>
    <ellipse id="Ellipse_37" data-name="Ellipse 37" cx="24.889" cy="1.77" rx="24.889" ry="1.77" transform="translate(144.606 129.421)" fill="#6c63ff" opacity="0.1"/>
    <rect id="Rectangle_106" data-name="Rectangle 106" width="23.229" height="6.06" rx="3.03" transform="translate(90.42 32.429)" fill="#3f3d56"/>
    <rect id="Rectangle_107" data-name="Rectangle 107" width="20.2" height="4.033" rx="2.016" transform="translate(91.932 33.532)" opacity="0.1"/>
    <rect id="Rectangle_108" data-name="Rectangle 108" width="7.294" height="3.591" rx="1.796" transform="translate(104.558 33.771)" fill="#6c63ff"/>
    <circle id="Ellipse_38" data-name="Ellipse 38" cx="1.122" cy="1.122" r="1.122" transform="translate(107.017 34.499)" fill="#fff"/>
    <rect id="Rectangle_109" data-name="Rectangle 109" width="23.229" height="6.06" rx="3.03" transform="translate(90.42 79.594)" fill="#3f3d56"/>
    <rect id="Rectangle_110" data-name="Rectangle 110" width="20.2" height="4.033" rx="2.016" transform="translate(91.932 80.563)" opacity="0.1"/>
    <rect id="Rectangle_111" data-name="Rectangle 111" width="7.294" height="3.591" rx="1.796" transform="translate(104.558 80.774)" fill="#6c63ff"/>
    <circle id="Ellipse_39" data-name="Ellipse 39" cx="1.122" cy="1.122" r="1.122" transform="translate(107.017 81.417)" fill="#fff"/>
    <rect id="Rectangle_112" data-name="Rectangle 112" width="23.229" height="6.06" rx="3.03" transform="translate(90.42 103.177)" fill="#3f3d56"/>
    <rect id="Rectangle_113" data-name="Rectangle 113" width="20.2" height="4.033" rx="2.016" transform="translate(91.932 104.077)" opacity="0.1"/>
    <rect id="Rectangle_114" data-name="Rectangle 114" width="7.294" height="3.591" rx="1.796" transform="translate(104.558 104.274)" fill="#6c63ff"/>
    <circle id="Ellipse_40" data-name="Ellipse 40" cx="1.122" cy="1.122" r="1.122" transform="translate(107.017 104.876)" fill="#fff"/>
    <rect id="Rectangle_115" data-name="Rectangle 115" width="23.229" height="6.06" rx="3.03" transform="translate(90.42 56.012)" fill="#3f3d56"/>
    <rect id="Rectangle_116" data-name="Rectangle 116" width="20.2" height="4.033" rx="2.016" transform="translate(91.932 57.046)" opacity="0.1"/>
    <rect id="Rectangle_117" data-name="Rectangle 117" width="7.294" height="3.591" rx="1.796" transform="translate(99.496 60.865) rotate(180)" fill="#6c63ff"/>
    <circle id="Ellipse_41" data-name="Ellipse 41" cx="1.122" cy="1.122" r="1.122" transform="translate(94.788 57.959)" fill="#fff"/>
    <path id="Path_292" data-name="Path 292" d="M329.342,254.908a7.921,7.921,0,0,1-3.861,6.8l-.108.064-.2.113h0l-.194.1-.03.015q-.121.061-.248.116a7.718,7.718,0,0,1-.824.32c-.184.059-.369.113-.556.158a7.853,7.853,0,0,1-1.168.194c-.239.022-.48.034-.725.034a8.26,8.26,0,0,1-.871-.047H320.5c-.1-.01-.2-.024-.3-.039a8.193,8.193,0,0,1-.937-.2l-.153-.046-.135-.042-.044-.015a7.809,7.809,0,0,1-.809-.317h0a7.712,7.712,0,0,1-1.289-.747l-.02-.013-.013-.01-.145-.106-.11-.084a7.411,7.411,0,0,1-.613-.534q-.273-.263-.519-.551a7.921,7.921,0,1,1,13.926-5.164Z" transform="translate(-263.427 -219.958)" fill="#2a2e5e"/>
    <path id="Path_293" data-name="Path 293" d="M334.338,284.379h0l-.2.061a.443.443,0,0,1-.31-.1l-.066-.062a.246.246,0,0,0-.155-.086h-.017a.168.168,0,0,1-.069,0,.018.018,0,0,1-.013,0,.084.084,0,0,1-.039-.067,3.307,3.307,0,0,1-.089-.46,4.3,4.3,0,0,1,0-.506v-.4a3.737,3.737,0,0,0,.039-.455,1.7,1.7,0,0,0-.046-.482,1.346,1.346,0,0,0-.094-.253h0c-.027-.228-.059-.455-.091-.674-.024-.169-.049-.337-.079-.506a.747.747,0,0,0,.017-.084.817.817,0,0,0-.29-.738.887.887,0,0,0-.216-.133c-.064-.027-.13-.049-.2-.071l-1.058-.337c-.1-.147-.194-.3-.285-.45a3.143,3.143,0,0,1-.222-.43,1.748,1.748,0,0,0,.436-2.3c-.017-.027-.037-.052-.056-.078h0a1.132,1.132,0,0,0-.046-.393.024.024,0,0,0,0-.01.558.558,0,0,0-.145-.281l-.035-.039a.539.539,0,0,0-.052-.056,1.964,1.964,0,0,0-.229-.2,3.915,3.915,0,0,0-1.249-.689,1.431,1.431,0,0,0-.644,0h0l-.034-.012-.062-.012.049.024a1.409,1.409,0,0,0-.686.012c-.278.086-.376.313-.494.563a2.515,2.515,0,0,1-.843.994c-.231.158-.506.3-.617.56a1.6,1.6,0,0,0-.01.794,2.206,2.206,0,0,1-.8,1.9c-.315.253-.735.463-.8.868a1.507,1.507,0,0,0,.229.829,2.054,2.054,0,0,1,.042,1.786c-.029.051-.059.1-.088.147.16.2.337.381.506.56a7.644,7.644,0,0,0,.605.541l.108.086.143.106.013.012.02.013a7.591,7.591,0,0,0,1.271.757.083.083,0,0,1,.01-.029.114.114,0,0,0,0,.034,7.492,7.492,0,0,0,.8.32l.042.015.133.044.152.045a7.971,7.971,0,0,0,.924.207c.1.015.2.029.295.039h.049a8.039,8.039,0,0,0,.859.047c.241,0,.479-.012.715-.034a7.469,7.469,0,0,0,1.151-.2c.046-.01.091-.024.137-.037.138-.037.275-.078.411-.123a7.546,7.546,0,0,0,.812-.324c.083-.039.169-.078.244-.118l.03-.015.19-.1h0A.013.013,0,0,1,334.338,284.379Zm-6.753-.233a.335.335,0,0,0,0-.042.716.716,0,0,1,0-.135.21.21,0,0,1,.03-.074v.081A.456.456,0,0,1,327.585,284.147Z" transform="translate(-272.589 -241.806)" fill="url(#linear-gradient)"/>
    <path id="Path_294" data-name="Path 294" d="M333.662,285.073h0l-.2.061a.457.457,0,0,1-.313-.1c-.022-.019-.046-.042-.067-.062a.246.246,0,0,0-.157-.084H332.9a.168.168,0,0,1-.071,0,.018.018,0,0,1-.013,0,.091.091,0,0,1-.04-.067,3.215,3.215,0,0,1-.089-.453,4.184,4.184,0,0,1,0-.506v-.4h0a3.661,3.661,0,0,0,.039-.45,1.662,1.662,0,0,0-.046-.475,1.5,1.5,0,0,0-.1-.249h0c-.027-.224-.061-.448-.093-.674-.024-.169-.049-.337-.081-.506a.523.523,0,0,1,.019-.083.8.8,0,0,0-.295-.728.9.9,0,0,0-.219-.131c-.064-.027-.131-.049-.2-.071l-1.074-.337c-.1-.145-.2-.293-.288-.443a2.929,2.929,0,0,1-.226-.425,1.685,1.685,0,0,0,.443-2.27c-.017-.027-.037-.051-.056-.076h0a1.1,1.1,0,0,0-.046-.388.023.023,0,0,0,0-.01.6.6,0,0,0-.037-.118.69.69,0,0,0-.11-.16l-.037-.039a.525.525,0,0,0-.052-.054,1.986,1.986,0,0,0-.238-.184,3.881,3.881,0,0,0-1.267-.674,1.468,1.468,0,0,0-.652,0h0l-.034-.01-.062-.012.049.024a1.451,1.451,0,0,0-.7.012c-.281.084-.381.308-.506.554a2.5,2.5,0,0,1-.843.981,1.546,1.546,0,0,0-.625.553,1.456,1.456,0,0,0-.01.784,2.157,2.157,0,0,1-.812,1.872c-.32.249-.747.457-.816.856a1.451,1.451,0,0,0,.233.819,1.991,1.991,0,0,1,.042,1.763c-.029.049-.059.1-.089.145a7.288,7.288,0,0,0,.519.551,7.421,7.421,0,0,0,.613.534l.11.084.145.106.013.01.02.013a7.709,7.709,0,0,0,1.289.747.088.088,0,0,1,.01-.027.828.828,0,0,1,.04-.088.981.981,0,0,0,.15-.337.335.335,0,0,0,0-.042.7.7,0,0,1,0-.133.214.214,0,0,1,.03-.072c.019-.034.046-.066.067-.1a.366.366,0,0,0,.032-.056h0c.019.025.035.051.052.078.061.093.12.185.179.28a.433.433,0,0,1,.088.216.353.353,0,0,0,0,.14c.025.059.11.108.078.169a.223.223,0,0,0,0,.2.939.939,0,0,0,.071.1l.044.015.135.042.153.046a8.193,8.193,0,0,0,.937.2c.1.015.2.029.3.039h.051a8.26,8.26,0,0,0,.871.047c.244,0,.485-.012.725-.034a7.857,7.857,0,0,0,1.168-.194c.047-.01.093-.024.14-.037.14-.037.278-.076.416-.121a7.718,7.718,0,0,0,.824-.32q.126-.056.248-.116l.03-.015.194-.1h0Z" transform="translate(-271.917 -242.469)" fill="#6c63ff" opacity="0.3"/>
    <path id="Path_295" data-name="Path 295" d="M328.342,373.945a7.882,7.882,0,0,1-.971,3.8,7.481,7.481,0,0,1-.442.711,7.35,7.35,0,0,1-.517.674.254.254,0,0,1-.035.039c-.071.084-.147.169-.224.246l-.086.091c-.088.089-.177.169-.27.26a.3.3,0,0,1-.034.032c-.042.039-.086.079-.131.116a7.714,7.714,0,0,1-.745.578c-.133.091-.268.179-.406.261l-.108.064-.2.113h0l-.138.072-.056.029-.03.015q-.081.04-.169.076c-.029.015-.057.027-.086.04l-.169.071c-.148.064-.3.125-.453.179h0l-.206.069h-.024a.284.284,0,0,1-.051.015l-.039.013-.115.034-.039.012-.049.013-.071.019a.265.265,0,0,1-.049.013l-.12.032h0c-.088.022-.177.042-.266.059a7.6,7.6,0,0,1-.9.135c-.229.02-.458.032-.693.034h-.054c-.222,0-.44-.01-.657-.029l-.192-.019h-.081l-.268-.035-.214-.037-.054-.01c-.1-.019-.2-.039-.3-.064a.054.054,0,0,1-.024,0c-.118-.025-.234-.056-.349-.088l-.153-.046-.135-.042-.044-.015h0a8.089,8.089,0,0,1-.8-.315h0q-.271-.125-.531-.268l-.078-.044-.115-.066-.062-.037c-.169-.1-.337-.216-.506-.337l-.02-.013-.013-.01-.145-.106-.11-.084a7.416,7.416,0,0,1-.613-.534q-.273-.263-.519-.551a7.921,7.921,0,1,1,13.929-5.167Z" transform="translate(-262.602 -314.955)" fill="#2a2e5e"/>
    <path id="Path_296" data-name="Path 296" d="M341.186,408.285a.294.294,0,0,0-.042-.049.219.219,0,0,0-.039-.03.389.389,0,0,1-.15-.371.35.35,0,0,0,0-.044,2.293,2.293,0,0,0-.2-.5c-.042-.089-.094-.226-.14-.354-.061-.169-.11-.322-.11-.322a.175.175,0,0,0-.008-.044c-.02-.106-.076-.4-.125-.684v-.049a6.636,6.636,0,0,0-.659-1.316h0a.066.066,0,0,0-.025-.032c-.133-.062-.588-.324-.588-.324a1.178,1.178,0,0,0-.878-.536h-.138a.662.662,0,0,0-.088.022l-.032.01a.314.314,0,0,0-.044.019l-.01.083a1.869,1.869,0,0,1,.047-.61l.017-.057h.1a1.653,1.653,0,0,0,1.566-2.108v-.024l.049-.024c.2-.076.455.054.619-.084a.484.484,0,0,0,.123-.216,1.306,1.306,0,0,0,.089-.346.579.579,0,0,0,0-.108v-.013a.4.4,0,0,0-.086-.214c-.106-.126-.285-.158-.421-.251a1.057,1.057,0,0,1-.268-.322,1.153,1.153,0,0,0-.261-.327.381.381,0,0,0-.391-.064.46.46,0,0,1-.13.062.272.272,0,0,1-.142-.039,2.718,2.718,0,0,0-1.517-.116,1.985,1.985,0,0,0-.595.145.721.721,0,0,0-.4.447c-.042.158-.01.337-.061.487-.034.106-.1.2-.142.3a.663.663,0,0,0-.037.177s0,0,0-.01v.118a4.994,4.994,0,0,0,.116.615,4.278,4.278,0,0,0,.169.994.584.584,0,0,0,.054.108c-.049.106-.1.212-.152.313h0a.723.723,0,0,0-.078-.017h-.061a.246.246,0,0,0-.061,0h0a.19.19,0,0,0-.042.019l-.017.015-.012.008a.069.069,0,0,0-.013.022.027.027,0,0,0,0,.012.207.207,0,0,0-.017.064h0v.017a.4.4,0,0,1-.01.108c-.01.037,0,.042-.008.062a.489.489,0,0,1-.008.052v.013a.274.274,0,0,1-.013.062l-.025.076-.01.022c-.01.022-.02.044-.032.064h0l-.057.059a.066.066,0,0,0-.035.064h0l-.025.02a.086.086,0,0,0-.035.013c-.012-.027-.059-.027-.206.152a2.786,2.786,0,0,1-.674.522s-.989.7-1.043,1.03a6.966,6.966,0,0,0-.2,2.2c.022.061.064.155.12.27v.01s.049.187.126.463c.02.012.04.027.062.039l.115.066.078.046c.169.1.351.187.531.271h0a8.1,8.1,0,0,0,.8.319h0l.044.015.135.044.153.046c.115.032.231.062.349.089a.054.054,0,0,0,.024,0c.1.025.2.046.3.064l.054.01.214.039.268.035h.081l.192.019c.217.019.435.029.657.029h.054c.234,0,.463-.013.693-.034a7.6,7.6,0,0,0,.9-.137c.089-.017.179-.037.266-.061h0l.12-.032a.266.266,0,0,0,.049-.013l.071-.019.049-.013.039-.012.115-.034.039-.015a.289.289,0,0,0,.051-.015h.024l.206-.069h0c.153-.056.305-.116.453-.182l.169-.071c.029-.013.057-.025.086-.042a.5.5,0,0,0-.067-.1Zm-3.268-4.464h-.01v-.01h0Z" transform="translate(-280.028 -341.665)" fill="url(#linear-gradient-2)"/>
    <path id="Path_297" data-name="Path 297" d="M341.227,409.068a.368.368,0,0,0-.042-.047.221.221,0,0,0-.039-.03.381.381,0,0,1-.15-.366.349.349,0,0,0,0-.044,2.243,2.243,0,0,0-.2-.49c-.042-.088-.094-.222-.14-.349-.061-.169-.11-.319-.11-.319l-.008-.042c-.02-.106-.076-.4-.125-.674v-.049a6.531,6.531,0,0,0-.659-1.3h0a.059.059,0,0,0-.025-.03c-.133-.062-.588-.32-.588-.32a1.181,1.181,0,0,0-.878-.529h-.138a.662.662,0,0,0-.088.022l-.032.01a.318.318,0,0,0-.044.019l-.01.083a1.826,1.826,0,0,1,.047-.6.233.233,0,0,1,.017-.056h.1a1.63,1.63,0,0,0,1.63-1.63,1.6,1.6,0,0,0-.064-.452v-.022l.027-.007c.2-.074.455.054.618-.083a.477.477,0,0,0,.123-.214,1.253,1.253,0,0,0,.089-.337.561.561,0,0,0,0-.106v-.013a.4.4,0,0,0-.086-.211c-.106-.126-.285-.157-.421-.249a1.011,1.011,0,0,1-.268-.317,1.161,1.161,0,0,0-.258-.324.379.379,0,0,0-.391-.061.506.506,0,0,1-.13.061.271.271,0,0,1-.142-.039,2.733,2.733,0,0,0-1.517-.115,1.934,1.934,0,0,0-.595.143.715.715,0,0,0-.4.44c-.042.157-.01.327-.061.482-.034.1-.1.2-.142.3a.615.615,0,0,0-.037.169s0,0,0-.01v.116a4.867,4.867,0,0,0,.116.607,4.21,4.21,0,0,0,.169.983.629.629,0,0,0,.054.106c-.049.1-.1.209-.152.308h0a.72.72,0,0,0-.078-.017h-.061a.248.248,0,0,0-.061,0h0a.2.2,0,0,0-.04.017l-.017.015-.012.008a.069.069,0,0,0-.013.022.027.027,0,0,0,0,.012.2.2,0,0,0-.017.064h0v.017a.378.378,0,0,1-.01.106c-.01.035,0,.042-.008.062s0,.034-.008.051,0,.008,0,.013-.008.042-.013.062l-.025.076-.01.02a.541.541,0,0,1-.032.062h0a.183.183,0,0,1-.032.022.066.066,0,0,0-.035.064h0l-.025.02a.077.077,0,0,0-.035.012c-.012-.025-.059-.025-.206.15a2.776,2.776,0,0,1-.674.516s-.989.7-1.043,1.011a6.775,6.775,0,0,0-.2,2.172c.022.061.064.153.12.266v.01s.049.185.126.458l.062.037.115.066.078.044q.26.145.531.268h0a8.087,8.087,0,0,0,.8.315h0l.044.015.135.042.153.046c.115.032.231.062.349.088a.054.054,0,0,0,.024,0c.1.025.2.045.3.064l.054.01.214.037.268.035h.081l.192.019c.217.019.435.029.657.029h.054c.234,0,.463-.013.693-.034a7.6,7.6,0,0,0,.9-.135c.089-.017.179-.037.266-.059h0l.12-.032a.266.266,0,0,0,.049-.013l.071-.019.049-.013.039-.012.115-.034.039-.013a.287.287,0,0,0,.051-.015h.024l.206-.069h0c.153-.054.305-.115.453-.179l.169-.071c.029-.013.057-.025.086-.04A.506.506,0,0,0,341.227,409.068Zm-3.268-4.405h-.01v-.01h0Z" transform="translate(-280.07 -342.424)" fill="#6c63ff" opacity="0.3"/>
    <path id="Path_298" data-name="Path 298" d="M329.342,491.771a7.882,7.882,0,0,1-.971,3.8,7.471,7.471,0,0,1-.442.711,7.35,7.35,0,0,1-.517.674.255.255,0,0,1-.035.039c-.071.084-.147.169-.224.246l-.086.091c-.088.089-.177.169-.27.26a.306.306,0,0,1-.034.032c-.042.039-.086.079-.131.116a7.709,7.709,0,0,1-.745.578c-.133.091-.268.179-.406.261l-.108.064-.2.113h0l-.1.052h-.012l-.027.015-.056.029-.03.015-.169.076-.086.04-.169.071-.239.1h0l-.126.047-.086.032h0l-.206.069h-.024l-.051.015-.039.013-.115.034-.039.012h-.049l-.071.019a.265.265,0,0,1-.049.013l-.12.032h0c-.088.022-.177.042-.266.059-.145.03-.292.057-.438.079s-.308.042-.463.056c-.229.02-.458.032-.693.034H321.4c-.222,0-.44-.01-.657-.029l-.192-.019h-.081a1.589,1.589,0,0,1-.243-.032H320.2l-.214-.037-.054-.01c-.1-.019-.2-.039-.3-.064a.054.054,0,0,1-.024,0c-.118-.025-.234-.056-.349-.088l-.153-.046-.135-.042-.044-.015h0l-.123-.042-.086-.03h0c-.062-.022-.123-.046-.184-.071h0l-.062-.025h0l-.079-.032q-.131-.054-.258-.111h0q-.271-.123-.531-.268l-.078-.044-.115-.066-.062-.037a2.846,2.846,0,0,1-.251-.169h0c-.084-.056-.169-.111-.246-.169l-.02-.013-.013-.01-.145-.106-.11-.084a7.427,7.427,0,0,1-.613-.534q-.273-.263-.519-.551a7.921,7.921,0,1,1,13.909-5.155Z" transform="translate(-263.427 -408.949)" fill="#2a2e5e"/>
    <g id="Group_20" data-name="Group 20" transform="translate(53.659 80.506)" opacity="0.3">
      <path id="Path_299" data-name="Path 299" d="M345.29,463.152l.005,0-.005,0Z" transform="translate(-338.744 -452.864)" fill="#6c63ff"/>
      <path id="Path_300" data-name="Path 300" d="M342.261,524.455a.1.1,0,0,1-.049-.034h0a.278.278,0,0,1,.147-.084c.052-.013.081-.091.074-.169h0a.285.285,0,0,0-.062-.211.148.148,0,0,1-.035-.059h0a1.472,1.472,0,0,1,.1-.182.057.057,0,0,0,0-.057c.047-.116-.169-.094-.169-.094v-1.107s-.017-.089-.04-.26-.057-.42-.089-.738c-.064-.635-.315-.7-.315-.7a2.843,2.843,0,0,1-.391-.153,2.671,2.671,0,0,0-.411-.153,2.11,2.11,0,0,1-.533-.074,1.628,1.628,0,0,0-.362-.078l-.039-.02a1.4,1.4,0,0,1-.651-.674h0a1.371,1.371,0,0,0,.145-.2h0v.126h0c.169-.3.674-.372.723-.718v-.012a.394.394,0,0,0,0-.089h0a.375.375,0,0,0,0-.044h0v-.035a2.636,2.636,0,0,0-.044-.261v-.017a.6.6,0,0,1,.013-.076.152.152,0,0,1,0-.024.7.7,0,0,1,.025-.084h0c.071-.19.2-.369.273-.565a.934.934,0,0,0,.035-.135v-.019a1.145,1.145,0,0,0,.013-.133v-.094a.022.022,0,0,0,0-.012.057.057,0,0,0,0-.017.434.434,0,0,0,0-.047,1.025,1.025,0,0,0-.337-.742c-.169-.15-.4-.244-.521-.44-.056-.093-.083-.2-.145-.288a.723.723,0,0,0-.524-.258,2.918,2.918,0,0,1-.595-.079c-.137-.044-.258-.123-.394-.169a.755.755,0,0,0-.812.292,1.362,1.362,0,0,1-.216.313c-.2.169-.536.1-.711.29a.484.484,0,0,0-.094.369v.025h0v.067a.083.083,0,0,1,0,.02.429.429,0,0,0,0,.066v.069a1.089,1.089,0,0,0,.017.13,1.98,1.98,0,0,1,.017.222v.034a2.308,2.308,0,0,1-.251.974,2.979,2.979,0,0,0-.45.979.815.815,0,0,0,0,.157v-.015a.222.222,0,0,0,0,.034v.194l.015.081a.4.4,0,0,0,0,.044l.025.1v.019c.047.169.11.351.147.527a1.71,1.71,0,0,1,.03.182.047.047,0,0,0,0,.015c0,.051.008.1.01.153h0v.013h0v.027a1.967,1.967,0,0,1-.253.078c-.152.022-.6.416-.565.514a.14.14,0,0,1,0,.042.152.152,0,0,1,0,.027h0a6.5,6.5,0,0,1-.206.733h0l-.357,2.462h0c.083.056.169.108.251.169l.062.037.115.066.078.044q.26.143.531.268h0q.126.059.258.111l.079.032h0l.062.025h0a.274.274,0,0,0,.1.062h.072a.167.167,0,0,0,.051,0h.027l.086.03.123.042h0l.044.015.135.042.153.046c.115.032.231.062.349.088a.055.055,0,0,0,.024,0c.1.025.2.046.3.064l.054.01.214.037h.025c.081.012.169.024.243.032h.081l.192.019c.217.018.435.029.657.029h.054c.234,0,.463-.013.693-.034.155-.013.31-.032.463-.056s.293-.049.438-.079c.089-.017.179-.037.266-.059h0l.12-.032a.266.266,0,0,0,.049-.013l.071-.019h.02c0-.115-.013-.212-.017-.288.025.034.051.062.067.084a.084.084,0,0,1,.019.037h0a.694.694,0,0,0-.062.169h.015l.039-.012.115-.034.039-.013.051-.015h.024l.206-.069h0l.086-.032.126-.047h0l.239-.1.169-.071.086-.04.169-.076.03-.015.056-.029.027-.015h.012a.725.725,0,0,0,0-.118h0V524.7h0v-.042C342.491,524.609,342.4,524.509,342.261,524.455Zm-6.387-3.925Z" transform="translate(-334.45 -515.155)" fill="#6c63ff"/>
      <path id="Path_301" data-name="Path 301" d="M336.26,574.563l-.03-.013A.1.1,0,0,0,336.26,574.563Z" transform="translate(-335.93 -564.54)" fill="#6c63ff"/>
    </g>
    <path id="Path_302" data-name="Path 302" d="M329.342,610.76a7.883,7.883,0,0,1-.971,3.8,7.475,7.475,0,0,1-.442.711,7.35,7.35,0,0,1-.517.674.15.15,0,0,1-.032.034h0c-.071.084-.147.169-.224.246l-.024.025-.062.066c-.088.089-.177.169-.27.26a.3.3,0,0,1-.034.032c-.042.039-.086.079-.131.116a6.151,6.151,0,0,1-.549.44l-.034.024-.069.049c-.03.024-.061.044-.093.066-.133.091-.268.179-.406.261l-.061.037-.047.027-.2.113h0l-.1.052h-.012l-.027.015-.056.029-.03.015-.169.076-.086.04-.169.071-.239.1h0l-.126.047-.086.032h0l-.034.012-.169.057h-.024l-.051.015-.039.013-.046.013-.069.02-.039.012h-.049l-.071.019a.266.266,0,0,1-.049.013l-.12.032h0c-.088.022-.177.042-.266.059-.145.03-.292.057-.438.079q-.131.02-.263.035h-.032l-.169.017c-.229.02-.458.032-.693.034h-.192c-.169,0-.347-.012-.519-.027h-.051l-.142-.013h-.081l-.169-.02-.081-.012H320.2l-.214-.037-.054-.01-.142-.027-.059-.013-.1-.024a.055.055,0,0,1-.024,0c-.118-.025-.234-.056-.349-.088l-.061-.019h-.022l-.071-.02-.066-.02-.069-.022-.044-.015h0l-.123-.042-.086-.03h0l-.079-.035-.1-.04h0l-.062-.025h0l-.079-.032q-.131-.054-.258-.111h0c-.133-.061-.265-.125-.393-.2-.047-.022-.093-.047-.138-.073l-.035-.02h0l-.04-.022-.115-.066-.062-.037a2.846,2.846,0,0,1-.251-.169h0c-.084-.056-.169-.111-.246-.169l-.02-.013-.013-.01-.069-.051-.076-.056-.013-.01c-.032-.025-.066-.049-.1-.074a7.423,7.423,0,0,1-.613-.534q-.273-.263-.519-.551a7.921,7.921,0,1,1,13.906-5.157Z" transform="translate(-263.427 -500.882)" fill="#2a2e5e"/>
    <path id="Path_303" data-name="Path 303" d="M341.619,643.712a.261.261,0,0,0-.351-.115l-2.307,1.18a.273.273,0,0,0-.029-.089h0a.211.211,0,0,0-.094-.169.157.157,0,0,1-.051-.049h0a.489.489,0,0,1,0-.052h0a.152.152,0,0,0-.027-.12.3.3,0,0,0-.126-.216h-.008v-.059a.234.234,0,0,0-.032-.106h0c-.008-.11-.088-.211-.246-.361a.562.562,0,0,1-.126-.226v-.01c-.029-.11-.057-.233-.1-.357a2.013,2.013,0,0,0-.067-.209c-.125-.322-.261-.28-.317-.337s-.418-.13-.6-.226a1.988,1.988,0,0,0-.833.037V642.2a1.561,1.561,0,0,0,1.079-1.817l-.01-.039a.631.631,0,0,0,.239-.047.314.314,0,0,0,.11-.2,1.011,1.011,0,0,0,.03-.452c0-.015-.013-.03-.019-.045a.262.262,0,0,0-.012-.039h0a.166.166,0,0,0,0-.04.647.647,0,0,0-.052-.138.024.024,0,0,1,0,.012,4.843,4.843,0,0,0-.388-.521c-.135-.2-.212-.458-.416-.593a.843.843,0,0,0-.7-.035,1.98,1.98,0,0,1-.327.084,3.452,3.452,0,0,1-.558-.034,1.2,1.2,0,0,0-.742.2.416.416,0,0,0-.121.121.634.634,0,0,0-.054.219,1.067,1.067,0,0,1-.145.4c-.057.1-.13.184-.182.283a.435.435,0,0,0-.049.325c.019.057.052.108.066.169a.615.615,0,0,1-.118.384.732.732,0,0,0-.081.366.472.472,0,0,0,.1.265h0a.375.375,0,0,0,.034.069l.008.012a.471.471,0,0,0,.034.047l.017.017.034.034a.566.566,0,0,0,.329.1h0a.548.548,0,0,0,.029.054v.03a.17.17,0,0,0,0,.029.838.838,0,0,0-.455.187.656.656,0,0,1-.4.169s-.329.11-.322.138-.1.067-.3.123a1.337,1.337,0,0,0-.548.3c0,.049-.543.581-.543.637a1.348,1.348,0,0,0-.145.622,2.224,2.224,0,0,1-.04.9c-.083.076,0,.369,0,.369a.206.206,0,0,1,0,.219,1.862,1.862,0,0,0,.013.637v.534a1.236,1.236,0,0,1,.03.233l.013.01.076.056.069.051.013.01.02.013c.081.057.169.113.246.169h0c.083.056.169.108.251.169l.062.037.115.066.04.022h0l.035.02c.046.025.091.051.138.073.128.071.26.135.393.2h0q.126.059.258.111l.079.032h0l.062.025h0l.1.04.081.03h0l.086.03.123.042h0l.044.015.069.022.066.02.071.02h.022l.061.019c.115.032.231.062.349.088a.053.053,0,0,0,.024,0l.1.024.059.013.142.027.054.01.214.037h.025l.081.012.169.02h.081l.142.013h.051c.169.015.337.024.519.027h.192c.234,0,.463-.013.693-.034l.169-.017h.032q.131-.015.263-.035c.147-.022.293-.049.438-.079.089-.017.179-.037.266-.059h0l.12-.032a.265.265,0,0,0,.049-.013l.071-.019h.049l.039-.012.069-.02.046-.013.039-.013.051-.015h.024l.169-.057.034-.012h0l.086-.032.126-.047h0l.239-.1.169-.071.086-.04.169-.076.03-.015.056-.029.027-.015h.012l.1-.052h0l.2-.113.047-.027.061-.037c.138-.083.273-.169.406-.261.032-.022.062-.042.093-.066h.034l.035-.052.034-.024q.286-.207.549-.44c.046-.037.089-.078.131-.116a.3.3,0,0,0,.034-.032c.093-.084.182-.169.27-.26l.062-.066.024-.025c.078-.079.153-.169.224-.246h0Zm-3.841,2.643-.042.01a.071.071,0,0,1,.013-.035s-.258.01-.519.03a.386.386,0,0,1,.013-.13,3.092,3.092,0,0,0,.128-.568h0l.448.684Zm.086,1.3a.591.591,0,0,0,0-.067c.015-.01.025-.019.027-.025a1.711,1.711,0,0,0-.025-.224h.04l.474-.074a.864.864,0,0,0,.169-.024l.039.076a2.437,2.437,0,0,0-.607.271.231.231,0,0,1-.113.067Z" transform="translate(-278.453 -530.295)" fill="#6c63ff" opacity="0.3"/>
    <path id="Path_304" data-name="Path 304" d="M845.315,276.014l-.674-.674a.356.356,0,0,0-.506,0l-4.19,4.156-1.773-1.786a.352.352,0,0,0-.506,0l-.674.674a.357.357,0,0,0,0,.506l2.7,2.712a.357.357,0,0,0,.506,0l5.113-5.075a.356.356,0,0,0,.007-.512Z" transform="translate(-695.239 -242.976)" fill="#3acc6c"/>
    <path id="Path_305" data-name="Path 305" d="M845.357,393.154l-.674-.674a.356.356,0,0,0-.506,0L840,396.642l-1.773-1.786a.352.352,0,0,0-.506,0l-.674.674a.357.357,0,0,0,0,.506l2.7,2.712a.357.357,0,0,0,.506,0l5.108-5.088a.356.356,0,0,0,0-.506Z" transform="translate(-695.281 -336.795)" fill="#3acc6c"/>
    <path id="Path_306" data-name="Path 306" d="M845.312,629.557l-.674-.674a.357.357,0,0,0-.506,0l-4.19,4.156-1.773-1.786a.356.356,0,0,0-.506,0l-.674.674a.356.356,0,0,0,0,.506l2.7,2.712a.359.359,0,0,0,.506,0l5.113-5.076a.352.352,0,0,0,.007-.511Z" transform="translate(-695.235 -526.136)" fill="#3acc6c"/>
    <ellipse id="Ellipse_42" data-name="Ellipse 42" cx="2.275" cy="4.564" rx="2.275" ry="4.564" transform="matrix(0.797, -0.604, 0.604, 0.797, 19.738, 11.871)" fill="#6c63ff"/>
    <ellipse id="Ellipse_43" data-name="Ellipse 43" cx="2.275" cy="4.564" rx="2.275" ry="4.564" transform="matrix(0.797, -0.604, 0.604, 0.797, 19.738, 11.871)" opacity="0.1"/>
    <ellipse id="Ellipse_44" data-name="Ellipse 44" cx="2.091" cy="4.446" rx="2.091" ry="4.446" transform="matrix(0.797, -0.604, 0.604, 0.797, 19.944, 11.862)" fill="#6c63ff"/>
    <path id="Path_307" data-name="Path 307" d="M156.12,176.45a20.512,20.512,0,0,0,3.246,4.7c.246.265.506.524.748.784l1.407,1.449" transform="translate(-134.528 -165.797)" fill="#407d3b" opacity="0.3"/>
    <ellipse id="Ellipse_45" data-name="Ellipse 45" cx="2.275" cy="4.564" rx="2.275" ry="4.564" transform="matrix(0.797, -0.604, 0.604, 0.797, 13.67, 4.288)" fill="#6c63ff"/>
    <ellipse id="Ellipse_46" data-name="Ellipse 46" cx="2.275" cy="4.564" rx="2.275" ry="4.564" transform="matrix(0.797, -0.604, 0.604, 0.797, 13.67, 4.288)" opacity="0.1"/>
    <ellipse id="Ellipse_47" data-name="Ellipse 47" cx="2.091" cy="4.446" rx="2.091" ry="4.446" transform="matrix(0.797, -0.604, 0.604, 0.797, 13.878, 4.278)" fill="#6c63ff"/>
    <path id="Path_308" data-name="Path 308" d="M120.12,131.45a20.512,20.512,0,0,0,3.246,4.7c.246.265.506.524.748.784l1.407,1.449" transform="translate(-104.595 -128.381)" fill="#407d3b" opacity="0.3"/>
    <ellipse id="Ellipse_48" data-name="Ellipse 48" cx="3.896" cy="1.943" rx="3.896" ry="1.943" transform="matrix(0.797, -0.604, 0.604, 0.797, 20.004, 8.717)" fill="#6c63ff"/>
    <ellipse id="Ellipse_49" data-name="Ellipse 49" cx="3.896" cy="1.943" rx="3.896" ry="1.943" transform="matrix(0.797, -0.604, 0.604, 0.797, 20.004, 8.717)" opacity="0.1"/>
    <ellipse id="Ellipse_50" data-name="Ellipse 50" cx="3.797" cy="1.786" rx="3.797" ry="1.786" transform="matrix(0.797, -0.604, 0.604, 0.797, 20.171, 8.772)" fill="#6c63ff"/>
    <path id="Path_309" data-name="Path 309" d="M160.467,146.38a17.527,17.527,0,0,0-4.016,2.772c-.228.211-.45.425-.674.64l-1.237,1.2" transform="translate(-133.214 -140.794)" fill="#407d3b" opacity="0.3"/>
    <ellipse id="Ellipse_51" data-name="Ellipse 51" cx="3.896" cy="1.943" rx="3.896" ry="1.943" transform="translate(13.79 12.665) rotate(-29.9)" fill="#6c63ff"/>
    <ellipse id="Ellipse_52" data-name="Ellipse 52" cx="3.896" cy="1.943" rx="3.896" ry="1.943" transform="translate(13.79 12.665) rotate(-29.9)" opacity="0.1"/>
    <ellipse id="Ellipse_53" data-name="Ellipse 53" cx="3.797" cy="1.786" rx="3.797" ry="1.786" transform="translate(13.948 12.742) rotate(-29.9)" fill="#6c63ff"/>
    <path id="Path_310" data-name="Path 310" d="M116.08,179.642a17.487,17.487,0,0,1,4.117-2.621c.281-.126.565-.248.843-.367l1.589-.674" transform="translate(-101.236 -165.406)" fill="#407d3b" opacity="0.3"/>
    <ellipse id="Ellipse_54" data-name="Ellipse 54" cx="0.838" cy="1.679" rx="0.838" ry="1.679" transform="translate(18.461 8.267) rotate(-37.72)" fill="#6c63ff"/>
    <ellipse id="Ellipse_55" data-name="Ellipse 55" cx="0.838" cy="1.679" rx="0.838" ry="1.679" transform="translate(18.461 8.267) rotate(-37.72)" opacity="0.1"/>
    <ellipse id="Ellipse_56" data-name="Ellipse 56" cx="0.77" cy="1.635" rx="0.77" ry="1.635" transform="translate(18.545 8.259) rotate(-37.72)" fill="#6c63ff"/>
    <path id="Path_311" data-name="Path 311" d="M141.79,159.43a7.6,7.6,0,0,1,1.358,1.6c.071.111.14.226.207.337l.379.639" transform="translate(-122.613 -151.645)" fill="#407d3b" opacity="0.3"/>
    <ellipse id="Ellipse_57" data-name="Ellipse 57" cx="0.838" cy="1.679" rx="0.838" ry="1.679" transform="translate(20.553 10.963) rotate(-37.72)" fill="#6c63ff"/>
    <ellipse id="Ellipse_58" data-name="Ellipse 58" cx="0.838" cy="1.679" rx="0.838" ry="1.679" transform="translate(20.553 10.963) rotate(-37.72)" opacity="0.1"/>
    <ellipse id="Ellipse_59" data-name="Ellipse 59" cx="0.77" cy="1.635" rx="0.77" ry="1.635" transform="translate(20.638 10.952) rotate(-37.72)" fill="#6c63ff"/>
    <path id="Path_312" data-name="Path 312" d="M154.2,175.41a7.547,7.547,0,0,1,1.358,1.6c.072.113.14.226.207.337l.381.639" transform="translate(-132.932 -164.932)" fill="#407d3b" opacity="0.3"/>
    <circle id="Ellipse_60" data-name="Ellipse 60" cx="0.34" cy="0.34" r="0.34" transform="translate(20.869 10.102)" fill="#6c63ff"/>
    <circle id="Ellipse_61" data-name="Ellipse 61" cx="0.34" cy="0.34" r="0.34" transform="translate(20.869 10.102)" fill="#407d3b" opacity="0.3"/>
    <path id="Path_313" data-name="Path 313" d="M986.917,660.155c-.046-.234-1.1-5.792,2.073-13.146,1.242-2.877,1.139-5.356-.3-7.367a7.146,7.146,0,0,0-2.528-2.174l.374-.829a8.037,8.037,0,0,1,2.9,2.474c1.128,1.572,2.112,4.281.4,8.258a23.594,23.594,0,0,0-2.022,12.615Z" transform="translate(-817.481 -529.014)" fill="#6c63ff"/>
    <path id="Path_314" data-name="Path 314" d="M1007.6,694.295c1.278-.11,2.339-.229,2.373.169s-.972,1.161-2.248,1.271-2.339-.125-2.373-.522S1006.328,694.4,1007.6,694.295Z" transform="translate(-833.441 -576.864)" fill="#6c63ff"/>
    <path id="Path_315" data-name="Path 315" d="M1007.6,694.295c1.278-.11,2.339-.229,2.373.169s-.972,1.161-2.248,1.271-2.339-.125-2.373-.522S1006.328,694.4,1007.6,694.295Z" transform="translate(-833.441 -576.864)" opacity="0.1"/>
    <path id="Path_316" data-name="Path 316" d="M1007.876,694.174c1.244-.106,2.275-.271,2.3.067s-.956,1.05-2.2,1.156-2.275-.081-2.3-.418S1006.633,694.281,1007.876,694.174Z" transform="translate(-833.708 -576.739)" fill="#6c63ff"/>
    <path id="Path_317" data-name="Path 317" d="M1005.79,695.967a17.964,17.964,0,0,0,2.9-.169c.182-.025.362-.054.543-.083.337-.052.674-.458,1.011-.506" transform="translate(-833.802 -577.713)" fill="#407d3b" opacity="0.3"/>
    <path id="Path_318" data-name="Path 318" d="M994.315,738.321c1.276-.108,2.339-.228,2.373.169s-.972,1.163-2.25,1.272-2.338-.125-2.373-.522S993.04,738.431,994.315,738.321Z" transform="translate(-822.39 -613.471)" fill="#6c63ff"/>
    <path id="Path_319" data-name="Path 319" d="M994.315,738.321c1.276-.108,2.339-.228,2.373.169s-.972,1.163-2.25,1.272-2.338-.125-2.373-.522S993.04,738.431,994.315,738.321Z" transform="translate(-822.39 -613.471)" opacity="0.1"/>
    <path id="Path_320" data-name="Path 320" d="M994.638,738.2c1.244-.106,2.275-.271,2.3.066s-.956,1.052-2.191,1.158-2.275-.081-2.3-.418S993.394,738.308,994.638,738.2Z" transform="translate(-822.708 -613.347)" fill="#6c63ff"/>
    <path id="Path_321" data-name="Path 321" d="M992.51,740a18.17,18.17,0,0,0,2.9-.169c.182-.025.362-.054.543-.083.337-.052.674-.458,1.011-.506" transform="translate(-822.761 -614.322)" fill="#407d3b" opacity="0.3"/>
    <path id="Path_322" data-name="Path 322" d="M982.5,687.728c-1.195-.464-2.181-.876-2.326-.506s.607,1.389,1.8,1.854,2.28.539,2.425.169S983.691,688.193,982.5,687.728Z" transform="translate(-812.487 -570.953)" fill="#6c63ff"/>
    <path id="Path_323" data-name="Path 323" d="M982.5,687.728c-1.195-.464-2.181-.876-2.326-.506s.607,1.389,1.8,1.854,2.28.539,2.425.169S983.691,688.193,982.5,687.728Z" transform="translate(-812.487 -570.953)" opacity="0.1"/>
    <path id="Path_324" data-name="Path 324" d="M982.934,687.591c-1.163-.452-2.107-.9-2.23-.585s.622,1.277,1.785,1.729,2.206.563,2.329.248S984.1,688.036,982.934,687.591Z" transform="translate(-812.934 -570.803)" fill="#6c63ff"/>
    <path id="Path_325" data-name="Path 325" d="M985.032,689.439a18.029,18.029,0,0,1-2.732-.981c-.169-.076-.337-.155-.506-.233-.308-.145-.517-.629-.824-.775" transform="translate(-813.165 -571.261)" fill="#407d3b" opacity="0.3"/>
    <path id="Path_326" data-name="Path 326" d="M970.678,731.863c-1.195-.465-2.181-.878-2.326-.506s.607,1.389,1.8,1.854,2.279.539,2.424.169S971.871,732.327,970.678,731.863Z" transform="translate(-802.659 -607.649)" fill="#6c63ff"/>
    <path id="Path_327" data-name="Path 327" d="M970.678,731.863c-1.195-.465-2.181-.878-2.326-.506s.607,1.389,1.8,1.854,2.279.539,2.424.169S971.871,732.327,970.678,731.863Z" transform="translate(-802.659 -607.649)" opacity="0.1"/>
    <path id="Path_328" data-name="Path 328" d="M971.134,731.674c-1.163-.452-2.107-.9-2.23-.585s.622,1.277,1.785,1.731,2.206.563,2.329.246S972.3,732.127,971.134,731.674Z" transform="translate(-803.122 -607.458)" fill="#6c63ff"/>
    <path id="Path_329" data-name="Path 329" d="M973.22,733.579a18.222,18.222,0,0,1-2.739-.983c-.169-.076-.337-.153-.5-.233-.307-.145-.516-.629-.824-.774" transform="translate(-803.346 -607.962)" fill="#407d3b" opacity="0.3"/>
    <path id="Path_330" data-name="Path 330" d="M969.066,742.688c-1.217.4-2.241.706-2.117,1.087s1.348.686,2.568.287,2.1-1.031,1.982-1.414S970.283,742.287,969.066,742.688Z" transform="translate(-801.499 -616.928)" fill="#6c63ff"/>
    <path id="Path_331" data-name="Path 331" d="M969.066,742.688c-1.217.4-2.241.706-2.117,1.087s1.348.686,2.568.287,2.1-1.031,1.982-1.414S970.283,742.287,969.066,742.688Z" transform="translate(-801.499 -616.928)" opacity="0.1"/>
    <path id="Path_332" data-name="Path 332" d="M969.181,742.646c-1.18.389-2.191.642-2.093.966s1.291.592,2.477.2,2.061-.967,1.955-1.289S970.367,742.263,969.181,742.646Z" transform="translate(-801.617 -616.88)" fill="#6c63ff"/>
    <path id="Path_333" data-name="Path 333" d="M971.674,743.66a17.933,17.933,0,0,1-2.734.977l-.531.137c-.337.084-.8-.157-1.129-.074" transform="translate(-801.783 -617.997)" fill="#407d3b" opacity="0.3"/>
    <ellipse id="Ellipse_62" data-name="Ellipse 62" cx="1.793" cy="3.598" rx="1.793" ry="3.598" transform="translate(169.479 105.618) rotate(-76.34)" fill="#6c63ff"/>
    <ellipse id="Ellipse_63" data-name="Ellipse 63" cx="1.793" cy="3.598" rx="1.793" ry="3.598" transform="translate(169.479 105.618) rotate(-76.34)" opacity="0.1"/>
    <ellipse id="Ellipse_64" data-name="Ellipse 64" cx="1.65" cy="3.504" rx="1.65" ry="3.504" transform="translate(169.602 105.495) rotate(-76.34)" fill="#6c63ff"/>
    <path id="Path_334" data-name="Path 334" d="M994,637.88a16.143,16.143,0,0,0,4.325,1.257c.283.04.566.074.843.108l1.581.185" transform="translate(-823.999 -534.13)" fill="#407d3b" opacity="0.3"/>
    <ellipse id="Ellipse_65" data-name="Ellipse 65" cx="3.598" cy="1.793" rx="3.598" ry="1.793" transform="matrix(0.221, -0.975, 0.975, 0.221, 167.327, 102.484)" fill="#6c63ff"/>
    <ellipse id="Ellipse_66" data-name="Ellipse 66" cx="3.598" cy="1.793" rx="3.598" ry="1.793" transform="matrix(0.221, -0.975, 0.975, 0.221, 167.327, 102.484)" opacity="0.1"/>
    <ellipse id="Ellipse_67" data-name="Ellipse 67" cx="3.504" cy="1.65" rx="3.504" ry="1.65" transform="matrix(0.221, -0.975, 0.975, 0.221, 167.496, 102.415)" fill="#6c63ff"/>
    <path id="Path_335" data-name="Path 335" d="M988.92,601.723a16.153,16.153,0,0,0,1.193-4.346c.037-.281.066-.566.094-.843l.169-1.584" transform="translate(-819.776 -499.001)" fill="#407d3b" opacity="0.3"/>
    <ellipse id="Ellipse_68" data-name="Ellipse 68" cx="3.598" cy="1.793" rx="3.598" ry="1.793" transform="matrix(0.221, -0.975, 0.975, 0.221, 165.533, 111.733)" fill="#6c63ff"/>
    <ellipse id="Ellipse_69" data-name="Ellipse 69" cx="3.598" cy="1.793" rx="3.598" ry="1.793" transform="matrix(0.221, -0.975, 0.975, 0.221, 165.533, 111.733)" opacity="0.1"/>
    <ellipse id="Ellipse_70" data-name="Ellipse 70" cx="3.504" cy="1.65" rx="3.504" ry="1.65" transform="matrix(0.221, -0.975, 0.975, 0.221, 165.702, 111.66)" fill="#6c63ff"/>
    <path id="Path_336" data-name="Path 336" d="M978.28,648.083a16.215,16.215,0,0,0,1.19-4.346c.035-.281.066-.566.094-.843l.169-1.584" transform="translate(-810.929 -536.128)" fill="#407d3b" opacity="0.3"/>
    <ellipse id="Ellipse_71" data-name="Ellipse 71" cx="1.793" cy="3.598" rx="1.793" ry="3.598" transform="translate(159.516 103.404) rotate(-76.34)" fill="#6c63ff"/>
    <ellipse id="Ellipse_72" data-name="Ellipse 72" cx="1.793" cy="3.598" rx="1.793" ry="3.598" transform="translate(159.516 103.404) rotate(-76.34)" opacity="0.1"/>
    <ellipse id="Ellipse_73" data-name="Ellipse 73" cx="1.65" cy="3.504" rx="1.65" ry="3.504" transform="translate(159.636 103.283) rotate(-76.34)" fill="#6c63ff"/>
    <path id="Path_337" data-name="Path 337" d="M942.11,626.74A16.143,16.143,0,0,0,946.436,628c.281.04.565.074.843.108l1.583.185" transform="translate(-782.092 -525.193)" fill="#407d3b" opacity="0.3"/>
    <ellipse id="Ellipse_74" data-name="Ellipse 74" cx="1.534" cy="3.076" rx="1.534" ry="3.076" transform="matrix(0.797, -0.604, 0.604, 0.797, 167.86, 105.285)" fill="#6c63ff"/>
    <ellipse id="Ellipse_75" data-name="Ellipse 75" cx="1.534" cy="3.076" rx="1.534" ry="3.076" transform="matrix(0.797, -0.604, 0.604, 0.797, 167.86, 105.285)" opacity="0.1"/>
    <ellipse id="Ellipse_76" data-name="Ellipse 76" cx="1.411" cy="2.997" rx="1.411" ry="2.997" transform="matrix(0.797, -0.604, 0.604, 0.797, 167.998, 105.264)" fill="#6c63ff"/>
    <path id="Path_338" data-name="Path 338" d="M988.7,638.59a13.828,13.828,0,0,0,2.191,3.17c.169.179.337.354.506.529l.949.976" transform="translate(-819.593 -534.26)" fill="#407d3b" opacity="0.3"/>
    <ellipse id="Ellipse_77" data-name="Ellipse 77" cx="1.534" cy="3.076" rx="1.534" ry="3.076" transform="matrix(0.8, -0.6, 0.6, 0.8, 163.863, 100.47)" fill="#6c63ff"/>
    <ellipse id="Ellipse_78" data-name="Ellipse 78" cx="1.534" cy="3.076" rx="1.534" ry="3.076" transform="matrix(0.8, -0.6, 0.6, 0.8, 163.863, 100.47)" opacity="0.1"/>
    <ellipse id="Ellipse_79" data-name="Ellipse 79" cx="1.411" cy="2.997" rx="1.411" ry="2.997" transform="matrix(0.797, -0.604, 0.604, 0.797, 163.91, 99.224)" fill="#6c63ff"/>
    <path id="Path_339" data-name="Path 339" d="M964.44,608.26a13.779,13.779,0,0,0,2.191,3.17c.169.18.337.354.506.529l.949.976" transform="translate(-799.421 -509.952)" fill="#407d3b" opacity="0.3"/>
    <ellipse id="Ellipse_80" data-name="Ellipse 80" cx="2.626" cy="1.309" rx="2.626" ry="1.309" transform="matrix(0.797, -0.604, 0.604, 0.797, 168.041, 102.324)" fill="#6c63ff"/>
    <ellipse id="Ellipse_81" data-name="Ellipse 81" cx="2.626" cy="1.309" rx="2.626" ry="1.309" transform="matrix(0.797, -0.604, 0.604, 0.797, 168.041, 102.324)" opacity="0.1"/>
    <ellipse id="Ellipse_82" data-name="Ellipse 82" cx="2.558" cy="1.203" rx="2.558" ry="1.203" transform="matrix(0.797, -0.604, 0.604, 0.797, 168.154, 102.349)" fill="#6c63ff"/>
    <path id="Path_340" data-name="Path 340" d="M991.6,618.33a11.762,11.762,0,0,0-2.707,1.869c-.153.14-.3.285-.452.43l-.843.811" transform="translate(-818.678 -518.238)" fill="#407d3b" opacity="0.3"/>
    <ellipse id="Ellipse_83" data-name="Ellipse 83" cx="2.626" cy="1.309" rx="2.626" ry="1.309" transform="translate(163.85 105.508) rotate(-29.9)" fill="#6c63ff"/>
    <ellipse id="Ellipse_84" data-name="Ellipse 84" cx="2.626" cy="1.309" rx="2.626" ry="1.309" transform="translate(163.85 105.508) rotate(-29.9)" opacity="0.1"/>
    <ellipse id="Ellipse_85" data-name="Ellipse 85" cx="2.558" cy="1.203" rx="2.558" ry="1.203" transform="translate(163.959 105.546) rotate(-29.9)" fill="#6c63ff"/>
    <path id="Path_341" data-name="Path 341" d="M961.72,640.747a11.806,11.806,0,0,1,2.776-1.766c.189-.086.381-.169.571-.248l1.072-.453" transform="translate(-797.16 -534.325)" fill="#407d3b" opacity="0.3"/>
    <ellipse id="Ellipse_86" data-name="Ellipse 86" cx="0.565" cy="1.131" rx="0.565" ry="1.131" transform="translate(166.997 102.009) rotate(-37.72)" fill="#6c63ff"/>
    <ellipse id="Ellipse_87" data-name="Ellipse 87" cx="0.565" cy="1.131" rx="0.565" ry="1.131" transform="translate(166.997 102.009) rotate(-37.72)" opacity="0.1"/>
    <ellipse id="Ellipse_88" data-name="Ellipse 88" cx="0.519" cy="1.102" rx="0.519" ry="1.102" transform="translate(167.054 101.997) rotate(-37.72)" fill="#6c63ff"/>
    <path id="Path_342" data-name="Path 342" d="M979.05,627.12a5.117,5.117,0,0,1,.915,1.082c.047.076.094.152.14.229l.256.43" transform="translate(-811.569 -525.473)" fill="#407d3b" opacity="0.3"/>
    <ellipse id="Ellipse_89" data-name="Ellipse 89" cx="0.565" cy="1.131" rx="0.565" ry="1.131" transform="translate(168.409 104.143) rotate(-37.72)" fill="#6c63ff"/>
    <ellipse id="Ellipse_90" data-name="Ellipse 90" cx="0.565" cy="1.131" rx="0.565" ry="1.131" transform="translate(168.409 104.143) rotate(-37.72)" opacity="0.1"/>
    <ellipse id="Ellipse_91" data-name="Ellipse 91" cx="0.519" cy="1.102" rx="0.519" ry="1.102" transform="translate(168.463 104.13) rotate(-37.72)" fill="#6c63ff"/>
    <path id="Path_343" data-name="Path 343" d="M987.41,637.89a5.075,5.075,0,0,1,.917,1.082c.047.076.093.152.138.229l.256.43" transform="translate(-818.52 -534.112)" fill="#407d3b" opacity="0.3"/>
    <circle id="Ellipse_92" data-name="Ellipse 92" cx="0.229" cy="0.229" r="0.229" transform="translate(168.622 103.307)" fill="#6c63ff"/>
    <circle id="Ellipse_93" data-name="Ellipse 93" cx="0.229" cy="0.229" r="0.229" transform="translate(168.622 103.307)" fill="#407d3b" opacity="0.3"/>
    <g id="Group_21" data-name="Group 21" transform="translate(11.039 89.788)" opacity="0.1">
      <path id="Path_344" data-name="Path 344" d="M141.807,597.379a20.423,20.423,0,0,1,.047-3.92,1.676,1.676,0,0,1,.019-.18c.012-.108.025-.217.039-.329a.283.283,0,0,1,.013-.1c.015-.13.034-.263.054-.4a.043.043,0,0,1,0-.013,26.569,26.569,0,0,1,1.793-6.423l.064-.15c.022-.052.044-.106.067-.16s.027-.061.039-.091.022-.051.032-.076c.057-.138.111-.273.169-.406v-.017a8.617,8.617,0,0,0,.453-5.255c-.012-.047-.024-.093-.037-.138a6.918,6.918,0,0,0-1.048-2.191l-.079-.106c-.052-.072-.108-.143-.169-.212a8.135,8.135,0,0,0-1.7-1.581l-.1-.071c-.054-.037-.106-.071-.155-.1s-.089-.057-.13-.081c-.076-.047-.145-.088-.206-.123l-.1-.054c-.133-.074-.216-.111-.229-.118l-.02.045-.032.069v.025l-.017.034v.022l-.025.057v.01l-.02.047v.014l-.042.094-.086.189-.01.024-.02.042-.02.047-.046.1.064.032.037.02a.015.015,0,0,1,.01,0h.01l.02.01.039.02.116.066.074.042c.137.081.3.187.485.317l.169.126.081.061c.079.061.169.128.244.2h0l.069.062c.047.039.1.083.143.126l.022.02c.138.128.278.266.416.418a6.814,6.814,0,0,1,.506.62c.054.074.1.15.155.226a6.02,6.02,0,0,1,.45.814h0a5.838,5.838,0,0,1,.388,1.149.69.69,0,0,1,.017.081,8.042,8.042,0,0,1-.592,4.719.082.082,0,0,1,0,.019c-.037.091-.074.182-.115.275v.012c-.01.022-.02.046-.029.067l-.118.28c-.025.059-.049.118-.072.169a27.52,27.52,0,0,0-1.773,6.4v.017c-.019.126-.037.251-.052.374v.039a.057.057,0,0,0,0,.017v.03c-.012.1-.024.2-.034.292l-.01.094a.254.254,0,0,1-.008.079q-.02.168-.035.337-.013.121-.02.238a21.1,21.1,0,0,0-.046,3.061Z" transform="translate(-132.414 -567.616)" fill="#6c63ff"/>
      <path id="Path_345" data-name="Path 345" d="M161.392,632.194c1.262-.108,2.312-.226,2.346.169s-.962,1.149-2.225,1.257-2.314-.123-2.348-.516S160.128,632.3,161.392,632.194Z" transform="translate(-148.099 -615.018)" fill="#6c63ff"/>
      <path id="Path_346" data-name="Path 346" d="M161.392,632.194c1.262-.108,2.312-.226,2.346.169s-.962,1.149-2.225,1.257-2.314-.123-2.348-.516S160.128,632.3,161.392,632.194Z" transform="translate(-148.099 -615.018)" fill="#6c63ff" opacity="0.1"/>
      <path id="Path_347" data-name="Path 347" d="M161.663,632.076c1.23-.106,2.252-.27,2.28.066s-.945,1.04-2.176,1.144-2.252-.079-2.28-.415S160.432,632.18,161.663,632.076Z" transform="translate(-148.366 -614.894)" fill="#6c63ff"/>
      <path id="Path_348" data-name="Path 348" d="M159.6,633.807a17.977,17.977,0,0,0,2.865-.169l.538-.083c.337-.052.666-.453,1-.506Z" transform="translate(-148.461 -615.816)" fill="#6c63ff" opacity="0.3"/>
      <path id="Path_349" data-name="Path 349" d="M148.226,675.754c1.262-.108,2.314-.226,2.348.169s-.964,1.149-2.226,1.257-2.314-.123-2.353-.517S146.962,675.862,148.226,675.754Z" transform="translate(-137.148 -651.237)" fill="#6c63ff"/>
      <path id="Path_350" data-name="Path 350" d="M148.226,675.754c1.262-.108,2.314-.226,2.348.169s-.964,1.149-2.226,1.257-2.314-.123-2.353-.517S146.962,675.862,148.226,675.754Z" transform="translate(-137.148 -651.237)" fill="#6c63ff" opacity="0.1"/>
      <path id="Path_351" data-name="Path 351" d="M148.531,675.632c1.23-.1,2.252-.268,2.28.066s-.945,1.04-2.176,1.146-2.25-.081-2.279-.418S147.307,675.738,148.531,675.632Z" transform="translate(-137.449 -651.111)" fill="#6c63ff"/>
      <path id="Path_352" data-name="Path 352" d="M146.46,677.375a17.779,17.779,0,0,0,2.865-.169c.18-.025.359-.054.538-.081.337-.052.674-.453,1-.506Z" transform="translate(-137.535 -652.043)" fill="#6c63ff" opacity="0.3"/>
      <path id="Path_353" data-name="Path 353" d="M136.572,625.69c-1.18-.458-2.156-.868-2.3-.506s.6,1.374,1.78,1.832,2.255.534,2.4.169S137.752,626.15,136.572,625.69Z" transform="translate(-127.388 -609.161)" fill="#6c63ff"/>
      <path id="Path_354" data-name="Path 354" d="M136.572,625.69c-1.18-.458-2.156-.868-2.3-.506s.6,1.374,1.78,1.832,2.255.534,2.4.169S137.752,626.15,136.572,625.69Z" transform="translate(-127.388 -609.161)" fill="#6c63ff" opacity="0.1"/>
      <path id="Path_355" data-name="Path 355" d="M137.052,625.514c-1.151-.448-2.085-.891-2.206-.58s.615,1.264,1.765,1.712,2.182.556,2.3.244S138.194,625.961,137.052,625.514Z" transform="translate(-127.868 -608.982)" fill="#6c63ff"/>
      <path id="Path_356" data-name="Path 356" d="M139.1,627.422a17.838,17.838,0,0,1-2.7-.971l-.5-.226c-.3-.143-.506-.622-.816-.765Z" transform="translate(-128.082 -609.506)" fill="#6c63ff" opacity="0.3"/>
      <path id="Path_357" data-name="Path 357" d="M124.864,669.349c-1.18-.46-2.157-.868-2.3-.506s.6,1.374,1.781,1.832,2.255.534,2.4.169S126.045,669.809,124.864,669.349Z" transform="translate(-117.651 -645.462)" fill="#6c63ff"/>
      <path id="Path_358" data-name="Path 358" d="M124.864,669.349c-1.18-.46-2.157-.868-2.3-.506s.6,1.374,1.781,1.832,2.255.534,2.4.169S126.045,669.809,124.864,669.349Z" transform="translate(-117.651 -645.462)" fill="#6c63ff" opacity="0.1"/>
      <path id="Path_359" data-name="Path 359" d="M125.322,669.174c-1.151-.448-2.085-.892-2.206-.58s.613,1.264,1.765,1.712,2.183.556,2.3.244S126.471,669.621,125.322,669.174Z" transform="translate(-118.114 -645.284)" fill="#6c63ff"/>
      <path id="Path_360" data-name="Path 360" d="M127.444,671.057a17.838,17.838,0,0,1-2.7-.971l-.492-.231c-.3-.143-.506-.622-.816-.765Z" transform="translate(-118.395 -645.783)" fill="#6c63ff" opacity="0.3"/>
      <path id="Path_361" data-name="Path 361" d="M123.273,680.089c-1.2.4-2.216.7-2.093,1.075s1.336.674,2.54.285,2.08-1.021,1.957-1.4S124.478,679.695,123.273,680.089Z" transform="translate(-116.507 -654.673)" fill="#6c63ff"/>
      <path id="Path_362" data-name="Path 362" d="M123.273,680.089c-1.2.4-2.216.7-2.093,1.075s1.336.674,2.54.285,2.08-1.021,1.957-1.4S124.478,679.695,123.273,680.089Z" transform="translate(-116.507 -654.673)" fill="#6c63ff" opacity="0.1"/>
      <path id="Path_363" data-name="Path 363" d="M123.381,680.017c-1.18.384-2.176.635-2.07.954s1.276.585,2.449.2,2.039-.957,1.935-1.276S124.554,679.631,123.381,680.017Z" transform="translate(-116.619 -654.595)" fill="#6c63ff"/>
      <path id="Path_364" data-name="Path 364" d="M125.848,681a17.63,17.63,0,0,1-2.7.967c-.169.047-.351.091-.526.135-.327.083-.79-.155-1.117-.072Z" transform="translate(-116.782 -655.685)" fill="#6c63ff" opacity="0.3"/>
      <ellipse id="Ellipse_94" data-name="Ellipse 94" cx="1.775" cy="3.559" rx="1.775" ry="3.559" transform="translate(8.648 9.34) rotate(-76.34)" fill="#6c63ff"/>
      <ellipse id="Ellipse_95" data-name="Ellipse 95" cx="1.775" cy="3.559" rx="1.775" ry="3.559" transform="translate(8.648 9.34) rotate(-76.34)" fill="#6c63ff" opacity="0.1"/>
      <ellipse id="Ellipse_96" data-name="Ellipse 96" cx="1.631" cy="3.467" rx="1.631" ry="3.467" transform="translate(8.77 9.233) rotate(-76.34)" fill="#6c63ff"/>
      <path id="Path_365" data-name="Path 365" d="M147.91,576.38a16.01,16.01,0,0,0,4.281,1.245c.278.04.56.072.843.106l1.564.182Z" transform="translate(-138.741 -568.697)" fill="#6c63ff" opacity="0.3"/>
      <ellipse id="Ellipse_97" data-name="Ellipse 97" cx="3.559" cy="1.775" rx="3.559" ry="1.775" transform="matrix(0.221, -0.975, 0.975, 0.221, 6.521, 6.943)" fill="#6c63ff"/>
      <ellipse id="Ellipse_98" data-name="Ellipse 98" cx="3.559" cy="1.775" rx="3.559" ry="1.775" transform="matrix(0.221, -0.975, 0.975, 0.221, 6.521, 6.943)" fill="#6c63ff" opacity="0.1"/>
      <ellipse id="Ellipse_99" data-name="Ellipse 99" cx="3.467" cy="1.631" rx="3.467" ry="1.631" transform="matrix(0.221, -0.975, 0.975, 0.221, 6.69, 6.887)" fill="#6c63ff"/>
      <path id="Path_366" data-name="Path 366" d="M142.91,540.578a16.06,16.06,0,0,0,1.18-4.3c.035-.28.064-.561.093-.843l.158-1.567Z" transform="translate(-134.584 -533.352)" fill="#6c63ff" opacity="0.3"/>
      <ellipse id="Ellipse_100" data-name="Ellipse 100" cx="3.559" cy="1.775" rx="3.559" ry="1.775" transform="matrix(0.221, -0.975, 0.975, 0.221, 4.747, 14.672)" fill="#6c63ff"/>
      <ellipse id="Ellipse_101" data-name="Ellipse 101" cx="3.559" cy="1.775" rx="3.559" ry="1.775" transform="matrix(0.221, -0.975, 0.975, 0.221, 4.747, 14.672)" fill="#6c63ff" opacity="0.1"/>
      <ellipse id="Ellipse_102" data-name="Ellipse 102" cx="3.467" cy="1.631" rx="3.467" ry="1.631" transform="matrix(0.221, -0.975, 0.975, 0.221, 4.917, 14.617)" fill="#6c63ff"/>
      <path id="Path_367" data-name="Path 367" d="M132.38,586.439a15.964,15.964,0,0,0,1.18-4.3c.035-.28.064-.561.093-.843l.158-1.567Z" transform="translate(-125.828 -571.483)" fill="#6c63ff" opacity="0.3"/>
      <ellipse id="Ellipse_103" data-name="Ellipse 103" cx="1.775" cy="3.559" rx="1.775" ry="3.559" transform="translate(0 7.484) rotate(-76.34)" fill="#6c63ff"/>
      <ellipse id="Ellipse_104" data-name="Ellipse 104" cx="1.775" cy="3.559" rx="1.775" ry="3.559" transform="translate(0 7.484) rotate(-76.34)" fill="#6c63ff" opacity="0.1"/>
      <ellipse id="Ellipse_105" data-name="Ellipse 105" cx="1.631" cy="3.467" rx="1.631" ry="3.467" transform="translate(0.121 7.377) rotate(-76.34)" fill="#6c63ff"/>
      <path id="Path_368" data-name="Path 368" d="M96.6,565.37a16.012,16.012,0,0,0,4.281,1.245c.278.04.56.072.843.1l1.564.184Z" transform="translate(-96.078 -559.543)" fill="#6c63ff" opacity="0.3"/>
      <ellipse id="Ellipse_106" data-name="Ellipse 106" cx="1.517" cy="3.042" rx="1.517" ry="3.042" transform="matrix(0.797, -0.604, 0.604, 0.797, 7.053, 8.62)" fill="#6c63ff"/>
      <ellipse id="Ellipse_107" data-name="Ellipse 107" cx="1.517" cy="3.042" rx="1.517" ry="3.042" transform="matrix(0.797, -0.604, 0.604, 0.797, 7.053, 8.62)" fill="#6c63ff" opacity="0.1"/>
      <ellipse id="Ellipse_108" data-name="Ellipse 108" cx="1.395" cy="2.964" rx="1.395" ry="2.964" transform="matrix(0.797, -0.604, 0.604, 0.797, 7.189, 8.613)" fill="#6c63ff"/>
      <path id="Path_369" data-name="Path 369" d="M142.7,577.09a13.691,13.691,0,0,0,2.164,3.136c.169.169.337.351.506.522l.939.966Z" transform="translate(-134.409 -569.288)" fill="#6c63ff" opacity="0.3"/>
      <ellipse id="Ellipse_109" data-name="Ellipse 109" cx="1.517" cy="3.042" rx="1.517" ry="3.042" transform="matrix(0.797, -0.604, 0.604, 0.797, 3.007, 3.561)" fill="#6c63ff"/>
      <ellipse id="Ellipse_110" data-name="Ellipse 110" cx="1.517" cy="3.042" rx="1.517" ry="3.042" transform="matrix(0.797, -0.604, 0.604, 0.797, 3.007, 3.561)" fill="#6c63ff" opacity="0.1"/>
      <ellipse id="Ellipse_111" data-name="Ellipse 111" cx="1.395" cy="2.964" rx="1.395" ry="2.964" transform="matrix(0.797, -0.604, 0.604, 0.797, 3.144, 3.555)" fill="#6c63ff"/>
      <path id="Path_370" data-name="Path 370" d="M118.7,547.09a13.651,13.651,0,0,0,2.164,3.135c.169.179.337.351.506.524l.939.966Z" transform="translate(-114.454 -544.344)" fill="#6c63ff" opacity="0.3"/>
      <ellipse id="Ellipse_112" data-name="Ellipse 112" cx="2.599" cy="1.296" rx="2.599" ry="1.296" transform="matrix(0.797, -0.604, 0.604, 0.797, 7.227, 6.516)" fill="#6c63ff"/>
      <ellipse id="Ellipse_113" data-name="Ellipse 113" cx="2.599" cy="1.296" rx="2.599" ry="1.296" transform="matrix(0.797, -0.604, 0.604, 0.797, 7.227, 6.516)" fill="#6c63ff" opacity="0.1"/>
      <ellipse id="Ellipse_114" data-name="Ellipse 114" cx="2.531" cy="1.192" rx="2.531" ry="1.192" transform="matrix(0.797, -0.604, 0.604, 0.797, 7.339, 6.552)" fill="#6c63ff"/>
      <path id="Path_371" data-name="Path 371" d="M145.609,557a11.708,11.708,0,0,0-2.678,1.854c-.15.14-.3.283-.447.426l-.824.8Z" transform="translate(-133.544 -552.583)" fill="#6c63ff" opacity="0.3"/>
      <ellipse id="Ellipse_115" data-name="Ellipse 115" cx="2.599" cy="1.296" rx="2.599" ry="1.296" transform="translate(3.082 9.149) rotate(-29.9)" fill="#6c63ff"/>
      <ellipse id="Ellipse_116" data-name="Ellipse 116" cx="2.599" cy="1.296" rx="2.599" ry="1.296" transform="translate(3.082 9.149) rotate(-29.9)" fill="#6c63ff" opacity="0.1"/>
      <ellipse id="Ellipse_117" data-name="Ellipse 117" cx="2.531" cy="1.192" rx="2.531" ry="1.192" transform="translate(3.19 9.198) rotate(-29.9)" fill="#6c63ff"/>
      <path id="Path_372" data-name="Path 372" d="M116,579.23a11.629,11.629,0,0,1,2.745-1.748c.187-.084.378-.169.566-.246l1.06-.447Z" transform="translate(-112.209 -569.038)" fill="#6c63ff" opacity="0.3"/>
      <ellipse id="Ellipse_118" data-name="Ellipse 118" cx="0.558" cy="1.119" rx="0.558" ry="1.119" transform="translate(6.205 6.211) rotate(-37.72)" fill="#6c63ff"/>
      <ellipse id="Ellipse_119" data-name="Ellipse 119" cx="0.558" cy="1.119" rx="0.558" ry="1.119" transform="translate(6.205 6.211) rotate(-37.72)" fill="#6c63ff" opacity="0.1"/>
      <ellipse id="Ellipse_120" data-name="Ellipse 120" cx="0.512" cy="1.09" rx="0.512" ry="1.09" transform="translate(6.26 6.205) rotate(-37.72)" fill="#6c63ff"/>
      <path id="Path_373" data-name="Path 373" d="M133.14,565.74a5.007,5.007,0,0,1,.907,1.07c.047.074.093.152.138.228l.253.425Z" transform="translate(-126.46 -559.85)" fill="#6c63ff" opacity="0.3"/>
      <ellipse id="Ellipse_121" data-name="Ellipse 121" cx="0.558" cy="1.119" rx="0.558" ry="1.119" transform="translate(7.601 8.007) rotate(-37.72)" fill="#6c63ff"/>
      <ellipse id="Ellipse_122" data-name="Ellipse 122" cx="0.558" cy="1.119" rx="0.558" ry="1.119" transform="translate(7.601 8.007) rotate(-37.72)" fill="#6c63ff" opacity="0.1"/>
      <ellipse id="Ellipse_123" data-name="Ellipse 123" cx="0.512" cy="1.09" rx="0.512" ry="1.09" transform="translate(7.655 8) rotate(-37.72)" fill="#6c63ff"/>
      <path id="Path_374" data-name="Path 374" d="M141.42,576.4a5.058,5.058,0,0,1,.907,1.068c.047.076.093.152.138.228l.253.426Z" transform="translate(-133.345 -568.714)" fill="#6c63ff" opacity="0.3"/>
      <circle id="Ellipse_124" data-name="Ellipse 124" cx="0.226" cy="0.226" r="0.226" transform="translate(7.811 7.437)" fill="#6c63ff"/>
      <circle id="Ellipse_125" data-name="Ellipse 125" cx="0.226" cy="0.226" r="0.226" transform="translate(7.811 7.437)" fill="#6c63ff" opacity="0.3"/>
    </g>
    <path id="Path_375" data-name="Path 375" d="M189.685,459.412a4.968,4.968,0,0,1,.586,1.66,8.121,8.121,0,0,0,1.082,1.424,5.974,5.974,0,0,1,.526.875l.8,1.483a7.94,7.94,0,0,0,1.426-.639l.287.032a5.716,5.716,0,0,0,.657-.1c0,.037-.01.074-.013.11-.137,1.107-.238,2.022-.238,2.022s.27.979.645.674l.02-.017c.01.047.02.1.03.169a10.724,10.724,0,0,1,.19,2.3,17.771,17.771,0,0,0,.169,2.877s.522-.044,1.293-.091c.02.056.042.113.066.169h0c.074.192.157.406.243.618l.015.039c.012.027.022.056.034.083l.022.056.03.072.035.084.022.056.047.113a.359.359,0,0,1,.017.037c.013.03.025.062.039.093l.017.035.04.093.012.027c.054.121.106.233.155.327v.012l.042.079v.012l.042.074h0c.013.025.029.047.04.067a6.361,6.361,0,0,1,.587,1.453l.315,1.913s.066.463.094.88c.01.152.015.3.012.411,0,.032,0,.1.008.192a.3.3,0,0,1,0,.04h0c.029.347.1,1.011.192,1.785.019.157.037.317.057.48h0a21.289,21.289,0,0,0,.052,2.9s-.226,3.6-.169,3.944a2.8,2.8,0,0,1-.278,1.011l-.046-.04a2.978,2.978,0,0,0-.789,1.813c.015.971.091,2.284.091,2.284s.074.533-.091.674,0,.89,0,.89a1.77,1.77,0,0,0,2.6-.108,3.649,3.649,0,0,0,.137-1.318c-.008-.042-.017-.1-.027-.169a15.45,15.45,0,0,0-.135-1.675l-.138-1.011c.148-.015.374-.816.27-1.011a2.8,2.8,0,0,1,.091-1.011l.354-1.094h0c.015.035.03.071.046.11v.015a.392.392,0,0,1,.019.047v.015l.066.169h0l.02.059V488c.022.061.042.123.061.185h0l.017.057v.013c.017.061.032.118.044.169v.012l.01.049v.067a.047.047,0,0,1,0,.015.653.653,0,0,1,0,.079.1.1,0,0,1,0,.024v.14a2.543,2.543,0,0,0,.108,1.156v.017a.126.126,0,0,0,.019.047.146.146,0,0,0,.012.029q.012.031.027.061h0a.729.729,0,0,0,.066.106h0l-.046,3.876a1.849,1.849,0,0,0,1.834.674,1.242,1.242,0,0,0,.917-1.795,3.893,3.893,0,0,1-.27-1.2s-.226-1.6-.376-2.181a.689.689,0,0,0-.351-.506c-.057-.182-.138-.351-.145-.376a4.718,4.718,0,0,1-.327-.775.608.608,0,0,1-.02-.278.909.909,0,0,0,0-.182h0v-.163h0c-.039-.971-.266-3.65-.389-5.043h0a13.1,13.1,0,0,0,.3-1.933,17.983,17.983,0,0,1,.12-2.209,12.064,12.064,0,0,1,.571-2.6,24.147,24.147,0,0,0,.913-2.959c.017-.062.032-.123.047-.182a2.073,2.073,0,0,0,.812-.194,5.684,5.684,0,0,1,.285-2.611,18.678,18.678,0,0,0,.568-5.09v-.258c.4.337.674.8.772.75a21.864,21.864,0,0,0,2.82-1.741c1.1-.89-1.968-5.889-2.314-6.273s-1.057-4.834-1.057-4.834a.873.873,0,0,0,.421.3,3.748,3.748,0,0,1,1.112.745c.467.389,2.6,0,2.6,0a1.689,1.689,0,0,0,1.834-1.245,12.263,12.263,0,0,0,.8-2.417,19.919,19.919,0,0,1,1.18-3.2,2.493,2.493,0,0,0-1.035-.93.912.912,0,0,1,.374-.581c.48-.209,5.83-2.191,3.935-2.865s-4.808,1.517-4.808,1.517-.15.051-.389.539c-.126.258-.29.7-.418,1.053-.013.037-.027.074-.039.11l-.084.008a10.362,10.362,0,0,0-.691,1.854,12.158,12.158,0,0,1-.843,2.061s-.42.431-.27.772-.339.263-.339.263l-.662-.519a4,4,0,0,0-.843-.43,2.348,2.348,0,0,1-.736-.548s-.541-.357-.5-.416-.3-.337-.5-.43-.287-.281-.48-.637-.5-.089-.647-.148a16.359,16.359,0,0,0-2.208.222,1.943,1.943,0,0,1-1.2-.179.9.9,0,0,0-.76-.084,4.009,4.009,0,0,1-.177-.458.692.692,0,0,1-.022-.081,3.232,3.232,0,0,0,1.955-2.959,3.189,3.189,0,0,0-.8-2.118c-.046-.051-.093-.1-.142-.15h0c.182-.088.447-.278.45-.494a.312.312,0,0,0-.088-.222c-.067-.076-.169-.115-.239-.189a.416.416,0,0,1-.1-.3c0-.137.035-.283.037-.425a.613.613,0,0,0-.017-.169.651.651,0,0,0-.553-.433.042.042,0,0,0,0,.012,1.05,1.05,0,0,0-.3-.013c-.347.037-.674.194-1.011.233a4.452,4.452,0,0,1-1.583-.307,1.521,1.521,0,0,0-1.517.256c-.357.4-.337,1.072-.785,1.358a5.065,5.065,0,0,1-.694.248,1.429,1.429,0,0,0-.588.553,2.865,2.865,0,0,0-.443,1.854c.037.351.14.693.182,1.043a3.033,3.033,0,0,1-.072,1.094,1.152,1.152,0,0,1-.674.873,1.146,1.146,0,0,0-.249.084c-.212.13-.184.438-.13.674l.222.989c-.211.158-.536.091-.74.256a.612.612,0,0,0-.169.268,1.449,1.449,0,0,0,.337,1.5.239.239,0,0,1-.019.056c-.005.019-.024.084-.034.13-.18.861-.12.964-.241,1.112h0a10.241,10.241,0,0,1-.735,1.109,1.2,1.2,0,0,0-.271.713,9.443,9.443,0,0,1-1.18,1.468c-.278.148-.721,1.156-.721,1.156s-.706.46-.706.979a8.547,8.547,0,0,1-.135,1.289A3.6,3.6,0,0,0,189.685,459.412Zm2.582-.8c.135-.209,0-.608,0-.608a6.453,6.453,0,0,0,1.011-1.825,1.98,1.98,0,0,1,.932-1.111h0s.421-.169.45,0,.106.517.106.517-.076.861.241,1.2a4.468,4.468,0,0,1,.364,1.78s.506,1.424.266,1.869a11.546,11.546,0,0,0-.347,1.866c-.118-.019-.229-.032-.337-.04a4.638,4.638,0,0,0-1.021-.758c-.347-.118-.674-1.1-.693-1.32s-.315-.964-.63-1.1S192.136,458.819,192.267,458.611Z" transform="translate(-162.1 -364.515)" fill="url(#linear-gradient-3)"/>
    <path id="Path_376" data-name="Path 376" d="M326.019,478.248a2.424,2.424,0,0,0-2.429-1.139v1.733h1.052l.829-.214Z" transform="translate(-271.89 -405.109)" fill="#4c4981"/>
    <path id="Path_377" data-name="Path 377" d="M326.019,478.248a2.424,2.424,0,0,0-2.429-1.139v1.733h1.052l.829-.214Z" transform="translate(-271.89 -405.109)" opacity="0.1"/>
    <path id="Path_378" data-name="Path 378" d="M323.17,461.123l1.288.9s.012-.182.044-.428c.064-.467.209-1.168.519-1.3.474-.207,5.744-2.191,3.876-2.857s-4.736,1.517-4.736,1.517-.148.051-.384.539c-.125.256-.286.694-.411,1.05C323.253,460.866,323.17,461.123,323.17,461.123Z" transform="translate(-271.506 -388.974)" fill="#ae6e79"/>
    <path id="Path_379" data-name="Path 379" d="M231.31,374.8l-.147-.069-.413.47.337.718.575-.229-.133-.575Z" transform="translate(-190.403 -300.698)" fill="#4c4981"/>
    <path id="Path_380" data-name="Path 380" d="M265.974,737.606s.371-.045.519.533.369,2.176.369,2.176a3.95,3.95,0,0,0,.266,1.2,1.243,1.243,0,0,1-.9,1.792,1.818,1.818,0,0,1-1.8-.674l.044-3.876Z" transform="translate(-223.066 -612.963)" fill="#67b1c3"/>
    <path id="Path_381" data-name="Path 381" d="M243.412,738.64a2.993,2.993,0,0,0-.777,1.81c.015.967.089,2.279.089,2.279s.072.533-.089.674,0,.888,0,.888a1.727,1.727,0,0,0,2.56-.11,3.655,3.655,0,0,0,.133-1.315c-.1-.516-.354-2.838-.354-2.838Z" transform="translate(-205.033 -613.823)" fill="#67b1c3"/>
    <path id="Path_382" data-name="Path 382" d="M236,629.646a24.993,24.993,0,0,0,1.141,2.754,5.983,5.983,0,0,1,.576,1.449l.305,1.909a10.631,10.631,0,0,1,.1,1.289c-.015.428.77,6.689.77,6.689l1.244,1.584a4.049,4.049,0,0,1,.458,1.569,2.33,2.33,0,0,0,.236,1.421s.03,1.451.074,1.776-.169,1.244,0,1.406,2.339.089,2.4-.169a8.056,8.056,0,0,0-.266-1.554l-.192-1.244s-.386-.674-.3-.9-.169-.74-.177-.784-.415-.77-.337-1.052-.46-6.246-.46-6.246l-1.517-10.7Z" transform="translate(-199.585 -522.528)" fill="#ae6e79"/>
    <path id="Path_383" data-name="Path 383" d="M236,629.646s.121.337.288.779a15.2,15.2,0,0,0,.853,1.975,6.11,6.11,0,0,1,.576,1.449l.305,1.909a10.629,10.629,0,0,1,.1,1.288c0,.169.113,1.251.26,2.5.224,1.9.506,4.195.506,4.195l1.244,1.584s.062.126.142.312a2.926,2.926,0,0,1,.317,1.257,2.33,2.33,0,0,0,.236,1.421s.03,1.451.074,1.776-.169,1.242,0,1.406,2.339.089,2.4-.169a8.057,8.057,0,0,0-.266-1.554l-.192-1.244s-.384-.674-.3-.9-.169-.74-.177-.784-.415-.77-.337-1.052c.056-.214-.239-3.721-.383-5.383-.046-.522-.076-.863-.076-.863l-1.313-9.205-.1-.743-.108-.753Z" transform="translate(-199.585 -522.529)" opacity="0.1"/>
    <path id="Path_384" data-name="Path 384" d="M243.87,655.382a5.161,5.161,0,0,0,2.386.222c.3-.177,0-2.383,0-2.383l-.137-1.011c.147-.015.369-.814.266-1.011a2.836,2.836,0,0,1,.089-1.011l.349-1.092.212-.674a31.187,31.187,0,0,0,1.158-4.569,13.213,13.213,0,0,0,.293-1.928,18.3,18.3,0,0,1,.118-2.206,12.182,12.182,0,0,1,.563-2.59,24.493,24.493,0,0,0,.9-2.954c.133-.506.226-.88.226-.88s-2.238-.187-3.593-.253c-.625-.03-1.063-.034-1.011.017a1.837,1.837,0,0,1,.061.715,18.29,18.29,0,0,1-.3,3.281,11.409,11.409,0,0,0-.327,2.857,9.1,9.1,0,0,1,.061,1.48,6.573,6.573,0,0,0-.26,1.608,21.645,21.645,0,0,0,.051,2.892s-.221,3.6-.169,3.937a10.819,10.819,0,0,1-.474,1.615c0,.207-.148,1.613-.148,1.613S243.892,655.218,243.87,655.382Z" transform="translate(-206.084 -526.003)" fill="#ae6e79"/>
    <path id="Path_385" data-name="Path 385" d="M236.93,478.264l.256.273.169.179.969,1.042,2.494.281,1.328-.356.337-.088s0-.674-.061-1.47c-.084-1.028-.287-2.275-.769-2.616a1.911,1.911,0,0,1-.565-.713,4.045,4.045,0,0,1-.241-.6c-.01-.027-.017-.052-.025-.078a6.673,6.673,0,0,1-.236-1.1s-.32-.169-.762-.384c-1.16-.539-3.16-1.288-2.464.384a6.194,6.194,0,0,1,.261.75c.01.037.02.074.029.111a2.422,2.422,0,0,1-.094,1.8h0a1.238,1.238,0,0,1-.1.155.82.82,0,0,1-.169.169L237,477.841l-.024.152Z" transform="translate(-200.365 -400.405)" fill="#ae6e79"/>
    <path id="Path_386" data-name="Path 386" d="M238.77,473.543c.131.317-.064-.258,0,0,.528.376,1.771,1.444,2.469,1.444a1.907,1.907,0,0,0,1.011-.268,6.633,6.633,0,0,1-.261-1.18S237.808,471.234,238.77,473.543Z" transform="translate(-201.779 -401.378)" opacity="0.1"/>
    <path id="Path_387" data-name="Path 387" d="M233.17,451.114a3.224,3.224,0,0,0,2.889,3.2,3.173,3.173,0,0,0,.337.019,3.227,3.227,0,1,0-3.226-3.227Z" transform="translate(-197.257 -381.253)" fill="#ae6e79"/>
    <path id="Path_388" data-name="Path 388" d="M230.43,512.588l.458,1.2s.376.017.959.035c1.968.062,6.308.142,6.5-.361a1.249,1.249,0,0,0,.067-.4,7.77,7.77,0,0,0-.337-1.955s-.207-2.359-.207-2.471.18-1.778.18-1.778l-.354-1.331-.993-.691s-.445.683-.711.74a1.875,1.875,0,0,0-.62.386s-.873.533-1.154.236-2.472-1.6-2.472-1.6l-1.154,1.272Z" transform="translate(-194.986 -426.359)" opacity="0.1"/>
    <path id="Path_389" data-name="Path 389" d="M230.43,513.672l.458,1.2s.376.017.959.034h.057c.251,0,.539.017.843.024a36.964,36.964,0,0,0,4.847-.12c.423-.061.7-.147.747-.266a.9.9,0,0,0,.052-.221,1.474,1.474,0,0,0,.015-.169,7.753,7.753,0,0,0-.337-1.955s-.207-2.37-.207-2.472.177-1.761.177-1.761l-.354-1.333-.683-.477-.31-.217a4.449,4.449,0,0,1-.337.447.9.9,0,0,1-.371.293,1.854,1.854,0,0,0-.62.384s-.873.534-1.154.238a22.276,22.276,0,0,0-2.162-1.412l-.31-.187-.155.169-1,1.1Z" transform="translate(-194.986 -427.241)" fill="#fff"/>
    <path id="Path_390" data-name="Path 390" d="M323.17,477.078l1.288.9s.012-.182.044-.428a2.605,2.605,0,0,1-1.134-1.053C323.253,476.822,323.17,477.078,323.17,477.078Z" transform="translate(-271.554 -404.668)" opacity="0.1"/>
    <path id="Path_391" data-name="Path 391" d="M292.309,480.716l.281-.074a2.345,2.345,0,0,0,.725.548,3.974,3.974,0,0,1,.829.43l.651.517s.489.074.337-.266.268-.77.268-.77a12.264,12.264,0,0,0,.828-2.056,10.576,10.576,0,0,1,.674-1.854,2.119,2.119,0,0,0,2.429,1.139,19.706,19.706,0,0,0-1.17,3.2,12.136,12.136,0,0,1-.785,2.413,1.667,1.667,0,0,1-1.8,1.242s-2.1.391-2.56,0a3.64,3.64,0,0,0-1.1-.743.86.86,0,0,1-.415-.3v-1.765Z" transform="translate(-245.364 -404.547)" fill="#3f3d56"/>
    <path id="Path_392" data-name="Path 392" d="M310.884,508s-.369,1.377-.133,1.525Z" transform="translate(-261.253 -429.935)" opacity="0.1"/>
    <path id="Path_393" data-name="Path 393" d="M238.84,556.578c1.968.064,6.308.142,6.5-.361a1.231,1.231,0,0,0,.067-.4l-6.433.337Z" transform="translate(-201.933 -468.382)" opacity="0.1"/>
    <path id="Path_394" data-name="Path 394" d="M236,629.6s.121.337.288.78c.817-.051,1.9-.1,2.926-.11.364,0,.72,0,1.055.012a7.952,7.952,0,0,1,1.726.19,4.55,4.55,0,0,0,1.537.2c.133-.506.226-.88.226-.88s-2.238-.187-3.593-.253l-.108-.753Z" transform="translate(-199.582 -526.792)" fill="#2a2e5e" opacity="0.1"/>
    <path id="Path_395" data-name="Path 395" d="M225.69,564.272l.251.533s.035.158.079.411a10.677,10.677,0,0,1,.189,2.3,17.58,17.58,0,0,0,.169,2.865s5.447-.458,7.045,0a3.233,3.233,0,0,0,2.385,0,5.726,5.726,0,0,1,.28-2.6,19.315,19.315,0,0,0,.56-5.081,4.475,4.475,0,0,0-.145-1.566,46.792,46.792,0,0,1-1.716-4.4l-.319.017-.843.046-4.817.254-.757.039-.079.244Z" transform="translate(-191.054 -467.428)" fill="#b24b8e"/>
    <path id="Path_396" data-name="Path 396" d="M211.244,580.551l-.044.474s2.385-.777,2.265-1.732,0-.843,0-.843l-1.918.169Z" transform="translate(-180.325 -486.322)" fill="#4c4981"/>
    <path id="Path_397" data-name="Path 397" d="M211.244,580.551l-.044.474s2.385-.777,2.265-1.732,0-.843,0-.843l-1.918.169Z" transform="translate(-180.325 -486.322)" opacity="0.1"/>
    <path id="Path_398" data-name="Path 398" d="M298.333,508.421a2.12,2.12,0,0,1-.843.436.55.55,0,0,0,.248-.116c.169-.121.337-.253.5-.383a1.573,1.573,0,0,1,.462-.319A2.527,2.527,0,0,1,298.333,508.421Z" transform="translate(-250.366 -430.04)" opacity="0.1"/>
    <path id="Path_399" data-name="Path 399" d="M301.071,511.082a1.077,1.077,0,0,0-.184.292,1.192,1.192,0,0,0-.052.379,1.18,1.18,0,0,0,.066.538l.388-.922c.066-.157.133-.313.214-.463.034-.066.254-.337.229-.389C301.659,510.357,301.143,510.994,301.071,511.082Z" transform="translate(-253.123 -431.905)" opacity="0.1"/>
    <path id="Path_400" data-name="Path 400" d="M235.558,542.7a1.227,1.227,0,0,1-.7-.324c.394.049.767.2,1.154.285a1.712,1.712,0,0,0,1.074-.1A2.633,2.633,0,0,1,235.558,542.7Z" transform="translate(-199.998 -457.645)" opacity="0.1"/>
    <path id="Path_401" data-name="Path 401" d="M245.55,522.451a.268.268,0,0,0,.2-.051q.443-.253.873-.529a5.334,5.334,0,0,0,.856-.592A4.351,4.351,0,0,1,245.55,522.451Z" transform="translate(-207.695 -440.627)" opacity="0.1"/>
    <path id="Path_402" data-name="Path 402" d="M236.531,545.409a1.838,1.838,0,0,1-.462-.035.623.623,0,0,1-.379-.251.211.211,0,0,1,.16.027,2.735,2.735,0,0,0,1.486.177,2.125,2.125,0,0,1-.806.083Z" transform="translate(-200.688 -459.85)" opacity="0.1"/>
    <path id="Path_403" data-name="Path 403" d="M257.32,587a4.764,4.764,0,0,0,.945.185,5.557,5.557,0,0,0,.748-.013l1.213-.078.607-.039c.071,0,.364,0,.219-.143-.072-.071-.477-.025-.581-.029-.2,0-.4-.01-.6-.012q-.6,0-1.2.025C258.215,586.916,257.772,586.951,257.32,587Z" transform="translate(-217.201 -493.357)" opacity="0.1"/>
    <path id="Path_404" data-name="Path 404" d="M265.64,590.633a5.064,5.064,0,0,1,.683.14,4.4,4.4,0,0,0,.715.029,4.007,4.007,0,0,0,1.377-.281C267.489,590.567,266.564,590.6,265.64,590.633Z" transform="translate(-224.073 -496.291)" opacity="0.1"/>
    <path id="Path_405" data-name="Path 405" d="M271.954,594.817a2.1,2.1,0,0,0-.263.073,3.074,3.074,0,0,1-1.571-.11.942.942,0,0,0,.6.337,2.791,2.791,0,0,0,1.163.042c.121-.024.425-.067.487-.194C272.459,594.763,272.072,594.792,271.954,594.817Z" transform="translate(-227.774 -499.693)" opacity="0.1"/>
    <path id="Path_406" data-name="Path 406" d="M242.69,599.285a4.253,4.253,0,0,0-.453.118,3.854,3.854,0,0,1-1.749-.185,8.127,8.127,0,0,0-2.117-.2,1.874,1.874,0,0,1,.455.15c.169.049.329.094.494.137a9.96,9.96,0,0,0,.989.192,10.221,10.221,0,0,0,2.022.089,2.987,2.987,0,0,0,1.114-.143A1.237,1.237,0,0,0,242.69,599.285Z" transform="translate(-201.557 -503.071)" opacity="0.1"/>
    <path id="Path_407" data-name="Path 407" d="M261.6,488.908a7.768,7.768,0,0,0,.192,1.985c.069.194.179.551.3.951.131.445.271.942.381,1.328l.182.652s.506,4.072.629,6.012v.1a2.149,2.149,0,0,0,.037.337c.287,1.926,1.95,4.9,2.508,5.137a1.686,1.686,0,0,1,.47.322,4.475,4.475,0,0,0-.145-1.566,46.788,46.788,0,0,1-1.716-4.4l-.319.017a1.463,1.463,0,0,0,.015-.169,7.754,7.754,0,0,0-.337-1.955s-.207-2.37-.207-2.472.177-1.761.177-1.761l-.354-1.333-.683-.477c-.084-1.028-.286-2.275-.769-2.616a1.911,1.911,0,0,1-.565-.713c-.094.013.079-.071.079-.071Z" transform="translate(-220.527 -412.243)" opacity="0.1"/>
    <path id="Path_408" data-name="Path 408" d="M261.2,487.537a.886.886,0,0,1,.75.084,1.892,1.892,0,0,0,1.18.179,15.851,15.851,0,0,1,2.176-.222c.153.059.443-.207.635.148s.281.548.474.635.533.371.489.43.489.415.489.415l-1.08,3.507s.7,4.441,1.036,4.827,3.359,5.373,2.279,6.261a21.709,21.709,0,0,1-2.708,1.82c-.118.059-.548-.74-1.139-.993s-2.422-3.581-2.541-5.476-.637-6.113-.637-6.113-.635-2.309-.858-2.931a7.769,7.769,0,0,1-.192-1.985Z" transform="translate(-220.362 -411.578)" fill="#3f3d56"/>
    <path id="Path_409" data-name="Path 409" d="M225.69,512.488l.251.533s.035.158.079.411a.231.231,0,0,0,.128-.056c.371-.3,2.547-2.528,2.649-4.515.076-1.463.04-2.723.017-3.285,0-.177-.015-.283-.015-.307h0s-1.685-2.043-1.495-2.767.629-4.609.629-4.609l.066-.506.111-.858.27-2.08-.278.066a.82.82,0,0,1-.169.169l-.288,1.829-1,1.1-.169,6.7.458,1.2s.376.017.959.034h.057Z" transform="translate(-192.373 -417.009)" opacity="0.1"/>
    <path id="Path_410" data-name="Path 410" d="M214.415,500.96s.416-.169.445,0,.1.517.1.517-.069.866.236,1.2a4.667,4.667,0,0,1,.369,1.771s.506,1.421.261,1.866a12.375,12.375,0,0,0-.352,1.936c-.084.6-.169,1.271-.243,1.877-.133,1.1-.234,2.022-.234,2.022s.266.977.637.674,2.547-2.528,2.649-4.515c.072-1.392.044-2.6.019-3.2-.01-.253-.019-.4-.019-.4s-1.685-2.043-1.495-2.767.63-4.6.63-4.6l.078-.6.083-.644.019-.142.268-2.063h0a9.357,9.357,0,0,0-1.926.605,6.676,6.676,0,0,1-1.569.533,1.18,1.18,0,0,0-.843.863,1.321,1.321,0,0,0-.034.13c-.177.86-.118.962-.238,1.111A33.712,33.712,0,0,0,214.415,500.96Z" transform="translate(-182.032 -416.57)" fill="#3f3d56"/>
    <path id="Path_411" data-name="Path 411" d="M225,580.972c.608-.12,1.5-.4,1.483-1.011-.019-.578-.715-.787-1.24-.861C225.153,579.7,225.069,580.366,225,580.972Z" transform="translate(-191.799 -486.934)" opacity="0.1"/>
    <path id="Path_412" data-name="Path 412" d="M213.811,580c.024.052.125.1.258.136a6.9,6.9,0,0,0,.986.16s2.058-.169,2.022-1.1c-.02-.674-.951-.843-1.473-.888-.206-.017-.347-.013-.347-.013S213.722,579.807,213.811,580Z" transform="translate(-182.493 -486.276)" fill="#ae6e79"/>
    <path id="Path_413" data-name="Path 413" d="M213.812,580c.024.052.125.1.258.136.538-.718,1.286-1.638,1.652-1.719,0,0-.042-.042-.111-.1-.206-.017-.347-.013-.347-.013S213.722,579.807,213.812,580Z" transform="translate(-182.494 -486.296)" opacity="0.1"/>
    <path id="Path_414" data-name="Path 414" d="M195.651,512.6l-.607.089a10.522,10.522,0,0,1-.726,1.109,1.208,1.208,0,0,0-.266.711,9.019,9.019,0,0,1-1.17,1.465c-.281.147-.71,1.154-.71,1.154s-.7.46-.7.977a8.6,8.6,0,0,1-.133,1.288,3.648,3.648,0,0,0,.4,1.451,5.036,5.036,0,0,1,.578,1.658,8.014,8.014,0,0,0,1.065,1.421,5.874,5.874,0,0,1,.517.873l.785,1.48s1.657-2.442,2.265-2.575a4.575,4.575,0,0,0-1.021-.77c-.347-.118-.674-1.1-.674-1.316a1.746,1.746,0,0,0-.622-1.1c-.31-.133-.474-.266-.337-.474s0-.607,0-.607a6.345,6.345,0,0,0,.991-1.822,1.945,1.945,0,0,1,.919-1.109l.458-1.126Z" transform="translate(-163.814 -432.207)" fill="#3f3d56"/>
    <path id="Path_415" data-name="Path 415" d="M197.953,543.153a1.906,1.906,0,0,0-1.193-.453,1.461,1.461,0,0,1,.78.305,1.728,1.728,0,0,1,.217.276c.071.1.642.828.733.713C198.626,543.824,198.068,543.256,197.953,543.153Z" transform="translate(-168.319 -457.798)" opacity="0.1"/>
    <path id="Path_416" data-name="Path 416" d="M208.008,529.581a.506.506,0,0,1-.423-.3,1.675,1.675,0,0,1-.131-.524,7.744,7.744,0,0,0-.184-.9.588.588,0,0,1-.03-.187.536.536,0,0,1,.057-.18,1.209,1.209,0,0,1,.13-.27,1.638,1.638,0,0,1,.185.565c.056.2.108.4.155.607C207.793,528.492,207.993,529.581,208.008,529.581Z" transform="translate(-177.033 -445.264)" opacity="0.1"/>
    <path id="Path_417" data-name="Path 417" d="M214.91,457.671a1.269,1.269,0,0,0,.2.211c.238.192.563.354.593.657a.733.733,0,0,0,.035.293c.078.131.27.121.42.094a.721.721,0,0,0,.354-.13c.16-.137.169-.378.295-.548a.745.745,0,0,1,.6-.268c.226-.008.452.042.674.054a1.869,1.869,0,0,0,.433-.03,1.4,1.4,0,0,0,.142-.029,1.85,1.85,0,0,0,.295-.1,1.233,1.233,0,0,0,.143-.067,1.93,1.93,0,0,0,.418-.29,1.04,1.04,0,0,0,.388-.785,5.006,5.006,0,0,0-.126-.539,1.692,1.692,0,0,1,.634-1.39c.15-.148.31-.293.46-.445a2.228,2.228,0,0,0,.541-.772,2.349,2.349,0,0,0,.1-.964,6.332,6.332,0,0,1-.029-.994,3.49,3.49,0,0,1,2.12-2.568l.044-.024a3.226,3.226,0,1,0-4.338,4.719c.01.037.02.074.029.111a2.422,2.422,0,0,1-.094,1.8h0a9.355,9.355,0,0,0-1.926.605,6.676,6.676,0,0,1-1.569.533A1.18,1.18,0,0,0,214.91,457.671Z" transform="translate(-182.178 -380.831)" opacity="0.1"/>
    <path id="Path_418" data-name="Path 418" d="M221.9,441.111c-.067-.076-.169-.115-.234-.189-.211-.228,0-.6-.078-.9a.741.741,0,0,0-.833-.443c-.342.035-.661.192-1,.231a4.362,4.362,0,0,1-1.559-.305,1.5,1.5,0,0,0-1.5.254c-.357.4-.337,1.07-.775,1.357a5.125,5.125,0,0,1-.683.246,1.439,1.439,0,0,0-.58.553,2.9,2.9,0,0,0-.436,1.854c.037.351.138.693.179,1.043a3.045,3.045,0,0,1-.071,1.09,1.151,1.151,0,0,1-.659.871,1.115,1.115,0,0,0-.246.084c-.209.13-.18.438-.128.674l.221.988c-.207.158-.529.091-.73.256a.61.61,0,0,0-.169.266,1.456,1.456,0,0,0,.433,1.6c.236.192.563.354.593.657a.7.7,0,0,0,.035.292c.078.133.268.123.42.1a.733.733,0,0,0,.352-.131c.169-.135.169-.378.295-.548a.75.75,0,0,1,.6-.268c.228,0,.452.044.674.054a2,2,0,0,0,1.431-.516,1.038,1.038,0,0,0,.388-.787,4.687,4.687,0,0,0-.126-.538,1.707,1.707,0,0,1,.634-1.392,3.8,3.8,0,0,0,1-1.215,7.964,7.964,0,0,0,.067-1.958,3.494,3.494,0,0,1,2.122-2.57C221.776,441.7,222.157,441.407,221.9,441.111Z" transform="translate(-180.212 -373.906)" fill="#444053"/>
    <path id="Path_419" data-name="Path 419" d="M219.464,452.046c.169-.135.169-.378.295-.548a.75.75,0,0,1,.6-.268c.228,0,.452.042.674.054a2,2,0,0,0,1.431-.517,1.04,1.04,0,0,0,.388-.785,5.1,5.1,0,0,0-.126-.539,1.692,1.692,0,0,1,.634-1.39,3.725,3.725,0,0,0,1-1.217,7.948,7.948,0,0,0,.069-1.957,3.493,3.493,0,0,1,2.12-2.57c.236-.115.615-.408.356-.7-.066-.076-.169-.115-.234-.189-.209-.228,0-.6-.078-.9a.464.464,0,0,0-.076-.169.639.639,0,0,1,.546.431c.074.3-.133.674.078.9.067.074.169.113.234.189.26.3-.121.588-.356.7a3.483,3.483,0,0,0-2.122,2.57,7.7,7.7,0,0,1-.067,1.957,3.721,3.721,0,0,1-1,1.217,1.7,1.7,0,0,0-.634,1.392,4.685,4.685,0,0,1,.126.538,1.035,1.035,0,0,1-.388.785,2,2,0,0,1-1.431.517c-.228-.012-.452-.061-.674-.054a.75.75,0,0,0-.6.268c-.121.169-.135.413-.295.548a.733.733,0,0,1-.352.131c-.152.027-.337.037-.42-.1a.337.337,0,0,1-.034-.169.691.691,0,0,0,.337-.13Z" transform="translate(-185.659 -374.665)" opacity="0.1"/>
  </g>
</svg>
