<svg id="Економия" xmlns="http://www.w3.org/2000/svg" xmlns:xlink="http://www.w3.org/1999/xlink" width="203.42" height="146.073" viewBox="0 0 203.42 146.073">
  <defs>
    <linearGradient id="linear-gradient" x1="0.5" y1="1" x2="0.5" gradientUnits="objectBoundingBox">
      <stop offset="0" stop-color="gray" stop-opacity="0.251"/>
      <stop offset="0.535" stop-color="gray" stop-opacity="0.122"/>
      <stop offset="1" stop-color="gray" stop-opacity="0.102"/>
    </linearGradient>
  </defs>
  <ellipse id="Ellipse_126" data-name="Ellipse 126" cx="101.71" cy="12.363" rx="101.71" ry="12.363" transform="translate(0 121.347)" fill="#6c63ff" opacity="0.1"/>
  <path id="Path_420" data-name="Path 420" d="M997.486,706.411s5.3-6.75,4.876-13.447a13.007,13.007,0,0,1,2.047-7.969,21.875,21.875,0,0,1,2.493-3.129" transform="translate(-823.454 -566.641)" fill="none" stroke="#535461" stroke-miterlimit="10" stroke-width="2"/>
  <path id="Path_421" data-name="Path 421" d="M1047.346,653.486c-.374.937.239,4.333.239,4.333s2.782-2.041,3.156-2.979a1.827,1.827,0,1,0-3.395-1.354Z" transform="translate(-864.143 -542.484)" fill="#6c63ff"/>
  <path id="Path_422" data-name="Path 422" d="M1020.923,671.236c.2.99,2.555,3.507,2.555,3.507s1.226-3.225,1.03-4.216a1.827,1.827,0,0,0-3.586.708Z" transform="translate(-842.598 -556.161)" fill="#6c63ff"/>
  <path id="Path_423" data-name="Path 423" d="M1000.228,716.422c.669.756,3.976,1.738,3.976,1.738s-.57-3.4-1.239-4.159a1.827,1.827,0,1,0-2.738,2.421Z" transform="translate(-825.322 -592.425)" fill="#6c63ff"/>
  <path id="Path_424" data-name="Path 424" d="M995.206,757.843c.531.858,3.626,2.385,3.626,2.385s.013-3.45-.518-4.308a1.827,1.827,0,1,0-3.108,1.924Z" transform="translate(-821.364 -626.513)" fill="#6c63ff"/>
  <path id="Path_425" data-name="Path 425" d="M1034.818,693.322c-.933.385-4.336-.188-4.336-.188s2.009-2.806,2.942-3.19a1.827,1.827,0,0,1,1.394,3.379Z" transform="translate(-850.446 -573.136)" fill="#6c63ff"/>
  <path id="Path_426" data-name="Path 426" d="M1028.514,739.781c-1.005.088-4.08-1.477-4.08-1.477s2.756-2.076,3.761-2.164a1.827,1.827,0,0,1,.319,3.641Z" transform="translate(-845.498 -611.035)" fill="#6c63ff"/>
  <path id="Path_427" data-name="Path 427" d="M1014.146,784.753c-.976.257-4.271-.766-4.271-.766s2.366-2.512,3.342-2.769a1.827,1.827,0,1,1,.93,3.535Z" transform="translate(-833.588 -647.867)" fill="#6c63ff"/>
  <path id="Path_428" data-name="Path 428" d="M1047.346,653.486c-.374.937.239,4.333.239,4.333s2.782-2.041,3.156-2.979a1.827,1.827,0,1,0-3.395-1.354Z" transform="translate(-864.143 -542.484)" opacity="0.25"/>
  <path id="Path_429" data-name="Path 429" d="M1020.923,671.236c.2.99,2.555,3.507,2.555,3.507s1.226-3.225,1.03-4.216a1.827,1.827,0,0,0-3.586.708Z" transform="translate(-842.598 -556.161)" opacity="0.25"/>
  <path id="Path_430" data-name="Path 430" d="M1000.228,716.422c.669.756,3.976,1.738,3.976,1.738s-.57-3.4-1.239-4.159a1.827,1.827,0,1,0-2.738,2.421Z" transform="translate(-825.322 -592.425)" opacity="0.25"/>
  <path id="Path_431" data-name="Path 431" d="M995.206,757.843c.531.858,3.626,2.385,3.626,2.385s.013-3.45-.518-4.308a1.827,1.827,0,1,0-3.108,1.924Z" transform="translate(-821.364 -626.513)" opacity="0.25"/>
  <path id="Path_432" data-name="Path 432" d="M1034.818,693.322c-.933.385-4.336-.188-4.336-.188s2.009-2.806,2.942-3.19a1.827,1.827,0,0,1,1.394,3.379Z" transform="translate(-850.446 -573.136)" opacity="0.25"/>
  <path id="Path_433" data-name="Path 433" d="M1028.514,739.781c-1.005.088-4.08-1.477-4.08-1.477s2.756-2.076,3.761-2.164a1.827,1.827,0,0,1,.319,3.641Z" transform="translate(-845.498 -611.035)" opacity="0.25"/>
  <path id="Path_434" data-name="Path 434" d="M1014.146,784.753c-.976.257-4.271-.766-4.271-.766s2.366-2.512,3.342-2.769a1.827,1.827,0,1,1,.93,3.535Z" transform="translate(-833.588 -647.867)" opacity="0.25"/>
  <path id="Path_435" data-name="Path 435" d="M997.733,731.486s7.585-4.021,9.907-10.318a13.007,13.007,0,0,1,5.1-6.456,21.871,21.871,0,0,1,3.547-1.851" transform="translate(-823.656 -591.997)" fill="none" stroke="#535461" stroke-miterlimit="10" stroke-width="2"/>
  <path id="Path_436" data-name="Path 436" d="M1100.967,688.761c-.722.705-1.538,4.058-1.538,4.058s3.37-.739,4.092-1.444a1.827,1.827,0,0,0-2.555-2.614Z" transform="translate(-906.848 -571.856)" fill="#6c63ff"/>
  <path id="Path_437" data-name="Path 437" d="M1074.17,694.3c-.223.984.915,4.242.915,4.242s2.428-2.452,2.65-3.436a1.827,1.827,0,1,0-3.565-.806Z" transform="translate(-886.162 -575.645)" fill="#6c63ff"/>
  <path id="Path_438" data-name="Path 438" d="M1036.874,727.221c.3.962,2.931,3.2,2.931,3.2s.858-3.342.553-4.3a1.827,1.827,0,0,0-3.484,1.1Z" transform="translate(-855.605 -601.798)" fill="#6c63ff"/>
  <path id="Path_439" data-name="Path 439" d="M1015.492,763.054c.138,1,2.348,3.649,2.348,3.649s1.41-3.149,1.272-4.149a1.827,1.827,0,1,0-3.621.5Z" transform="translate(-838.169 -631.358)" fill="#6c63ff"/>
  <path id="Path_440" data-name="Path 440" d="M1075.823,723.424c-1.009-.026-3.887-1.929-3.887-1.929s2.973-1.751,3.982-1.725a1.827,1.827,0,1,1-.095,3.654Z" transform="translate(-884.357 -597.649)" fill="#6c63ff"/>
  <path id="Path_441" data-name="Path 441" d="M1053.348,763.939c-.955-.327-3.132-3-3.132-3s3.361-.781,4.316-.454a1.827,1.827,0,0,1-1.184,3.458Z" transform="translate(-866.59 -630.887)" fill="#6c63ff"/>
  <path id="Path_442" data-name="Path 442" d="M1020.779,798.982c-1-.161-3.595-2.431-3.595-2.431s3.181-1.338,4.177-1.177a1.827,1.827,0,1,1-.582,3.608Z" transform="translate(-839.568 -659.486)" fill="#6c63ff"/>
  <path id="Path_443" data-name="Path 443" d="M268.614,65.89c-10.05-.349-19.623-3.594-28.763-7.143s-18.194-7.483-28-9.364c-6.309-1.21-13.525-1.381-18.609,2-4.892,3.255-6.473,8.875-7.323,14.089-.639,3.923-1.015,8.051.737,11.724,1.216,2.55,3.376,4.693,4.87,7.135,5.2,8.5,1.524,18.977-4.108,27.274-2.642,3.892-5.706,7.605-7.745,11.748s-2.982,8.891-1.2,13.117c1.768,4.189,5.981,7.336,10.544,9.549,9.269,4.495,20.191,5.782,30.842,6.51,23.577,1.613,47.28.915,70.919.215,8.748-.259,17.535-.521,26.142-1.874,4.779-.751,9.713-1.944,13.183-4.822a11.041,11.041,0,0,0,2.545-14.423c-4.951-7.685-18.639-9.594-22.1-17.842-1.9-4.54.051-9.6,2.819-13.807,5.938-9.032,15.891-16.956,16.415-27.281.36-7.091-4.424-14.192-11.822-17.547-7.754-3.517-18.507-3.074-24.228,2.747C287.84,63.891,277.488,66.2,268.614,65.89Z" transform="translate(-152.687 -48.59)" fill="#cb7caf" opacity="0.1"/>
  <ellipse id="Ellipse_127" data-name="Ellipse 127" cx="6.833" cy="7.253" rx="6.833" ry="7.253" transform="translate(91.886 113.658)" fill="#fbd56f"/>
  <ellipse id="Ellipse_128" data-name="Ellipse 128" cx="6.833" cy="7.253" rx="6.833" ry="7.253" transform="translate(91.886 113.658)" opacity="0.1"/>
  <ellipse id="Ellipse_129" data-name="Ellipse 129" cx="6.833" cy="7.092" rx="6.833" ry="7.092" transform="translate(93.065 113.981)" fill="#fbd56f"/>
  <path id="Path_444" data-name="Path 444" d="M600.957,746.826l-.711-.4a8.61,8.61,0,0,0-.224,2.376.492.492,0,0,0,.37.425c1.635.406,9.429,2.136,14.788-.3a.492.492,0,0,0,.285-.4,7.361,7.361,0,0,0-.26-2.106C615.005,745.9,600.957,746.826,600.957,746.826Z" transform="translate(-498.291 -619.326)" fill="#fbd56f"/>
  <path id="Path_445" data-name="Path 445" d="M600.957,746.826l-.711-.4a8.61,8.61,0,0,0-.224,2.376.492.492,0,0,0,.37.425c1.635.406,9.429,2.136,14.788-.3a.492.492,0,0,0,.285-.4,7.361,7.361,0,0,0-.26-2.106C615.005,745.9,600.957,746.826,600.957,746.826Z" transform="translate(-498.291 -619.326)" opacity="0.1"/>
  <ellipse id="Ellipse_130" data-name="Ellipse 130" cx="7.48" cy="1.686" rx="7.48" ry="1.686" transform="translate(101.955 125.418)" fill="#fbd56f"/>
  <path id="Path_446" data-name="Path 446" d="M616.662,733.154l-.711-.4a8.61,8.61,0,0,0-.224,2.376.493.493,0,0,0,.37.425c1.635.406,9.429,2.136,14.788-.3a.492.492,0,0,0,.285-.4,7.367,7.367,0,0,0-.26-2.106C630.711,732.233,616.662,733.154,616.662,733.154Z" transform="translate(-511.138 -608.142)" fill="#fbd56f"/>
  <path id="Path_447" data-name="Path 447" d="M616.662,733.154l-.711-.4a8.61,8.61,0,0,0-.224,2.376.493.493,0,0,0,.37.425c1.635.406,9.429,2.136,14.788-.3a.492.492,0,0,0,.285-.4,7.367,7.367,0,0,0-.26-2.106C630.711,732.233,616.662,733.154,616.662,733.154Z" transform="translate(-511.138 -608.142)" opacity="0.1"/>
  <ellipse id="Ellipse_131" data-name="Ellipse 131" cx="7.48" cy="1.686" rx="7.48" ry="1.686" transform="translate(104.813 122.931)" fill="#fbd56f"/>
  <path id="Path_448" data-name="Path 448" d="M630.547,715.186l-.711-.4a8.61,8.61,0,0,0-.224,2.376.492.492,0,0,0,.37.425c1.635.406,9.429,2.136,14.788-.3a.492.492,0,0,0,.285-.4,7.364,7.364,0,0,0-.26-2.106C644.6,714.264,630.547,715.186,630.547,715.186Z" transform="translate(-522.497 -593.443)" fill="#fbd56f"/>
  <path id="Path_449" data-name="Path 449" d="M630.547,715.186l-.711-.4a8.61,8.61,0,0,0-.224,2.376.492.492,0,0,0,.37.425c1.635.406,9.429,2.136,14.788-.3a.492.492,0,0,0,.285-.4,7.364,7.364,0,0,0-.26-2.106C644.6,714.264,630.547,715.186,630.547,715.186Z" transform="translate(-522.497 -593.443)" opacity="0.1"/>
  <ellipse id="Ellipse_132" data-name="Ellipse 132" cx="7.48" cy="1.686" rx="7.48" ry="1.686" transform="translate(107.339 119.661)" fill="#fbd56f"/>
  <path id="Path_450" data-name="Path 450" d="M615.171,696.48l-.711-.4a8.611,8.611,0,0,0-.224,2.376.493.493,0,0,0,.37.425c1.635.406,9.429,2.136,14.788-.3a.492.492,0,0,0,.285-.4,7.364,7.364,0,0,0-.26-2.106C629.219,695.558,615.171,696.48,615.171,696.48Z" transform="translate(-509.918 -578.14)" fill="#fbd56f"/>
  <path id="Path_451" data-name="Path 451" d="M615.171,696.48l-.711-.4a8.611,8.611,0,0,0-.224,2.376.493.493,0,0,0,.37.425c1.635.406,9.429,2.136,14.788-.3a.492.492,0,0,0,.285-.4,7.364,7.364,0,0,0-.26-2.106C629.219,695.558,615.171,696.48,615.171,696.48Z" transform="translate(-509.918 -578.14)" opacity="0.1"/>
  <ellipse id="Ellipse_133" data-name="Ellipse 133" cx="7.48" cy="1.686" rx="7.48" ry="1.686" transform="translate(104.542 116.258)" fill="#fbd56f"/>
  <path id="Path_452" data-name="Path 452" d="M649.762,681.469l-.711-.4a8.61,8.61,0,0,0-.224,2.376.492.492,0,0,0,.37.425c1.635.406,9.429,2.136,14.788-.3a.492.492,0,0,0,.285-.4,7.359,7.359,0,0,0-.26-2.106C663.81,680.547,649.762,681.469,649.762,681.469Z" transform="translate(-538.215 -565.86)" fill="#fbd56f"/>
  <path id="Path_453" data-name="Path 453" d="M649.762,681.469l-.711-.4a8.61,8.61,0,0,0-.224,2.376.492.492,0,0,0,.37.425c1.635.406,9.429,2.136,14.788-.3a.492.492,0,0,0,.285-.4,7.359,7.359,0,0,0-.26-2.106C663.81,680.547,649.762,681.469,649.762,681.469Z" transform="translate(-538.215 -565.86)" opacity="0.1"/>
  <ellipse id="Ellipse_134" data-name="Ellipse 134" cx="7.48" cy="1.686" rx="7.48" ry="1.686" transform="translate(110.835 113.527)" fill="#fbd56f"/>
  <path id="Path_454" data-name="Path 454" d="M626.39,671.379l-.711-.4a8.612,8.612,0,0,0-.224,2.376.493.493,0,0,0,.37.425c1.635.406,9.429,2.136,14.788-.3a.492.492,0,0,0,.285-.4,7.364,7.364,0,0,0-.26-2.106C640.438,670.458,626.39,671.379,626.39,671.379Z" transform="translate(-519.096 -557.607)" fill="#fbd56f"/>
  <path id="Path_455" data-name="Path 455" d="M626.39,671.379l-.711-.4a8.612,8.612,0,0,0-.224,2.376.493.493,0,0,0,.37.425c1.635.406,9.429,2.136,14.788-.3a.492.492,0,0,0,.285-.4,7.364,7.364,0,0,0-.26-2.106C640.438,670.458,626.39,671.379,626.39,671.379Z" transform="translate(-519.096 -557.607)" opacity="0.1"/>
  <ellipse id="Ellipse_135" data-name="Ellipse 135" cx="7.48" cy="1.686" rx="7.48" ry="1.686" transform="translate(106.583 111.691)" fill="#fbd56f"/>
  <path id="Path_456" data-name="Path 456" d="M641.994,651.9l-.711-.4a8.612,8.612,0,0,0-.224,2.376.492.492,0,0,0,.37.425c1.635.406,9.429,2.136,14.788-.3a.492.492,0,0,0,.285-.4,7.362,7.362,0,0,0-.26-2.106C656.042,650.98,641.994,651.9,641.994,651.9Z" transform="translate(-531.861 -541.672)" fill="#fbd56f"/>
  <path id="Path_457" data-name="Path 457" d="M641.994,651.9l-.711-.4a8.612,8.612,0,0,0-.224,2.376.492.492,0,0,0,.37.425c1.635.406,9.429,2.136,14.788-.3a.492.492,0,0,0,.285-.4,7.362,7.362,0,0,0-.26-2.106C656.042,650.98,641.994,651.9,641.994,651.9Z" transform="translate(-531.861 -541.672)" opacity="0.1"/>
  <ellipse id="Ellipse_136" data-name="Ellipse 136" cx="7.48" cy="1.686" rx="7.48" ry="1.686" transform="translate(109.422 108.147)" fill="#fbd56f"/>
  <path id="Path_458" data-name="Path 458" d="M649.691,628.781l-.711-.4a8.611,8.611,0,0,0-.224,2.376.493.493,0,0,0,.37.426c1.635.406,9.429,2.136,14.788-.3a.492.492,0,0,0,.285-.4,7.36,7.36,0,0,0-.26-2.106C663.739,627.86,649.691,628.781,649.691,628.781Z" transform="translate(-538.157 -522.759)" fill="#fbd56f"/>
  <path id="Path_459" data-name="Path 459" d="M649.691,628.781l-.711-.4a8.611,8.611,0,0,0-.224,2.376.493.493,0,0,0,.37.426c1.635.406,9.429,2.136,14.788-.3a.492.492,0,0,0,.285-.4,7.36,7.36,0,0,0-.26-2.106C663.739,627.86,649.691,628.781,649.691,628.781Z" transform="translate(-538.157 -522.759)" opacity="0.1"/>
  <ellipse id="Ellipse_137" data-name="Ellipse 137" cx="7.48" cy="1.686" rx="7.48" ry="1.686" transform="translate(110.823 103.94)" fill="#fbd56f"/>
  <path id="Path_460" data-name="Path 460" d="M719.086,752.188l-.711-.4a8.61,8.61,0,0,0-.224,2.376.492.492,0,0,0,.37.425c1.635.406,9.429,2.136,14.788-.3a.492.492,0,0,0,.285-.4,7.359,7.359,0,0,0-.26-2.106C733.134,751.266,719.086,752.188,719.086,752.188Z" transform="translate(-594.926 -623.712)" fill="#fbd56f"/>
  <path id="Path_461" data-name="Path 461" d="M719.086,752.188l-.711-.4a8.61,8.61,0,0,0-.224,2.376.492.492,0,0,0,.37.425c1.635.406,9.429,2.136,14.788-.3a.492.492,0,0,0,.285-.4,7.359,7.359,0,0,0-.26-2.106C733.134,751.266,719.086,752.188,719.086,752.188Z" transform="translate(-594.926 -623.712)" opacity="0.1"/>
  <ellipse id="Ellipse_138" data-name="Ellipse 138" cx="7.48" cy="1.686" rx="7.48" ry="1.686" transform="translate(123.449 126.394)" fill="#fbd56f"/>
  <path id="Path_462" data-name="Path 462" d="M732.97,734.219l-.711-.4a8.607,8.607,0,0,0-.224,2.376.492.492,0,0,0,.37.426c1.635.406,9.429,2.136,14.788-.3a.492.492,0,0,0,.285-.4,7.362,7.362,0,0,0-.26-2.106C747.019,733.3,732.97,734.219,732.97,734.219Z" transform="translate(-606.284 -609.013)" fill="#fbd56f"/>
  <path id="Path_463" data-name="Path 463" d="M732.97,734.219l-.711-.4a8.607,8.607,0,0,0-.224,2.376.492.492,0,0,0,.37.426c1.635.406,9.429,2.136,14.788-.3a.492.492,0,0,0,.285-.4,7.362,7.362,0,0,0-.26-2.106C747.019,733.3,732.97,734.219,732.97,734.219Z" transform="translate(-606.284 -609.013)" opacity="0.1"/>
  <ellipse id="Ellipse_139" data-name="Ellipse 139" cx="7.48" cy="1.686" rx="7.48" ry="1.686" transform="translate(125.975 123.125)" fill="#fbd56f"/>
  <path id="Path_464" data-name="Path 464" d="M717.594,715.514l-.711-.4a8.611,8.611,0,0,0-.224,2.376.493.493,0,0,0,.37.426c1.635.406,9.429,2.136,14.788-.3a.492.492,0,0,0,.285-.4,7.362,7.362,0,0,0-.26-2.106C731.642,714.592,717.594,715.514,717.594,715.514Z" transform="translate(-593.705 -593.711)" fill="#fbd56f"/>
  <path id="Path_465" data-name="Path 465" d="M717.594,715.514l-.711-.4a8.611,8.611,0,0,0-.224,2.376.493.493,0,0,0,.37.426c1.635.406,9.429,2.136,14.788-.3a.492.492,0,0,0,.285-.4,7.362,7.362,0,0,0-.26-2.106C731.642,714.592,717.594,715.514,717.594,715.514Z" transform="translate(-593.705 -593.711)" opacity="0.1"/>
  <ellipse id="Ellipse_140" data-name="Ellipse 140" cx="7.48" cy="1.686" rx="7.48" ry="1.686" transform="translate(123.178 119.721)" fill="#fbd56f"/>
  <path id="Path_466" data-name="Path 466" d="M752.185,700.5l-.711-.4a8.611,8.611,0,0,0-.224,2.376.493.493,0,0,0,.37.426c1.635.406,9.429,2.136,14.788-.3a.492.492,0,0,0,.285-.4,7.362,7.362,0,0,0-.26-2.106C766.233,699.581,752.185,700.5,752.185,700.5Z" transform="translate(-622.003 -581.431)" fill="#fbd56f"/>
  <path id="Path_467" data-name="Path 467" d="M752.185,700.5l-.711-.4a8.611,8.611,0,0,0-.224,2.376.493.493,0,0,0,.37.426c1.635.406,9.429,2.136,14.788-.3a.492.492,0,0,0,.285-.4,7.362,7.362,0,0,0-.26-2.106C766.233,699.581,752.185,700.5,752.185,700.5Z" transform="translate(-622.003 -581.431)" opacity="0.1"/>
  <ellipse id="Ellipse_141" data-name="Ellipse 141" cx="7.48" cy="1.686" rx="7.48" ry="1.686" transform="translate(129.471 116.99)" fill="#fbd56f"/>
  <path id="Path_468" data-name="Path 468" d="M728.814,690.413l-.711-.4a8.612,8.612,0,0,0-.224,2.376.492.492,0,0,0,.37.425c1.635.406,9.429,2.136,14.788-.3a.492.492,0,0,0,.285-.4,7.36,7.36,0,0,0-.26-2.106C742.862,689.492,728.814,690.413,728.814,690.413Z" transform="translate(-602.884 -573.177)" fill="#fbd56f"/>
  <path id="Path_469" data-name="Path 469" d="M728.814,690.413l-.711-.4a8.612,8.612,0,0,0-.224,2.376.492.492,0,0,0,.37.425c1.635.406,9.429,2.136,14.788-.3a.492.492,0,0,0,.285-.4,7.36,7.36,0,0,0-.26-2.106C742.862,689.492,728.814,690.413,728.814,690.413Z" transform="translate(-602.884 -573.177)" opacity="0.1"/>
  <ellipse id="Ellipse_142" data-name="Ellipse 142" cx="7.48" cy="1.686" rx="7.48" ry="1.686" transform="translate(125.219 115.154)" fill="#fbd56f"/>
  <path id="Path_470" data-name="Path 470" d="M744.417,670.935l-.711-.4a8.613,8.613,0,0,0-.224,2.376.493.493,0,0,0,.37.426c1.635.406,9.429,2.136,14.788-.3a.492.492,0,0,0,.285-.4,7.364,7.364,0,0,0-.26-2.106C758.465,670.013,744.417,670.935,744.417,670.935Z" transform="translate(-615.648 -557.243)" fill="#fbd56f"/>
  <path id="Path_471" data-name="Path 471" d="M744.417,670.935l-.711-.4a8.613,8.613,0,0,0-.224,2.376.493.493,0,0,0,.37.426c1.635.406,9.429,2.136,14.788-.3a.492.492,0,0,0,.285-.4,7.364,7.364,0,0,0-.26-2.106C758.465,670.013,744.417,670.935,744.417,670.935Z" transform="translate(-615.648 -557.243)" opacity="0.1"/>
  <ellipse id="Ellipse_143" data-name="Ellipse 143" cx="7.48" cy="1.686" rx="7.48" ry="1.686" transform="translate(128.058 111.61)" fill="#fbd56f"/>
  <path id="Path_472" data-name="Path 472" d="M752.114,647.815l-.711-.4a8.612,8.612,0,0,0-.224,2.376.493.493,0,0,0,.37.425c1.635.406,9.429,2.136,14.788-.3a.492.492,0,0,0,.285-.4,7.364,7.364,0,0,0-.26-2.106C766.162,646.893,752.114,647.815,752.114,647.815Z" transform="translate(-621.945 -538.33)" fill="#fbd56f"/>
  <path id="Path_473" data-name="Path 473" d="M752.114,647.815l-.711-.4a8.612,8.612,0,0,0-.224,2.376.493.493,0,0,0,.37.425c1.635.406,9.429,2.136,14.788-.3a.492.492,0,0,0,.285-.4,7.364,7.364,0,0,0-.26-2.106C766.162,646.893,752.114,647.815,752.114,647.815Z" transform="translate(-621.945 -538.33)" opacity="0.1"/>
  <ellipse id="Ellipse_144" data-name="Ellipse 144" cx="7.48" cy="1.686" rx="7.48" ry="1.686" transform="translate(129.459 107.403)" fill="#fbd56f"/>
  <path id="Path_474" data-name="Path 474" d="M787.879,414.412c-1.041-.037-1.078-.44-2.417-1.137a13.869,13.869,0,0,1-2.758-2.455l-.2-.216.354-.007a14.2,14.2,0,0,1-.037-3.633c.3-.7.074-4.843.074-4.843a16.2,16.2,0,0,0-.149-3.889c-.335-.734.112-5.43.112-5.43s.3-2.789.372-8.476-3.272-5.871-3.272-5.871-.446-.034-1.124-.1l-.2-.02c.439-.918.695-1.606.695-1.606s-.558-5.32-.707-6.238-1.041-4.7-1.041-4.7-.632-1.614-1-2.752a9.287,9.287,0,0,0-1.487-2.458,45.513,45.513,0,0,0-2.566-4.55c-.259-.272-.622-.616-.936-.906l-.164-.15a6.644,6.644,0,0,0,.133-1.256,17.021,17.021,0,0,1-2.231-2.568,15.1,15.1,0,0,0-2.119-2.422s-1.115-2.055-2.38-2.091a10.31,10.31,0,0,0-1.791.054c.26-.961.567-1.968.842-2.832l.091-.283a6.368,6.368,0,0,0,2.284-2.763c.026-.06.05-.12.074-.18l.04,0a1,1,0,0,0,.156-.014c.416-.071.768-.542.577-.912a.136.136,0,0,0,.121.067c.139,0,.308-.205.34-.382.006-.031.009-.062.013-.092s.012-.077.017-.115.007-.072.01-.109.006-.075.008-.112,0-.07,0-.105,0-.081,0-.121,0-.065,0-.1c0-.049-.006-.1-.011-.147,0-.02,0-.04,0-.06v0a3.3,3.3,0,0,0-.12-.592c-.206-.682-.637-1.358-.47-2.051,0-.007.005-.014.007-.022h0a6.022,6.022,0,0,1,.888-1.408c.027-.046.051-.093.074-.14l.014-.026c.017-.036.032-.072.047-.109s.02-.047.029-.07.022-.065.032-.1.02-.059.028-.089.014-.058.021-.087.017-.07.023-.105.009-.051.013-.076.012-.08.016-.121c0-.022,0-.044.006-.066,0-.045.006-.09.007-.135,0-.018,0-.036,0-.054q0-.074,0-.148c0-.015,0-.03,0-.044,0-.053-.009-.105-.016-.158,0-.008,0-.015,0-.023v0a2.643,2.643,0,0,0-.533-1.265,3.259,3.259,0,0,0-2.676-1.158,4.483,4.483,0,0,1-.842.016,2.78,2.78,0,0,1-1.234-.651l-3.115-2.4a3.843,3.843,0,0,0-1.177-.7,1.315,1.315,0,0,0-1.294.233c-.583.576-.213,1.566-.447,2.346a2.279,2.279,0,0,1-1.531,1.362c-.676.228-1.4.278-2.093.444a1.155,1.155,0,0,0-.56.257,1.083,1.083,0,0,0-.243.78,4.206,4.206,0,0,0,.483,1.984c.131.249.29.5.43.756l.034.063c.016.029.031.059.046.088q.036.072.069.143c.009.021.018.042.027.062s.029.068.042.1.016.043.024.065c.014.04.027.08.038.121a1.342,1.342,0,0,1,.02.732,2.717,2.717,0,0,1-.687,1.006,1.957,1.957,0,0,0-.459.851v.007a.684.684,0,0,0-.008.224c0,.009,0,.019,0,.028a.4.4,0,0,0,.014.049.344.344,0,0,0,.015.034.307.307,0,0,0,.019.038.294.294,0,0,0,.047.056l.026.019a.317.317,0,0,0,.048.029l.032.014a.438.438,0,0,0,.076.021l.021,0a.7.7,0,0,0,.12.005l.036,0a1.142,1.142,0,0,0,.114-.014l.042-.008a1.808,1.808,0,0,0,.175-.045,3.936,3.936,0,0,0,.607-.24c0,.022,0,.044,0,.067,0,.039,0,.079,0,.117a6.185,6.185,0,0,0,.4,2.1,6.357,6.357,0,0,0,1.939,2.679q-.016.1-.035.191c-.179.88-.554,1.763-.785,1.694a3.152,3.152,0,0,0-.689-.076l-.2,0h0a2.75,2.75,0,0,0-.632,0,.686.686,0,0,1-.277-.038,3.772,3.772,0,0,0-1.858-.1c-1.286.263-3.242.746-3.778,1.322a12.026,12.026,0,0,0-3.346,5.394s-.669,2.238-1.19,2.532A3.469,3.469,0,0,1,743.8,354a.942.942,0,0,1-.279.306,4.108,4.108,0,0,1,.586-.244c-.406,2.391.2,9.229.2,9.229s-.483,1.179.149,1.876a3.534,3.534,0,0,1,.684,1.518l-.092.142h0c-.335.519-.782,1.2-1.076,1.568-.521.66-.372,2.752-.372,2.752a2.912,2.912,0,0,1-.483,1.358c-.372.367-.3,1.725-.3,1.725l-.967,3.559s-.892.807-.892,1.174a4.823,4.823,0,0,1-.706,1.394s-1.078,1.761,0,1.5a3.384,3.384,0,0,0,1.089-.547v.026q0,.1,0,.2c-.031,1.918.178,4.617,1.593,4.617,2.194,0,7.846,2.605,7.846,2.605a3.791,3.791,0,0,0,2.714.587s-2.752,2.752-2.677,3.889-1.562,3.009-1.562,3.009l-5.057,9.87a7.569,7.569,0,0,0,.363,2.023c-.024.021-.049.041-.073.063-1.943,1.775-2.112,5.29-2.112,5.29l-.446,1.8,6.767,2.972s8.775.183,10.3-.22,1.19-2.091-.818-2.422a6,6,0,0,1-3.161-1.614,31.717,31.717,0,0,1-3.05-3.147l-.044-.049.231-1.28c.446-.22,1.115-2.422,1.115-2.422s0-.881.446-1.137,1.376-2.9,1.376-2.9,2.008-3.339,1.9-3.779,1.45-2.679,1.45-2.679,2.64-2.568,2.529-3.027,2.119-2.807,2.119-2.807a7.445,7.445,0,0,0,1.974-2.273c.2-.032.417-.067.644-.1,2.92-.478,7.771-1.344,8.314-1.584.744-.33.595,1.137.3,2.385s-.521,7.228-.186,8a4.819,4.819,0,0,1,.186,2.018l-.446,6.715.3,1.431s-1,.807-.595,1.284.037,2.532.037,2.532c.035-.013.077-.026.124-.038-.036.081-.07.163-.1.25a12.065,12.065,0,0,0-.246,4.338v2.128s10.3.183,12.568.183,5.392-1.1,5.578-1.981S788.92,414.449,787.879,414.412Zm-29.295-38.2-.675.057A5.6,5.6,0,0,1,758.584,376.214ZM762.7,348.05c.094-.424.209-.881.336-1.349Zm1.272,29.193a2.73,2.73,0,0,1-2,0l0,0a21.261,21.261,0,0,1,.335-3.633c.3-1.064.707-3.009.707-3.009a39.394,39.394,0,0,1,.669-3.889c.335-1.211,1.636-7.962,2.305-8.4a.7.7,0,0,1,1.041.33s.1,0,.268-.021q.047.106.107.225a55.254,55.254,0,0,0,3.121,4.9,5.361,5.361,0,0,1,1.71,1.688,11.16,11.16,0,0,1,.818,3.559s1.413,5.54,2.082,6.311c.335.385.186.615-.046.748a3.294,3.294,0,0,0-1.174,1.084c-.1.151-.2.317-.3.494-.256-.059-.485-.121-.676-.185-1.822-.612-7.957-.636-8.961-.2Z" transform="translate(-612.627 -276.013)" fill="url(#linear-gradient)"/>
  <path id="Path_475" data-name="Path 475" d="M922.734,788.946v2.11s10.079.182,12.3.182,5.276-1.092,5.458-1.965-2.547-1.6-3.566-1.637-1.055-.437-2.365-1.128a13.634,13.634,0,0,1-2.7-2.435c-.645-.7-1.121-1.276-1.121-1.276s-5.421-.109-6.986.764a1.893,1.893,0,0,0-.778,1.084A12.124,12.124,0,0,0,922.734,788.946Z" transform="translate(-762.227 -649.205)" fill="#434175"/>
  <path id="Path_476" data-name="Path 476" d="M924.472,784.644c1.137-.4,7.792-.549,8.885-.571-.646-.7-1.121-1.276-1.121-1.276s-5.421-.109-6.986.764A1.893,1.893,0,0,0,924.472,784.644Z" transform="translate(-763.725 -649.205)" opacity="0.1"/>
  <path id="Path_477" data-name="Path 477" d="M763.77,601.5l.588.355.221.133.855.515c4.573,2.756,17.047,10.226,17.73,10.167.179-.015.717-.1,1.459-.217.2-.032.408-.066.63-.1,2.857-.474,7.6-1.332,8.135-1.571.728-.327.582,1.128.291,2.365s-.509,7.168-.182,7.932a4.84,4.84,0,0,1,.182,2l-.437,6.659.291,1.419s-.982.8-.582,1.273.036,2.511.036,2.511c1.164-.437,9.06-.582,9.06-.582a14.276,14.276,0,0,1-.036-3.6c.291-.691.073-4.8.073-4.8a16.276,16.276,0,0,0-.146-3.857c-.327-.728.109-5.385.109-5.385s.291-2.765.364-8.4-3.2-5.822-3.2-5.822-.437-.034-1.1-.1a48.769,48.769,0,0,1-4.9-.676,8.16,8.16,0,0,1-.875-.232c-1.783-.607-7.786-.631-8.769-.194a2.638,2.638,0,0,1-1.96,0l0,0-.764-1.237-7.3.622-.774.066-7.185.613-.494.042Z" transform="translate(-632.262 -499.705)" fill="#565387"/>
  <path id="Path_478" data-name="Path 478" d="M919.661,614.557c2.12,1.033,4.143-2.63,5.086-4.7a48.786,48.786,0,0,1-4.9-.676C918.9,610.778,917.629,613.567,919.661,614.557Z" transform="translate(-758.9 -507.184)" opacity="0.1"/>
  <path id="Path_479" data-name="Path 479" d="M889.552,486.623a2.223,2.223,0,0,0,.257.712,54.871,54.871,0,0,0,3.054,4.855,5.274,5.274,0,0,1,1.674,1.674,11.194,11.194,0,0,1,.8,3.529s1.383,5.494,2.038,6.258c.328.382.182.61-.045.742a3.241,3.241,0,0,0-1.148,1.075c-.954,1.534-2.477,4.576-.335,5.621,2.911,1.419,5.64-6.018,5.64-6.018s-.546-5.276-.691-6.185-1.019-4.657-1.019-4.657-.619-1.6-.982-2.729a9.23,9.23,0,0,0-1.455-2.438,45.313,45.313,0,0,0-2.511-4.512c-.253-.27-.608-.611-.916-.9-.356-.333-.648-.594-.648-.594S889.515,485.75,889.552,486.623Z" transform="translate(-735.158 -404.006)" fill="#ee8e9e"/>
  <path id="Path_480" data-name="Path 480" d="M753.971,778.045l6.622,2.947s8.587.182,10.079-.218,1.164-2.074-.8-2.4a5.845,5.845,0,0,1-3.093-1.6,31.272,31.272,0,0,1-2.984-3.121c-.469-.533-.8-.918-.8-.918a4.2,4.2,0,0,0-4.8-2.62,3.617,3.617,0,0,0-1.717.9c-1.9,1.76-2.067,5.245-2.067,5.245Z" transform="translate(-624.246 -638.74)" fill="#434175"/>
  <path id="Path_481" data-name="Path 481" d="M768.213,601.331l.855.515c4.573,2.756,17.047,10.226,17.73,10.167.179-.015.717-.1,1.459-.217.2-.032.408-.066.63-.1l.025-.041a8.363,8.363,0,0,0,.833-2.039c.764-2.911-3.02-5.13-3.02-5.13l-.8-.622c-.91-1.532-7.459-2.98-7.459-2.98l-.844-.567-.45-.3-.119-.079-1.025-.688-5.13.364-1.524.979-.161.1-.565.364Z" transform="translate(-635.897 -499.051)" opacity="0.1"/>
  <path id="Path_482" data-name="Path 482" d="M767.729,771.017c1.393,4.817,7.211,3.244,7.211,3.244l.108-.611c-.469-.533-.8-.918-.8-.918a4.2,4.2,0,0,0-4.8-2.62,3.617,3.617,0,0,0-1.717.9Z" transform="translate(-635.501 -638.741)" opacity="0.1"/>
  <path id="Path_483" data-name="Path 483" d="M752.351,610.12c2.147,0,7.677,2.583,7.677,2.583a3.667,3.667,0,0,0,2.656.582s-2.692,2.729-2.62,3.857-1.528,2.984-1.528,2.984l-4.948,9.788c.364,6.95,7.5,5.021,7.5,5.021l.291-1.637c.437-.218,1.092-2.4,1.092-2.4s0-.873.437-1.128,1.346-2.874,1.346-2.874,1.965-3.311,1.856-3.748,1.419-2.656,1.419-2.656,2.583-2.547,2.474-3,2.074-2.784,2.074-2.784A7.347,7.347,0,0,0,774,612.45a8.366,8.366,0,0,0,.833-2.039c.616-2.344-1.719-4.24-2.651-4.889-.226-.157-.369-.242-.369-.242l-.8-.622c-.413-.7-1.994-1.376-3.594-1.909-1.154-.385-2.319-.694-3.064-.88-.493-.122-.8-.191-.8-.191l-.844-.567-.3-.2-.272-.183-1.025-.688-2.283.162-2.847.2-1.524.979-.726.467-2.844,1.828s-.075.7-.1,1.639c0,.073,0,.146,0,.222C750.762,607.443,750.967,610.12,752.351,610.12Z" transform="translate(-621.644 -499.705)" fill="#565387"/>
  <path id="Path_484" data-name="Path 484" d="M819.562,415.569l.764,2.729s1.346,4.694,1.492,5.021a51.763,51.763,0,0,0,3.82,3.711c.146.073,2.067,1.164,2.067,1.164s.152-6,.007-7.75a4.989,4.989,0,0,1,.095-1.144,43.046,43.046,0,0,1,1.306-4.921c.408-1.3.746-2.267.746-2.267s-8.514-.364-8.223.473a2.99,2.99,0,0,1-.032,1.376c-.175.873-.542,1.748-.768,1.68a3.044,3.044,0,0,0-.675-.075C819.847,415.557,819.562,415.569,819.562,415.569Z" transform="translate(-677.903 -345.905)" fill="#ee8e9e"/>
  <path id="Path_485" data-name="Path 485" d="M830.785,413.962a6.3,6.3,0,0,0,7.509.418c.407-1.3.746-2.267.746-2.267s-8.514-.364-8.223.473A2.988,2.988,0,0,1,830.785,413.962Z" transform="translate(-687.084 -345.905)" opacity="0.1"/>
  <path id="Path_486" data-name="Path 486" d="M830.956,366.576a6.272,6.272,0,0,1-.315,1.965,5.144,5.144,0,0,1-.182.482,6.3,6.3,0,0,1-11.7-.244,6.206,6.206,0,0,1-.393-2.087c0-.038,0-.078,0-.116a6.295,6.295,0,0,1,12.589,0Z" transform="translate(-676.925 -303.57)" fill="#ee8e9e"/>
  <path id="Path_487" data-name="Path 487" d="M819.562,431.437l.764,2.729s1.346,4.694,1.492,5.021a51.751,51.751,0,0,0,3.82,3.711c.146.073,2.067,1.164,2.067,1.164s.152-6,.007-7.75a4.989,4.989,0,0,1,.095-1.144l-.495,2.017.036,4.039.291.218-.655.982V441.7a17.2,17.2,0,0,1-2.693-3.2,15.881,15.881,0,0,0-1.674-2.659,21.583,21.583,0,0,1-1.528-2.944,4.7,4.7,0,0,0-.929-1.458C819.847,431.426,819.562,431.437,819.562,431.437Z" transform="translate(-677.903 -361.774)" opacity="0.1"/>
  <path id="Path_488" data-name="Path 488" d="M889.552,486.622a2.223,2.223,0,0,0,.257.712,4.49,4.49,0,0,0,4.1-3.684c-.356-.333-.648-.594-.648-.594S889.515,485.749,889.552,486.622Z" transform="translate(-735.158 -404.006)" opacity="0.1"/>
  <path id="Path_489" data-name="Path 489" d="M750.8,605.541c.734-.52,1.433-1.228,1.85-1.425a8.036,8.036,0,0,0,1.565-1.237s.24-.163.608-.379a7.353,7.353,0,0,1,2.63-1.04c.76-.063,3.283-.225,5.269-.349,1.436-.09,2.591-.161,2.591-.161s2.365-.837,3.384-.291a10.691,10.691,0,0,0,2.292.837s0-.079,0-.216l0,0-.764-1.237-8.072.688-1.025-.688L756,600.4l-1.524.979-1.314.112.588.355-2.844,1.828S750.82,604.492,750.8,605.541Z" transform="translate(-621.655 -499.705)" opacity="0.1"/>
  <path id="Path_490" data-name="Path 490" d="M742.864,466.984a3.294,3.294,0,0,0,1.065-.543h0c.733-.519,1.429-1.225,1.845-1.421a8.036,8.036,0,0,0,1.565-1.237,9.2,9.2,0,0,1,3.238-1.419c.357-.03,1.1-.081,2-.14.918-.061,1.993-.13,2.97-.19l1.542-.1,1.346-.083s2.365-.837,3.384-.291a10.693,10.693,0,0,0,2.292.837,21.361,21.361,0,0,1,.328-3.6c.291-1.055.691-2.984.691-2.984s.327-2.656.655-3.857,1.6-7.9,2.256-8.332,1.019.327,1.019.327a4.593,4.593,0,0,0,4.439-4.876,16.819,16.819,0,0,1-2.183-2.547,14.914,14.914,0,0,0-2.074-2.4s-1.092-2.038-2.329-2.074a9.956,9.956,0,0,0-1.752.054l-1.049,4.276.036,4.039.291.218-.655.982V440.9a17.2,17.2,0,0,1-2.693-3.2,15.878,15.878,0,0,0-1.674-2.659,21.568,21.568,0,0,1-1.528-2.944c-.036-.437-1.055-1.607-1.055-1.607a2.654,2.654,0,0,0-.619,0,.661.661,0,0,1-.271-.038,3.645,3.645,0,0,0-1.818-.1c-1.258.261-3.172.739-3.7,1.311A11.937,11.937,0,0,0,747.157,437l4.544,1.64.658.238,1.856.67-.6,1.148-5.618,10.677s-.186.3-.439.7h0c-.328.514-.766,1.185-1.053,1.555-.509.655-.364,2.729-.364,2.729a2.913,2.913,0,0,1-.473,1.346c-.364.364-.291,1.71-.291,1.71l-.946,3.529s-.873.8-.873,1.164a4.8,4.8,0,0,1-.691,1.383S741.808,467.239,742.864,466.984Z" transform="translate(-614.776 -360.826)" fill="#b24b8e"/>
  <path id="Path_491" data-name="Path 491" d="M936.331,646.435s-2.292.764-2.911,1.856S936.331,646.435,936.331,646.435Z" transform="translate(-770.985 -537.657)" opacity="0.1"/>
  <path id="Path_492" data-name="Path 492" d="M930.056,633.237c-.073.109-3.14,3.186-2.947,3.93S930.056,633.237,930.056,633.237Z" transform="translate(-765.875 -526.861)" opacity="0.1"/>
  <path id="Path_493" data-name="Path 493" d="M834,645.235s-3.42,1.613-3.711,2.316S834,645.235,834,645.235Z" transform="translate(-686.669 -536.676)" opacity="0.1"/>
  <path id="Path_494" data-name="Path 494" d="M833.643,656.634s-3.087,1.31-3.508,1.637S833.643,656.634,833.643,656.634Z" transform="translate(-686.526 -546.001)" opacity="0.1"/>
  <path id="Path_495" data-name="Path 495" d="M831.658,671.113s-1.367,1.019-2.121.218S831.658,671.113,831.658,671.113Z" transform="translate(-685.96 -557.678)" opacity="0.1"/>
  <path id="Path_496" data-name="Path 496" d="M843.161,526.051c-.073.109-4.621,8.3-5.822,8.914S843.161,526.051,843.161,526.051Z" transform="translate(-692.332 -439.177)" opacity="0.1"/>
  <path id="Path_497" data-name="Path 497" d="M845.247,543.049c0,.182-4.439,9.678-5.167,9.788S845.247,543.049,845.247,543.049Z" transform="translate(-694.637 -453.082)" opacity="0.1"/>
  <path id="Path_498" data-name="Path 498" d="M762.012,576.644s-2.144,4.578-2.984,4.839S762.012,576.644,762.012,576.644Z" transform="translate(-628.285 -480.565)" opacity="0.1"/>
  <path id="Path_499" data-name="Path 499" d="M768.276,565.446s-.739,1.6-1.188,1.6S768.276,565.446,768.276,565.446Z" transform="translate(-634.913 -471.404)" opacity="0.1"/>
  <path id="Path_500" data-name="Path 500" d="M830.956,366.576a6.27,6.27,0,0,1-.315,1.965,5.145,5.145,0,0,1-.182.482,1.851,1.851,0,0,1-.882-.388,2.184,2.184,0,0,1-.66-.706,8.844,8.844,0,0,1-.322-.919,2.138,2.138,0,0,0-1.727-1.308.671.671,0,0,1-.533.91,1.3,1.3,0,0,1-1.09-.486c-.282-.3-.486-.673-.766-.977a1.3,1.3,0,0,0-1.09-.486,2.493,2.493,0,0,0-.946.537.911.911,0,0,1-1.019.124c-.164-.122-.244-.329-.4-.462-.4-.337-1.028.011-1.325.446a3.515,3.515,0,0,1-1.328,1.385c0-.038,0-.078,0-.116a6.295,6.295,0,1,1,12.589,0Z" transform="translate(-676.925 -303.57)" opacity="0.1"/>
  <path id="Path_501" data-name="Path 501" d="M813.287,341.021c.3-.435.922-.783,1.325-.445.156.131.236.339.4.462a.91.91,0,0,0,1.019-.124,2.478,2.478,0,0,1,.945-.537,1.3,1.3,0,0,1,1.09.486c.281.3.485.673.766.977a1.3,1.3,0,0,0,1.09.485.669.669,0,0,0,.533-.909,2.138,2.138,0,0,1,1.726,1.308,8.853,8.853,0,0,0,.322.919,2.179,2.179,0,0,0,.661.705,1.565,1.565,0,0,0,1.146.38c.408-.071.753-.538.563-.906.13.2.41-.078.453-.311a3.329,3.329,0,0,0-.084-1.536,4.125,4.125,0,0,1-.46-2.034,5.707,5.707,0,0,1,.875-1.416,2.56,2.56,0,0,0-.241-2.788,3.17,3.17,0,0,0-2.619-1.148,4.329,4.329,0,0,1-.823.015,2.708,2.708,0,0,1-1.207-.646l-3.048-2.379a3.75,3.75,0,0,0-1.152-.694,1.273,1.273,0,0,0-1.266.231c-.571.571-.208,1.553-.437,2.327a2.241,2.241,0,0,1-1.5,1.351c-.661.226-1.369.276-2.048.44a1.124,1.124,0,0,0-.548.255,1.084,1.084,0,0,0-.238.774,4.215,4.215,0,0,0,.473,1.968c.353.679.912,1.376.714,2.115a2.7,2.7,0,0,1-.672,1c-.576.662-.77,1.641.313,1.3A3.137,3.137,0,0,0,813.287,341.021Z" transform="translate(-670.513 -279.464)" fill="#434175"/>
  <path id="Path_505" data-name="Path 505" d="M770.757,498.945h0a5.541,5.541,0,0,1,.111.609s2.874,6.731,3.238,7.131c.112.123.534.728,1.065,1.508.192.282.4.586.609.9,1.1,1.633,2.329,3.487,2.329,3.487l2.693,2.365s5.857.469,7.719-1.432c-.226-.157-.369-.242-.369-.242l-.8-.622c-.413-.7-1.994-1.376-3.594-1.91-1.474.011-2.68.13-2.68.13l-.383-1.01-.4-1.054-2.035-5.359s-1.313-6.768-1.749-7.1-.327-1.346-.327-1.346.8-2.874.509-3.275.473-3.347.473-3.347a3.049,3.049,0,0,0-.349-.817L771.2,498.245S771.01,498.549,770.757,498.945Z" transform="translate(-637.978 -407.696)" opacity="0.1"/>
  <path id="Path_506" data-name="Path 506" d="M772.494,476.966s-.764,2.947-.473,3.347-.509,3.275-.509,3.275-.109,1.019.327,1.346,1.749,7.1,1.749,7.1l2.819,7.423s8.821-.873,7.912,1.892-8.187,2.183-8.187,2.183l-2.693-2.365s-3.638-5.494-4-5.894-3.238-7.131-3.238-7.131a4.351,4.351,0,0,0-.764-2.038c-.619-.691-.146-1.861-.146-1.861s-.764-8.8.036-9.855S771.658,473.8,772.494,476.966Z" transform="translate(-633.237 -396.496)" fill="#ee8e9e"/>
  <path id="Path_507" data-name="Path 507" d="M766.027,458.207l-2.292,1.383s-.655,2.219-1.164,2.511c0,0,4.584-2.547,8.041,3.311a1.326,1.326,0,0,1,.364-1.128c.473-.364.364-1.928.364-1.928a6.3,6.3,0,0,0,.327-.764C771.994,460.79,770.284,456.206,766.027,458.207Z" transform="translate(-631.281 -383.267)" opacity="0.1"/>
  <path id="Path_508" data-name="Path 508" d="M765.627,457.407l-2.292,1.383s-.655,2.22-1.164,2.511c0,0,4.585-2.547,8.041,3.311a1.326,1.326,0,0,1,.364-1.128c.473-.364.364-1.928.364-1.928a6.313,6.313,0,0,0,.327-.764C771.594,459.99,769.884,455.406,765.627,457.407Z" transform="translate(-630.954 -382.613)" fill="#a04380"/>
  <ellipse id="Ellipse_145" data-name="Ellipse 145" cx="6.833" cy="7.253" rx="6.833" ry="7.253" transform="translate(107.409 124.007)" fill="#fbd56f"/>
  <ellipse id="Ellipse_146" data-name="Ellipse 146" cx="6.833" cy="7.253" rx="6.833" ry="7.253" transform="translate(107.409 124.007)" opacity="0.1"/>
  <ellipse id="Ellipse_147" data-name="Ellipse 147" cx="6.833" cy="7.092" rx="6.833" ry="7.092" transform="translate(108.588 124.33)" fill="#fbd56f"/>
  <ellipse id="Ellipse_148" data-name="Ellipse 148" cx="8.44" cy="1.427" rx="8.44" ry="1.427" transform="translate(7.962 132.393)" fill="#b4d9e1"/>
  <path id="Path_509" data-name="Path 509" d="M115.205,753.757a2.45,2.45,0,0,0,.8-1.214,1.08,1.08,0,0,0-.562-1.237,1.581,1.581,0,0,0-1.487.522,1.988,1.988,0,0,1-1.445.7,2.2,2.2,0,0,0,.681-2.059.86.86,0,0,0-.189-.418c-.287-.307-.806-.175-1.15.067a4.283,4.283,0,0,0-1.4,3.585,6.781,6.781,0,0,1-.02-1.477,1.515,1.515,0,0,0-.555-1.306,1.67,1.67,0,0,0-.846-.2,1.75,1.75,0,0,0-1.372.39,1.364,1.364,0,0,0,.054,1.685,5.318,5.318,0,0,0,1.42,1.138,3.15,3.15,0,0,1,1.015.968.956.956,0,0,1,.075.173H113.3a8.575,8.575,0,0,0,1.9-1.314Z" transform="translate(-95.314 -622.271)" fill="#cb7caf"/>
  <path id="Path_510" data-name="Path 510" d="M513.1,727.2a7.359,7.359,0,0,1,.915,1.67c.061.154.121.315.178.484.909,2.717-.531,5.976-.943,5.625s-1.7-1-1.944-.087a5.259,5.259,0,0,1-1.165,1.853c-1.67,1.68-3.182-.135-4.175-2.011a18.174,18.174,0,0,1-.863-1.908c-.22-.576-.347-.974-.347-.974l6.957-5.928A4.117,4.117,0,0,1,513.1,727.2Z" transform="translate(-420.377 -602.686)" fill="#b24b8e"/>
  <path id="Path_511" data-name="Path 511" d="M452.839,748.035a7.357,7.357,0,0,1,.915,1.67c.061.154.121.315.178.484.909,2.717-.531,5.976-.943,5.625s-1.7-1-1.944-.087a5.259,5.259,0,0,1-1.165,1.853c-1.67,1.68-3.182-.135-4.175-2.011a18.165,18.165,0,0,1-.863-1.908c-.22-.576-.347-.974-.347-.974l6.957-5.928A4.117,4.117,0,0,1,452.839,748.035Z" transform="translate(-371.079 -619.728)" fill="#b24b8e"/>
  <path id="Path_512" data-name="Path 512" d="M322.053,774.152a7.357,7.357,0,0,1-.362,1.87c-.051.157-.108.32-.172.486-1.034,2.672-4.223,4.262-4.316,3.728s-.665-1.855-1.441-1.308a5.258,5.258,0,0,1-2.08.683c-2.358.227-2.364-2.135-1.931-4.212a18.165,18.165,0,0,1,.553-2.02c.2-.584.355-.971.355-.971l9.139-.124A4.118,4.118,0,0,1,322.053,774.152Z" transform="translate(-262.309 -640.609)" fill="#b24b8e"/>
  <path id="Path_513" data-name="Path 513" d="M257.154,757.784a7.355,7.355,0,0,1-.362,1.87c-.051.157-.108.32-.172.486-1.034,2.672-4.223,4.262-4.316,3.728s-.665-1.855-1.441-1.308a5.258,5.258,0,0,1-2.08.683c-2.358.227-2.364-2.135-1.931-4.212a18.158,18.158,0,0,1,.553-2.02c.2-.584.355-.971.355-.971l9.139-.124A4.118,4.118,0,0,1,257.154,757.784Z" transform="translate(-209.218 -627.219)" fill="#b24b8e"/>
  <path id="Path_514" data-name="Path 514" d="M513.1,727.2a7.359,7.359,0,0,1,.915,1.67c.061.154.121.315.178.484.909,2.717-.531,5.976-.943,5.625s-1.7-1-1.944-.087a5.259,5.259,0,0,1-1.165,1.853c-1.67,1.68-3.182-.135-4.175-2.011a18.174,18.174,0,0,1-.863-1.908c-.22-.576-.347-.974-.347-.974l6.957-5.928A4.117,4.117,0,0,1,513.1,727.2Z" transform="translate(-420.377 -602.686)" opacity="0.2"/>
  <path id="Path_515" data-name="Path 515" d="M452.839,748.035a7.357,7.357,0,0,1,.915,1.67c.061.154.121.315.178.484.909,2.717-.531,5.976-.943,5.625s-1.7-1-1.944-.087a5.259,5.259,0,0,1-1.165,1.853c-1.67,1.68-3.182-.135-4.175-2.011a18.165,18.165,0,0,1-.863-1.908c-.22-.576-.347-.974-.347-.974l6.957-5.928A4.117,4.117,0,0,1,452.839,748.035Z" transform="translate(-371.079 -619.728)" opacity="0.2"/>
  <path id="Path_516" data-name="Path 516" d="M322.053,774.152a7.357,7.357,0,0,1-.362,1.87c-.051.157-.108.32-.172.486-1.034,2.672-4.223,4.262-4.316,3.728s-.665-1.855-1.441-1.308a5.258,5.258,0,0,1-2.08.683c-2.358.227-2.364-2.135-1.931-4.212a18.165,18.165,0,0,1,.553-2.02c.2-.584.355-.971.355-.971l9.139-.124A4.118,4.118,0,0,1,322.053,774.152Z" transform="translate(-262.309 -640.609)" opacity="0.2"/>
  <path id="Path_517" data-name="Path 517" d="M257.154,757.784a7.355,7.355,0,0,1-.362,1.87c-.051.157-.108.32-.172.486-1.034,2.672-4.223,4.262-4.316,3.728s-.665-1.855-1.441-1.308a5.258,5.258,0,0,1-2.08.683c-2.358.227-2.364-2.135-1.931-4.212a18.158,18.158,0,0,1,.553-2.02c.2-.584.355-.971.355-.971l9.139-.124A4.118,4.118,0,0,1,257.154,757.784Z" transform="translate(-209.218 -627.219)" opacity="0.2"/>
  <path id="Path_518" data-name="Path 518" d="M235.647,347.326c0,24.41-8.258,44.2-46.364,44.2-25.606,0-45.417-6.362-46.364-44.2-.611-24.4,20.758-44.2,46.364-44.2S235.647,322.916,235.647,347.326Z" transform="translate(-124.364 -256.815)" fill="#b4d9e1"/>
  <path id="Path_519" data-name="Path 519" d="M349.994,307.369h0Z" transform="translate(-293.773 -260.284)" opacity="0.2"/>
  <path id="Path_520" data-name="Path 520" d="M350.2,306.94c.118-.019.351-.051.689-.077l-.754.089.041-.008Z" transform="translate(-293.888 -259.87)" opacity="0.2"/>
  <path id="Path_521" data-name="Path 521" d="M387.874,322.31l-3.384,1.218a75.591,75.591,0,0,0-5.56-6.628,54.313,54.313,0,0,0-7.041-6.307c-8.665-6.422-15.367-6.586-17.581-6.421l5.087-.6a41.362,41.362,0,0,1,13.658,4.937,45.12,45.12,0,0,1,8.208,6.063A40.133,40.133,0,0,1,387.874,322.31Z" transform="translate(-297.303 -257.18)" opacity="0.2"/>
  <path id="Path_522" data-name="Path 522" d="M360.739,333.363s-4.467-14.891-.677-18.952c0,0,5.956-2.031,10.424,9.476Z" transform="translate(-300.761 -265.932)" opacity="0.2"/>
  <path id="Path_523" data-name="Path 523" d="M494.962,304.762s11.847-10.067,17.087-8.225c0,0,4.25,4.641-4.5,13.35Z" transform="translate(-412.364 -251.239)" fill="#67b1c3"/>
  <path id="Path_524" data-name="Path 524" d="M494.962,304.762s11.847-10.067,17.087-8.225c0,0,4.25,4.641-4.5,13.35Z" transform="translate(-412.364 -251.239)" fill="#67b1c3" opacity="0.2"/>
  <path id="Path_525" data-name="Path 525" d="M553.755,500.8c0,13.121-9.416,23.487-18.275,23.487s-13.808-10.366-13.808-23.487,7.2-23.245,16.041-23.758C551.724,476.229,553.755,487.677,553.755,500.8Z" transform="translate(-434.214 -399.051)" fill="#67b1c3"/>
  <path id="Path_526" data-name="Path 526" d="M553.755,500.8c0,13.121-9.416,23.487-18.275,23.487s-13.808-10.366-13.808-23.487,7.2-23.245,16.041-23.758C551.724,476.229,553.755,487.677,553.755,500.8Z" transform="translate(-434.214 -399.051)" opacity="0.2"/>
  <ellipse id="Ellipse_149" data-name="Ellipse 149" cx="2.978" cy="3.79" rx="2.978" ry="3.79" transform="translate(97.746 99.92)" fill="#b24b8e"/>
  <ellipse id="Ellipse_150" data-name="Ellipse 150" cx="2.978" cy="3.79" rx="2.978" ry="3.79" transform="translate(108.305 96.671)" fill="#b24b8e"/>
  <path id="Path_527" data-name="Path 527" d="M460.882,326.871a5.4,5.4,0,0,1-.578,2.445,5.2,5.2,0,0,1-2.331,2.326,54.312,54.312,0,0,0-7.041-6.307,5.305,5.305,0,0,1,1.164-2.082,4.991,4.991,0,0,1,3.7-1.658A5.184,5.184,0,0,1,460.882,326.871Z" transform="translate(-376.345 -271.921)" fill="#fad46f"/>
</svg>
